<?xml version="1.0" standalone="no"?>
<!DOCTYPE svg PUBLIC "-//W3C//DTD SVG 20010904//EN"
 "http://www.w3.org/TR/2001/REC-SVG-20010904/DTD/svg10.dtd">
<svg version="1.0" xmlns="http://www.w3.org/2000/svg"
 width="1024.000000pt" height="1024.000000pt" viewBox="0 0 1024.000000 1024.000000"
 preserveAspectRatio="xMidYMid meet">

<g transform="translate(0.000000,1024.000000) scale(0.100000,-0.100000)"
fill="#000000" stroke="none">
<path d="M7025 9380 c-176 -3 -282 -6 -236 -8 104 -3 102 -10 -2 -14 l-78 -2
3 -41 3 -40 268 -3 267 -2 0 -300 0 -300 50 0 50 0 0 360 c0 198 -1 359 -2
358 -2 -2 -147 -5 -323 -8z m-98 -16 c-3 -3 -12 -4 -19 -1 -8 3 -5 6 6 6 11 1
17 -2 13 -5z m96 -1 c-13 -2 -33 -2 -45 0 -13 2 -3 4 22 4 25 0 35 -2 23 -4z
m70 0 c-7 -2 -21 -2 -30 0 -10 3 -4 5 12 5 17 0 24 -2 18 -5z m247 -10 c0 -13
-3 -14 -8 -6 -5 8 -44 13 -112 16 l-105 3 113 2 c101 2 112 0 112 -15z m-3
-155 c-2 -24 -4 -7 -4 37 0 44 2 63 4 43 2 -21 2 -57 0 -80z m-65 55 c-3 -16
-7 -22 -10 -15 -4 13 4 42 11 42 2 0 2 -12 -1 -27z m-5 -65 c-3 -7 -5 -2 -5
12 0 14 2 19 5 13 2 -7 2 -19 0 -25z m0 -50 c-3 -8 -6 -5 -6 6 -1 11 2 17 5
13 3 -3 4 -12 1 -19z m70 -75 c-2 -16 -4 -3 -4 27 0 30 2 43 4 28 2 -16 2 -40
0 -55z m-70 -5 c-3 -8 -6 -5 -6 6 -1 11 2 17 5 13 3 -3 4 -12 1 -19z m0 -70
c-2 -13 -4 -5 -4 17 -1 22 1 32 4 23 2 -10 2 -28 0 -40z m70 -110 c-3 -8 -6
-5 -6 6 -1 11 2 17 5 13 3 -3 4 -12 1 -19z m0 -130 c-2 -13 -4 -5 -4 17 -1 22
1 32 4 23 2 -10 2 -28 0 -40z m-64 -48 c3 -11 1 -20 -4 -20 -5 0 -9 9 -9 20 0
11 2 20 4 20 2 0 6 -9 9 -20z m64 -12 c-3 -8 -6 -5 -6 6 -1 11 2 17 5 13 3 -3
4 -12 1 -19z"/>
<path d="M2890 9025 l0 -355 53 0 53 0 1 298 c1 163 2 299 2 302 1 3 116 4
256 2 l255 -3 0 56 0 55 -310 0 -310 0 0 -355z m17 -62 c-1 -76 -3 -14 -3 137
0 151 2 213 3 138 2 -76 2 -200 0 -275z m71 400 c-10 -2 -28 -2 -40 0 -13 2
-5 4 17 4 22 1 32 -1 23 -4z m65 0 c-7 -2 -21 -2 -30 0 -10 3 -4 5 12 5 17 0
24 -2 18 -5z m200 0 c-29 -2 -78 -2 -110 0 -32 2 -8 3 52 3 61 0 87 -1 58 -3z
m256 -20 c-2 -24 -2 -24 -6 -6 -4 21 -10 22 -101 26 l-97 3 103 2 102 2 -1
-27z m-587 -611 c2 -28 0 -52 -4 -52 -5 0 -7 33 -7 73 2 76 6 68 11 -21z m45
-48 c-3 -3 -12 -4 -19 -1 -8 3 -5 6 6 6 11 1 17 -2 13 -5z"/>
<path d="M5972 8265 c-7 -14 -12 -44 -12 -65 0 -30 -4 -40 -16 -40 -8 0 -13
-4 -10 -9 6 -8 -35 -44 -284 -250 -105 -87 -121 -102 -131 -126 -5 -11 -16
-31 -25 -45 -10 -15 -11 -18 -1 -7 19 22 45 22 82 -3 45 -30 62 -26 57 10 -4
25 -9 30 -32 30 -16 0 -36 7 -44 16 -21 21 -20 27 3 14 30 -15 91 -23 91 -11
0 6 -9 11 -19 11 -25 0 -51 10 -51 20 0 5 24 22 53 38 47 28 297 243 305 263
11 28 20 -2 26 -83 10 -133 26 -136 26 -5 0 59 4 107 8 107 5 0 36 -13 69 -30
34 -16 88 -40 120 -54 32 -13 141 -63 243 -111 250 -117 248 -117 255 -105 4
6 -17 21 -47 34 -29 13 -111 53 -183 88 -71 35 -160 76 -196 90 -36 15 -103
44 -150 66 -46 22 -90 42 -98 44 -8 2 29 17 82 33 53 15 94 32 91 36 -3 5 1 6
9 4 7 -3 24 -2 38 4 19 7 21 10 9 15 -9 4 -61 -8 -115 -25 -55 -17 -108 -33
-117 -36 -19 -6 -23 10 -20 75 2 39 -1 40 -16 7z"/>
<path d="M6250 8256 c0 -2 7 -7 16 -10 8 -3 12 -2 9 4 -6 10 -25 14 -25 6z"/>
<path d="M4238 8224 c-5 -4 -8 -18 -8 -32 0 -19 -4 -23 -17 -17 -59 24 -73 26
-90 16 -15 -9 -13 -10 12 -5 21 4 26 3 16 -4 -10 -8 -6 -11 18 -17 17 -3 31
-10 31 -13 0 -4 -28 -17 -62 -30 -219 -80 -322 -124 -468 -201 -136 -71 -160
-87 -137 -89 16 -2 34 1 40 6 26 20 249 134 299 152 29 10 115 43 191 73 77
30 147 52 158 50 12 -4 19 -14 19 -32 1 -23 2 -24 11 -8 6 10 8 25 5 33 -3 8
-3 14 0 14 2 0 51 -40 107 -88 118 -101 247 -202 259 -202 4 0 8 -8 8 -18 0
-9 9 -23 21 -30 12 -8 18 -19 15 -30 -10 -30 6 -42 34 -27 14 8 19 14 12 15
-7 0 -10 5 -7 10 4 6 9 8 13 6 4 -2 7 7 7 20 0 17 -4 22 -16 19 -9 -3 -24 4
-35 16 -24 28 -301 250 -355 286 -28 18 -39 32 -36 44 3 11 -2 19 -13 22 -12
3 -20 16 -22 37 -2 17 -6 28 -10 24z"/>
<path d="M4055 8211 c-17 -7 -17 -8 8 -15 15 -3 35 -2 45 4 13 8 11 9 -13 4
-23 -4 -26 -3 -15 5 17 12 4 13 -25 2z"/>
<path d="M3532 8053 c-22 -70 -44 -141 -47 -158 -4 -16 -13 -47 -21 -68 -17
-46 -17 -44 1 -44 8 0 17 14 21 31 3 17 15 59 26 93 11 34 16 68 12 74 -4 8
-3 9 5 5 8 -6 10 0 6 21 -3 15 -2 21 2 13 4 -9 17 17 35 69 15 47 26 87 23 89
-3 3 -5 -1 -5 -9 0 -11 -2 -11 -9 -1 -5 9 -22 -31 -49 -115z m39 66 c-5 -13
-10 -19 -10 -12 -1 15 10 45 15 40 3 -2 0 -15 -5 -28z"/>
<path d="M6977 8143 c3 -7 6 -13 8 -13 2 0 5 6 8 13 3 8 -1 14 -8 14 -7 0 -11
-6 -8 -14z"/>
<path d="M6919 8041 c-18 -42 -51 -134 -75 -206 -24 -71 -43 -122 -44 -113 0
23 -18 32 -34 19 -10 -9 -15 -8 -20 4 -3 9 -10 13 -16 10 -5 -3 -10 -2 -10 4
0 6 -28 19 -62 30 -35 11 -83 27 -108 36 -56 21 -251 63 -322 69 -139 13 -254
8 -378 -18 -69 -14 -143 -32 -165 -40 -38 -14 -39 -15 -15 -21 14 -3 91 5 170
18 265 44 513 19 755 -74 44 -17 89 -33 100 -36 11 -3 26 -10 32 -16 7 -5 32
-10 55 -12 l43 -2 49 146 c27 80 62 175 78 209 33 75 32 69 13 69 -9 0 -27
-30 -46 -76z m7 -28 c-8 -15 -15 -25 -16 -21 0 12 23 58 27 54 3 -2 -2 -17
-11 -33z"/>
<path d="M3240 8075 c0 -5 5 -17 10 -25 5 -8 10 -10 10 -5 0 6 -5 17 -10 25
-5 8 -10 11 -10 5z"/>
<path d="M3261 8014 c0 -11 3 -14 6 -6 3 7 2 16 -1 19 -3 4 -6 -2 -5 -13z"/>
<path d="M3287 7981 c-5 -20 59 -262 86 -321 10 -24 11 -24 14 -4 3 13 16 25
36 32 18 6 66 25 107 42 41 17 93 35 115 40 115 26 181 44 185 51 3 5 16 7 28
4 12 -2 55 3 95 12 85 18 297 21 377 5 30 -6 80 -13 110 -16 30 -3 67 -8 82
-12 14 -3 34 -1 45 5 16 11 16 11 -4 6 -13 -4 -23 -2 -23 3 0 5 -28 15 -62 20
-35 6 -99 18 -143 28 -176 36 -356 27 -560 -28 -60 -16 -132 -34 -159 -39 -28
-6 -66 -19 -85 -28 -20 -10 -42 -16 -49 -14 -7 3 -21 -1 -30 -9 -9 -8 -29 -22
-44 -31 -27 -17 -28 -17 -34 10 -17 79 -56 193 -63 188 -5 -3 -7 3 -5 13 3 9
1 28 -4 41 l-9 25 -6 -23z"/>
<path d="M4110 7821 c0 -4 -35 -11 -77 -15 -43 -4 -110 -16 -150 -26 -39 -10
-80 -16 -91 -13 -13 3 -42 -10 -82 -35 -34 -23 -96 -53 -138 -68 -43 -15 -89
-39 -105 -53 -67 -63 -77 -75 -77 -92 0 -10 5 -21 11 -24 6 -4 9 3 7 21 -2 21
3 31 22 41 22 11 27 10 44 -10 l19 -22 -7 30 c-5 22 -4 26 4 15 7 -11 12 -12
18 -4 4 7 23 19 42 28 19 8 64 32 100 52 119 66 216 94 363 102 124 8 167 5
321 -23 24 -4 27 -3 16 10 -7 8 -27 15 -46 15 -18 0 -40 7 -48 16 -9 8 -25 17
-36 19 -12 2 -36 13 -54 25 -35 21 -56 26 -56 11z m37 -17 c-3 -3 -12 -4 -19
-1 -8 3 -5 6 6 6 11 1 17 -2 13 -5z"/>
<path d="M4756 7815 c-11 -8 -15 -15 -9 -15 6 0 16 7 23 15 16 19 11 19 -14 0z"/>
<path d="M6004 7818 c-3 -4 -19 -8 -37 -8 -29 0 -30 -1 -11 -15 18 -14 17 -14
-12 -9 -21 4 -34 1 -43 -10 -8 -9 -18 -16 -23 -16 -5 0 -30 -16 -55 -35 -45
-34 -45 -50 0 -20 30 19 138 37 265 42 79 4 134 0 230 -17 117 -21 137 -28
261 -91 73 -38 139 -69 146 -69 7 0 15 -10 19 -22 5 -18 8 -20 15 -9 5 7 13
11 19 7 6 -4 6 4 -1 18 -7 13 -15 22 -18 20 -4 -2 -17 7 -30 19 -13 13 -82 51
-154 86 -71 34 -138 66 -147 72 -23 12 -37 11 -18 -1 34 -22 -16 -9 -65 16
-34 18 -69 28 -115 31 -47 3 -61 2 -50 -6 11 -8 -3 -10 -55 -9 -69 1 -70 1
-20 8 l50 7 -47 1 c-26 1 -49 6 -53 11 -6 11 -44 10 -51 -1z"/>
<path d="M4445 7800 c11 -5 29 -8 40 -8 16 0 15 2 -5 8 -34 11 -60 11 -35 0z"/>
<path d="M5898 7803 c7 -3 16 -2 19 1 4 3 -2 6 -13 5 -11 0 -14 -3 -6 -6z"/>
<path d="M5490 7791 c0 -6 4 -13 10 -16 6 -3 7 1 4 9 -7 18 -14 21 -14 7z"/>
<path d="M5710 7789 c-22 -8 -21 -8 8 -4 20 3 31 1 27 -5 -3 -6 -1 -10 5 -10
13 0 8 23 -6 26 -5 1 -20 -2 -34 -7z"/>
<path d="M4385 7773 c-20 -15 -20 -15 1 -9 13 4 26 1 34 -9 15 -18 40 -20 40
-3 0 9 3 9 12 0 15 -15 32 -16 23 -2 -3 6 2 10 12 10 15 0 16 2 3 10 -21 14
-58 12 -63 -2 -3 -10 -9 -9 -23 4 -17 15 -21 15 -39 1z"/>
<path d="M4620 7770 c8 -5 11 -10 5 -10 -5 0 -21 -3 -34 -7 -15 -4 -22 -2 -18
4 4 6 -4 11 -18 11 -17 0 -25 -6 -25 -19 0 -10 -9 -21 -20 -24 -22 -7 -18 -25
6 -25 8 0 13 4 10 9 -3 5 5 16 19 25 15 10 26 12 30 6 3 -6 1 -10 -6 -10 -8 0
-8 -4 1 -15 10 -12 16 -13 27 -4 10 9 20 9 40 0 23 -11 25 -10 14 3 -8 9 -11
25 -8 35 3 12 -1 22 -10 25 -23 9 -30 7 -13 -4z"/>
<path d="M4750 7770 c0 -6 7 -10 15 -10 8 0 15 2 15 4 0 2 -7 6 -15 10 -8 3
-15 1 -15 -4z"/>
<path d="M5805 7760 c-3 -5 -12 -7 -19 -4 -16 6 -31 -12 -17 -20 13 -8 38 3
45 20 6 16 0 19 -9 4z"/>
<path d="M5650 7730 c-12 -8 -9 -10 13 -10 15 0 27 5 27 10 0 13 -20 13 -40 0z"/>
<path d="M5533 7665 c0 -22 2 -30 4 -17 2 12 2 30 0 40 -3 9 -5 -1 -4 -23z"/>
<path d="M4121 7676 c-6 -7 -30 -16 -53 -20 -22 -4 -38 -9 -35 -13 11 -10 71
7 97 27 14 11 20 20 14 20 -6 0 -17 -6 -23 -14z"/>
<path d="M3895 7671 c-33 -8 -116 -50 -100 -51 6 0 34 9 63 20 29 11 61 20 73
20 11 0 17 5 14 10 -7 11 -7 11 -50 1z"/>
<path d="M4626 7665 c4 -8 10 -15 15 -15 5 0 9 7 9 15 0 8 -7 15 -15 15 -9 0
-12 -6 -9 -15z"/>
<path d="M4756 7663 c-6 -14 -5 -15 5 -6 7 7 10 15 7 18 -3 3 -9 -2 -12 -12z"/>
<path d="M5720 7644 c-19 -14 -37 -27 -40 -30 -10 -12 75 31 88 44 24 22 -10
12 -48 -14z"/>
<path d="M5878 7663 c7 -3 16 -2 19 1 4 3 -2 6 -13 5 -11 0 -14 -3 -6 -6z"/>
<path d="M6772 7635 c-15 -33 -15 -35 2 -35 8 0 16 13 18 30 6 37 -5 39 -20 5z"/>
<path d="M2707 7636 c-93 -34 -150 -116 -170 -246 -13 -87 4 -405 28 -490 8
-30 12 -39 9 -20 -18 124 -23 172 -24 230 -3 82 -2 88 10 70 5 -8 9 -44 9 -80
-1 -68 32 -238 51 -268 10 -15 11 -15 5 3 -36 110 -57 332 -41 430 5 26 4 35
-2 25 -5 -8 -12 -32 -16 -52 -4 -21 -12 -38 -18 -38 -17 0 -3 215 17 272 46
129 177 197 297 154 21 -8 35 -10 32 -5 -7 12 -74 29 -114 29 -19 -1 -52 -7
-73 -14z"/>
<path d="M3990 7640 c-8 -5 -10 -10 -5 -10 6 0 17 5 25 10 8 5 11 10 5 10 -5
0 -17 -5 -25 -10z"/>
<path d="M6174 7641 c3 -4 19 -14 36 -21 25 -11 36 -10 56 1 22 12 30 11 56
-4 16 -9 44 -17 63 -17 56 0 115 -27 159 -75 24 -25 49 -45 55 -45 7 0 21 -10
32 -22 10 -13 18 -18 19 -12 0 18 -40 64 -56 64 -8 0 -33 20 -55 43 -36 40
-46 45 -112 56 -39 7 -87 20 -105 29 -27 13 -37 13 -52 4 -14 -8 -27 -9 -45
-2 -32 12 -58 13 -51 1z"/>
<path d="M7358 7626 c-40 -14 -155 -93 -179 -122 -10 -13 -5 -12 16 4 17 13
61 44 98 69 63 43 73 47 146 51 91 5 130 -9 186 -66 32 -33 49 -72 25 -57 -6
3 -7 -1 -4 -9 3 -9 9 -16 13 -16 3 0 7 -15 8 -33 1 -32 1 -32 -17 11 -11 23
-22 42 -25 42 -3 0 -2 -8 3 -17 5 -10 12 -30 16 -45 l6 -27 -54 6 c-35 4 -56
2 -60 -6 -6 -8 0 -10 18 -5 36 9 98 -4 90 -18 -4 -7 -3 -8 4 -4 7 4 21 9 32
11 19 4 20 -1 20 -73 0 -80 -11 -119 -24 -86 -4 10 -3 20 1 23 4 3 7 13 7 21
-1 8 -2 30 -3 48 0 17 -4 31 -8 30 -5 -1 -26 4 -48 10 -49 14 -102 15 -110 2
-3 -6 1 -7 10 -4 25 10 105 -6 124 -25 34 -34 9 -330 -45 -530 -19 -68 -33
-126 -30 -128 9 -9 86 301 86 350 0 4 4 7 8 7 5 0 9 -13 10 -30 0 -16 -2 -30
-6 -30 -4 0 -8 -26 -8 -58 -1 -46 -45 -224 -89 -357 -6 -17 -5 -18 4 -3 16 24
88 282 101 358 18 112 26 240 26 385 -1 132 -3 143 -29 197 -28 58 -80 108
-131 128 -38 14 -143 12 -188 -4z m329 -213 c-3 -10 -5 -2 -5 17 0 19 2 27 5
18 2 -10 2 -26 0 -35z m-2 -288 c-4 -41 -10 -75 -14 -75 -7 0 -5 34 5 118 9
73 17 38 9 -43z"/>
<path d="M2930 7593 c14 -10 52 -42 85 -73 l60 -54 -53 55 c-28 30 -67 63 -85
72 -31 17 -31 17 -7 0z"/>
<path d="M5599 7595 c-17 -9 -26 -22 -25 -37 1 -30 14 -29 55 3 50 39 27 65
-30 34z"/>
<path d="M2693 7589 c-18 -5 -41 -23 -53 -42 l-22 -32 25 28 c16 19 42 33 78
42 30 7 43 13 29 13 -14 0 -39 -4 -57 -9z"/>
<path d="M2788 7593 c6 -2 18 -2 25 0 6 3 1 5 -13 5 -14 0 -19 -2 -12 -5z"/>
<path d="M7420 7596 c0 -2 7 -7 16 -10 8 -3 12 -2 9 4 -6 10 -25 14 -25 6z"/>
<path d="M2870 7569 c24 -11 54 -28 65 -37 20 -17 20 -17 2 5 -20 23 -76 53
-99 53 -7 0 7 -10 32 -21z"/>
<path d="M3980 7584 c-8 -3 -20 -7 -27 -9 -8 -3 -9 -13 -3 -34 6 -20 5 -33 -2
-37 -7 -5 -8 -2 -3 7 5 10 5 11 -3 4 -6 -5 -13 -23 -17 -40 -5 -26 -4 -27 4
-7 12 26 23 29 19 5 -2 -13 7 -19 32 -25 84 -17 96 -21 107 -36 11 -14 15 -13
33 3 20 18 21 18 39 -2 18 -19 18 -22 3 -37 -10 -10 -12 -16 -4 -16 7 0 12 5
12 11 0 12 42 1 51 -14 9 -13 23 30 22 66 0 15 2 25 5 22 8 -8 31 28 32 49 0
15 5 17 28 11 18 -4 24 -3 17 3 -11 11 -55 20 -52 11 3 -8 -30 -39 -41 -39 -6
0 -29 18 -51 40 -22 22 -46 40 -53 40 -7 0 -8 3 -2 9 8 8 47 5 139 -13 17 -3
11 1 -15 10 -45 17 -240 29 -270 18z m0 -94 c0 -5 -4 -10 -10 -10 -5 0 -10 5
-10 10 0 6 5 10 10 10 6 0 10 -4 10 -10z"/>
<path d="M6168 7583 c7 -3 16 -2 19 1 4 3 -2 6 -13 5 -11 0 -14 -3 -6 -6z"/>
<path d="M7355 7580 c-3 -6 1 -7 9 -4 18 7 21 14 7 14 -6 0 -13 -4 -16 -10z"/>
<path d="M7530 7569 c25 -11 56 -30 70 -42 l25 -22 -25 28 c-14 16 -40 35 -59
43 -52 22 -62 16 -11 -7z"/>
<path d="M6005 7570 c-3 -5 -16 -10 -27 -10 -12 0 -18 -3 -15 -6 4 -4 -15 -18
-41 -32 -26 -13 -51 -29 -57 -34 -5 -6 4 -3 22 6 57 28 62 24 56 -46 -2 -35
-2 -60 1 -57 4 3 8 25 11 49 4 48 12 60 21 36 3 -9 10 -13 15 -10 5 3 9 -12 9
-33 0 -33 4 -40 30 -51 17 -8 30 -20 30 -28 0 -8 7 -14 16 -14 8 0 12 5 9 10
-3 6 -1 10 4 10 15 0 14 43 -1 58 -16 16 -10 20 37 24 35 3 40 0 43 -20 3 -18
-1 -22 -25 -22 -21 0 -24 -3 -14 -9 9 -6 22 -6 33 0 10 5 18 6 18 2 0 -4 5 -2
12 5 7 7 22 12 34 12 20 0 23 -6 26 -47 2 -27 -3 -61 -11 -78 -20 -45 4 -17
34 39 22 41 25 59 23 123 -1 45 -7 78 -15 85 -7 5 -10 14 -8 19 7 10 -28 29
-52 28 -13 -1 -11 -3 7 -9 14 -4 19 -8 12 -9 -7 -1 -10 -6 -6 -13 5 -8 2 -9
-11 -5 -50 20 -111 29 -156 24 -31 -4 -47 -2 -44 3 4 6 2 10 -4 10 -5 0 -13
-4 -16 -10z m263 -66 c-15 -16 -18 -16 -33 0 -15 15 -14 16 16 16 31 0 32 -1
17 -16z m22 -110 c0 -9 -5 -14 -12 -12 -18 6 -21 28 -4 28 9 0 16 -7 16 -16z"/>
<path d="M7309 7553 c-13 -17 -13 -17 6 -3 11 8 22 16 24 17 2 2 0 3 -6 3 -6
0 -17 -8 -24 -17z"/>
<path d="M2862 7530 c0 -14 2 -19 5 -12 2 6 2 18 0 25 -3 6 -5 1 -5 -13z"/>
<path d="M3535 7540 c3 -5 8 -10 11 -10 2 0 4 5 4 10 0 6 -5 10 -11 10 -5 0
-7 -4 -4 -10z"/>
<path d="M3850 7540 c-9 -6 -10 -10 -3 -10 6 0 15 5 18 10 8 12 4 12 -15 0z"/>
<path d="M3431 7524 c0 -11 3 -14 6 -6 3 7 2 16 -1 19 -3 4 -6 -2 -5 -13z"/>
<path d="M7255 7519 c-50 -55 -152 -107 -128 -66 3 7 2 8 -3 4 -4 -4 -9 -19
-10 -32 -1 -21 1 -22 20 -12 12 7 23 14 26 17 3 3 21 17 40 32 57 43 94 78 83
78 -5 0 -18 -9 -28 -21z"/>
<path d="M3591 7521 c-11 -7 -11 -9 0 -13 8 -3 22 -3 32 0 15 4 16 7 5 13 -16
11 -20 11 -37 0z"/>
<path d="M3037 7440 l82 -85 -10 -60 c-12 -77 -13 -82 -11 -129 3 -55 14 -37
17 26 1 29 2 72 3 95 1 23 9 48 17 57 17 16 21 41 5 31 -5 -3 -10 3 -10 15 0
12 5 18 10 15 6 -3 10 -1 10 4 0 6 -12 11 -27 10 -16 0 -22 -3 -15 -6 6 -2 12
-14 12 -26 0 -17 -16 -6 -82 58 l-83 80 82 -85z"/>
<path d="M3780 7510 c-8 -5 -10 -10 -5 -10 6 0 17 5 25 10 8 5 11 10 5 10 -5
0 -17 -5 -25 -10z"/>
<path d="M6310 7506 c0 -2 7 -7 16 -10 8 -3 12 -2 9 4 -6 10 -25 14 -25 6z"/>
<path d="M5580 7485 c-15 -18 -5 -35 20 -35 13 0 17 5 14 15 -5 11 -2 14 12 9
17 -6 17 -5 -1 9 -25 20 -30 21 -45 2z"/>
<path d="M2584 7455 c-7 -19 -14 -41 -14 -50 0 -17 37 -20 60 -5 11 7 6 8 -17
4 -38 -7 -40 0 -19 51 8 19 13 35 10 35 -3 0 -12 -16 -20 -35z"/>
<path d="M4603 7465 c0 -8 4 -15 9 -15 4 0 8 4 8 9 0 6 -4 12 -8 15 -5 3 -9
-1 -9 -9z"/>
<path d="M5825 7470 c-3 -6 1 -7 9 -4 18 7 21 14 7 14 -6 0 -13 -4 -16 -10z"/>
<path d="M3699 7453 c-13 -16 -12 -17 4 -4 16 13 21 21 13 21 -2 0 -10 -8 -17
-17z"/>
<path d="M7365 7460 c-3 -6 1 -7 9 -4 18 7 21 14 7 14 -6 0 -13 -4 -16 -10z"/>
<path d="M3124 7449 c-2 -4 6 -9 17 -12 19 -5 21 -12 18 -81 -2 -41 0 -78 4
-82 7 -7 12 67 8 114 -1 17 6 25 29 34 17 6 28 14 23 18 -11 10 -93 18 -99 9z
m83 -15 c-3 -3 -12 -4 -19 -1 -8 3 -5 6 6 6 11 1 17 -2 13 -5z"/>
<path d="M3756 7445 c-11 -8 -15 -15 -9 -15 6 0 16 7 23 15 16 19 11 19 -14 0z"/>
<path d="M6990 7446 c-42 -12 -44 -13 -23 -24 12 -7 30 -12 40 -11 12 1 10 3
-7 8 -23 7 -22 9 18 20 23 6 42 14 42 16 0 7 -19 5 -70 -9z"/>
<path d="M7431 7433 c0 -17 -12 -45 -26 -61 -14 -17 -25 -39 -25 -50 0 -12
-11 -24 -29 -31 -27 -12 -51 -47 -51 -74 1 -7 7 2 14 19 14 31 73 74 102 74
12 0 14 -7 10 -27 -15 -68 -10 -299 8 -381 15 -68 16 -93 7 -140 -18 -96 -57
-233 -64 -226 -4 4 -7 2 -7 -4 0 -7 6 -12 13 -12 16 0 52 74 43 88 -3 5 1 26
9 45 8 19 11 38 7 42 -4 5 -1 5 6 1 7 -4 12 -2 12 5 0 7 3 10 6 7 3 -3 -4 -24
-15 -47 -23 -45 -25 -51 -13 -51 14 0 53 106 46 126 -4 14 -3 15 4 5 7 -10 14
-1 25 35 27 84 65 237 71 284 l5 45 -10 -40 c-6 -22 -14 -56 -19 -75 l-10 -35
6 40 c3 22 8 66 11 98 6 57 19 76 25 36 2 -16 6 -12 14 16 8 25 8 33 1 26 -16
-16 -37 -13 -37 4 0 8 5 15 10 15 6 0 10 8 10 18 0 13 -2 14 -9 4 -7 -11 -9
-11 -14 2 -4 9 -4 23 -1 31 4 8 3 26 0 40 -5 21 -9 23 -31 15 -32 -12 -41 3
-47 78 -1 12 -5 22 -9 22 -4 0 -12 12 -18 28 l-11 27 6 -30 c3 -20 2 -27 -4
-20 -6 6 -12 21 -15 35 -4 21 -4 20 -6 -7z m29 -63 c0 -24 -12 -31 -30 -19
-11 6 -12 9 -2 9 9 0 11 7 7 20 -5 15 -3 18 9 14 9 -3 16 -14 16 -24z m27 -71
c6 -6 19 -12 29 -14 11 -1 18 -8 16 -14 -1 -6 5 -26 14 -43 14 -27 15 -47 9
-123 -4 -49 -8 -110 -8 -135 0 -29 -2 -38 -7 -25 -5 14 -11 0 -24 -53 -10 -40
-21 -72 -25 -72 -3 0 -7 37 -8 81 -1 45 -5 85 -10 88 -11 8 -15 321 -5 321 5
0 13 -5 19 -11z m-40 -21 c-3 -8 -6 -5 -6 6 -1 11 2 17 5 13 3 -3 4 -12 1 -19z
m3 -100 c0 -23 -3 -29 -11 -21 -6 6 -8 20 -4 32 9 30 15 26 15 -11z m0 -63 c0
-14 -4 -25 -9 -25 -6 0 -8 36 -2 48 5 10 11 -2 11 -23z m7 -217 c-3 -7 -5 -2
-5 12 0 14 2 19 5 13 2 -7 2 -19 0 -25z m80 0 c-3 -8 -6 -5 -6 6 -1 11 2 17 5
13 3 -3 4 -12 1 -19z m-65 -58 c-6 -41 -13 -38 -10 4 1 19 5 33 8 31 4 -2 5
-18 2 -35z"/>
<path d="M2834 7413 c15 -30 45 -57 94 -82 42 -22 22 -1 -28 30 -27 17 -50 34
-50 38 0 4 -7 16 -15 27 -14 17 -14 16 -1 -13z"/>
<path d="M3921 7424 c0 -11 3 -14 6 -6 3 7 2 16 -1 19 -3 4 -6 -2 -5 -13z"/>
<path d="M4314 7413 c2 -12 13 -19 32 -20 29 -2 27 2 -18 27 -13 8 -16 6 -14
-7z"/>
<path d="M3983 7414 c9 -3 14 -10 11 -16 -4 -7 -2 -8 4 -4 7 4 12 2 12 -4 0
-7 6 -10 13 -7 26 8 11 31 -23 33 -19 1 -27 0 -17 -2z"/>
<path d="M6476 7407 c3 -10 9 -15 12 -12 3 3 0 11 -7 18 -10 9 -11 8 -5 -6z"/>
<path d="M3608 7403 c7 -3 16 -2 19 1 4 3 -2 6 -13 5 -11 0 -14 -3 -6 -6z"/>
<path d="M5535 7400 c-3 -5 1 -10 10 -10 9 0 13 5 10 10 -3 6 -8 10 -10 10 -2
0 -7 -4 -10 -10z"/>
<path d="M5800 7390 c-9 -6 -10 -10 -3 -10 6 0 15 5 18 10 8 12 4 12 -15 0z"/>
<path d="M7057 7393 c-4 -3 -7 -25 -6 -47 l1 -41 9 44 c9 45 8 56 -4 44z"/>
<path d="M7316 7382 c-6 -17 -90 -70 -148 -94 -27 -11 -22 -16 10 -10 27 5 27
5 8 -17 -11 -11 -14 -21 -8 -21 6 0 17 8 24 19 7 10 32 28 56 40 23 12 42 24
42 27 0 2 -9 0 -21 -6 -11 -7 -23 -9 -26 -7 -3 3 9 13 26 21 29 16 58 53 48
63 -3 2 -8 -4 -11 -15z m-67 -76 c-2 -2 -15 -9 -29 -16 -23 -12 -24 -12 -11 3
7 10 20 17 29 17 8 0 13 -2 11 -4z"/>
<path d="M2824 7375 c8 -8 18 -15 22 -15 3 0 1 7 -6 15 -7 8 -17 15 -22 15 -5
0 -3 -7 6 -15z"/>
<path d="M4106 7382 c-2 -4 4 -9 15 -9 10 -1 19 2 19 8 0 11 -27 12 -34 1z"/>
<path d="M2980 7362 c11 -22 31 -22 29 1 0 8 -2 8 -6 -1 -4 -10 -9 -9 -20 5
-13 17 -13 16 -3 -5z"/>
<path d="M6640 7370 c0 -5 5 -10 10 -10 6 0 10 5 10 10 0 6 -4 10 -10 10 -5 0
-10 -4 -10 -10z"/>
<path d="M7077 7374 c-3 -5 1 -15 9 -22 16 -14 18 -5 5 17 -5 7 -11 9 -14 5z"/>
<path d="M2580 7360 c-24 -15 -7 -19 25 -5 23 10 25 14 10 14 -11 0 -27 -3
-35 -9z"/>
<path d="M2552 7335 c0 -16 2 -22 5 -12 2 9 2 23 0 30 -3 6 -5 -1 -5 -18z"/>
<path d="M2725 7351 c-2 -4 15 -8 38 -10 23 -1 38 1 35 5 -10 9 -67 13 -73 5z"/>
<path d="M5580 7353 c0 -14 48 -53 64 -53 6 0 2 6 -9 12 -11 6 -28 20 -37 32
-10 11 -18 16 -18 9z"/>
<path d="M2862 7342 c-8 -2 -11 -16 -8 -40 3 -21 3 -30 0 -21 -5 18 -65 49
-93 49 -9 0 -28 -11 -41 -25 -27 -29 -37 -27 -20 4 6 12 8 21 5 21 -12 0 -44
-88 -40 -110 7 -36 11 -34 25 15 12 43 51 85 80 85 29 0 69 -31 75 -60 4 -17
24 -76 46 -131 21 -55 39 -104 39 -109 0 -21 -32 5 -51 41 -22 43 -30 47 -50
22 -12 -14 -12 -16 0 -8 11 6 13 4 8 -11 -7 -18 -7 -18 8 0 8 11 15 18 16 15
0 -2 3 -17 5 -34 5 -35 43 -146 55 -159 4 -4 3 11 -3 35 -17 73 -18 88 -2 82
7 -3 13 -8 11 -11 -3 -13 75 -112 84 -106 5 3 7 10 4 15 -4 5 -1 9 4 9 14 0
14 -13 -1 -28 -8 -8 -8 -15 2 -27 11 -13 15 -13 22 -3 8 10 11 10 15 1 13 -35
47 11 56 77 2 8 6 21 10 28 5 6 5 12 0 12 -4 0 -19 -20 -32 -45 -13 -25 -27
-45 -31 -45 -3 0 -18 22 -31 48 -14 27 -30 47 -37 44 -6 -2 -17 9 -24 25 -7
15 -15 30 -18 33 -3 3 -6 15 -7 26 -4 34 -51 151 -53 129 -1 -14 -5 -10 -15
15 -18 46 -18 74 0 35 18 -40 19 -20 1 38 -7 25 -12 48 -9 51 2 2 36 -10 74
-26 75 -34 92 -58 70 -104 -15 -34 -15 -142 0 -127 6 6 12 32 13 56 0 25 4 43
9 40 11 -6 22 28 11 36 -13 9 -16 51 -4 51 6 0 10 -4 10 -10 0 -5 8 -10 17
-10 13 0 12 5 -9 28 -15 15 -30 39 -33 54 -4 16 -11 25 -16 22 -5 -3 -5 -13 1
-24 13 -24 13 -27 -5 -27 -8 0 -12 4 -9 8 2 4 -5 13 -17 19 -17 9 -20 9 -14 0
10 -17 -32 -4 -65 19 -14 10 -31 16 -38 13z m-181 -95 c-10 -9 -11 -8 -5 6 3
10 9 15 12 12 3 -3 0 -11 -7 -18z m228 -122 c0 -5 -4 -3 -9 5 -5 8 -9 22 -9
30 0 16 17 -16 18 -35z m21 -50 c0 -5 -5 -3 -10 5 -5 8 -10 20 -10 25 0 6 5 3
10 -5 5 -8 10 -19 10 -25z m170 -173 c0 -5 -7 -17 -16 -28 -8 -10 -14 -14 -11
-9 2 6 7 18 10 28 7 17 17 23 17 9z"/>
<path d="M6436 7299 c-21 -16 -35 -29 -30 -29 11 0 84 48 84 55 0 10 -17 2
-54 -26z"/>
<path d="M7101 7323 c-1 -6 -4 -20 -7 -30 -5 -17 -5 -17 6 0 6 10 9 23 6 30
-3 9 -5 9 -5 0z"/>
<path d="M7505 7310 c4 -6 11 -8 16 -5 14 9 11 15 -7 15 -8 0 -12 -5 -9 -10z"/>
<path d="M7285 7250 c-10 -33 -16 -62 -13 -65 2 -3 12 23 22 56 22 80 15 87
-9 9z"/>
<path d="M3960 7281 c0 -6 4 -13 10 -16 6 -3 7 1 4 9 -7 18 -14 21 -14 7z"/>
<path d="M6075 7280 c-14 -22 18 -40 57 -33 40 6 43 18 6 26 -13 2 -30 8 -39
11 -10 4 -20 2 -24 -4z"/>
<path d="M6285 7280 c3 -5 11 -10 16 -10 6 0 7 5 4 10 -3 6 -11 10 -16 10 -6
0 -7 -4 -4 -10z"/>
<path d="M6498 7269 c-21 -11 -38 -22 -38 -24 0 -3 18 4 40 15 22 11 40 23 40
25 0 7 0 7 -42 -16z"/>
<path d="M4213 7268 c-15 -20 -25 -38 -20 -38 3 0 12 11 21 25 17 26 16 35 -1
13z"/>
<path d="M7092 7240 c3 -35 28 -56 28 -23 0 15 -2 16 -10 3 -5 -8 -10 -10 -10
-4 0 5 5 15 10 20 8 8 6 15 -5 24 -15 12 -16 10 -13 -20z"/>
<path d="M3152 7230 c0 -19 2 -27 5 -17 2 9 2 25 0 35 -3 9 -5 1 -5 -18z"/>
<path d="M7140 7250 c-8 -5 -12 -12 -9 -15 4 -3 12 1 19 10 14 17 11 19 -10 5z"/>
<path d="M2781 7224 c0 -11 3 -14 6 -6 3 7 2 16 -1 19 -3 4 -6 -2 -5 -13z"/>
<path d="M6238 7223 c7 -3 16 -2 19 1 4 3 -2 6 -13 5 -11 0 -14 -3 -6 -6z"/>
<path d="M2620 7210 c0 -5 5 -10 11 -10 5 0 7 5 4 10 -3 6 -8 10 -11 10 -2 0
-4 -4 -4 -10z"/>
<path d="M7291 7184 c0 -11 3 -14 6 -6 3 7 2 16 -1 19 -3 4 -6 -2 -5 -13z"/>
<path d="M2791 7140 c-1 -30 -9 -73 -17 -95 -9 -24 -17 -83 -19 -145 -2 -61
-1 -88 4 -65 6 34 8 27 13 -50 3 -49 13 -110 22 -134 9 -24 14 -46 12 -49 -7
-6 -53 100 -67 152 -6 22 -15 59 -21 81 -6 22 -13 47 -16 55 -3 8 -5 18 -4 22
1 3 -5 46 -13 95 -8 48 -15 108 -16 133 l-2 45 -7 -55 c-4 -32 -7 -43 -9 -25
-2 40 -12 75 -21 75 -8 0 -6 -13 50 -249 46 -193 86 -303 130 -361 16 -21 21
-23 32 -11 11 12 10 13 -4 8 -17 -6 -33 17 -22 35 3 5 -2 31 -12 56 -15 36
-19 73 -19 164 0 65 -1 118 -2 118 -1 0 -7 -15 -12 -32 l-9 -33 -1 36 c-1 19
8 70 19 113 12 45 19 99 17 125 l-3 46 -3 -55z m-124 -107 c-3 -10 -5 -4 -5
12 0 17 2 24 5 18 2 -7 2 -21 0 -30z"/>
<path d="M7086 7122 c-4 -41 -5 -76 -3 -79 7 -6 20 122 15 139 -3 7 -8 -20
-12 -60z"/>
<path d="M3152 7124 c-2 -48 2 -65 16 -75 15 -12 16 -12 5 1 -7 9 -14 43 -16
75 l-3 60 -2 -61z"/>
<path d="M6098 7173 c7 -3 16 -2 19 1 4 3 -2 6 -13 5 -11 0 -14 -3 -6 -6z"/>
<path d="M7260 7169 c0 -3 -13 -55 -28 -115 -20 -79 -25 -111 -16 -111 7 0 10
7 6 15 -3 9 -1 13 5 9 7 -5 10 2 9 18 -2 13 1 22 5 19 5 -3 9 0 9 5 0 6 -4 11
-9 11 -5 0 0 32 11 71 10 39 16 74 13 77 -3 3 -5 3 -5 1z"/>
<path d="M7276 7134 c-4 -14 -5 -28 -3 -31 3 -2 8 8 11 23 4 14 5 28 3 31 -3
2 -8 -8 -11 -23z"/>
<path d="M7120 7138 c0 -2 6 -20 14 -41 l13 -39 7 32 c8 43 6 61 -4 30 -8 -24
-8 -24 -9 -2 -1 12 -5 22 -11 22 -5 0 -10 -1 -10 -2z"/>
<path d="M3112 7080 c0 -19 2 -27 5 -17 2 9 2 25 0 35 -3 9 -5 1 -5 -18z"/>
<path d="M7041 7084 c0 -11 3 -14 6 -6 3 7 2 16 -1 19 -3 4 -6 -2 -5 -13z"/>
<path d="M7300 7040 c-29 -34 -50 -63 -48 -66 3 -3 19 13 35 35 17 23 34 37
38 33 5 -4 5 -2 1 5 -3 6 -2 14 4 18 5 3 10 -1 10 -10 0 -23 -24 -95 -32 -95
-12 0 -36 -95 -41 -167 -5 -60 -3 -71 9 -66 8 3 14 1 14 -5 0 -6 3 -18 7 -28
5 -13 3 -15 -7 -9 -10 6 -11 2 -7 -16 17 -66 19 -139 6 -155 -12 -15 -11 -16
9 -10 17 6 21 4 16 -8 -3 -8 -12 -17 -20 -20 -8 -3 -14 -10 -14 -16 0 -7 6 -8
19 0 28 15 33 13 26 -11 -5 -15 -4 -19 4 -15 6 4 11 0 11 -9 0 -8 -11 -21 -25
-27 -14 -6 -25 -15 -25 -20 0 -5 -4 -7 -9 -4 -5 4 -7 -3 -4 -14 3 -11 9 -23
14 -25 11 -7 59 65 59 90 0 11 4 26 9 34 5 8 3 24 -5 40 -8 14 -14 38 -14 53
0 30 -39 187 -50 203 -4 6 -8 35 -9 65 -1 40 1 51 8 40 9 -13 11 -12 11 5 0
11 13 61 29 110 16 50 25 92 20 93 -5 2 -7 8 -4 12 3 5 13 6 22 3 11 -4 14 -3
9 5 -12 20 -22 14 -76 -48z m7 -402 c-3 -8 -6 -5 -6 6 -1 11 2 17 5 13 3 -3 4
-12 1 -19z m22 -65 c1 -7 -3 -13 -7 -13 -4 0 -8 15 -9 33 -2 26 0 28 7 12 5
-11 9 -26 9 -32z"/>
<path d="M7157 7058 c-4 -21 -3 -55 2 -75 16 -63 17 -128 1 -103 -5 8 -12 12
-15 9 -3 -4 3 -17 14 -30 20 -24 20 -24 35 -4 9 11 13 26 11 32 -2 7 -1 12 3
11 4 -1 25 15 47 36 27 26 32 34 15 25 -13 -8 -30 -21 -37 -29 -7 -8 -13 -11
-13 -6 0 5 -7 3 -15 -4 -8 -7 -15 -11 -16 -9 -1 5 -8 58 -18 129 l-7 55 -7
-37z"/>
<path d="M7073 6995 c0 -22 2 -30 4 -17 2 12 2 30 0 40 -3 9 -5 -1 -4 -23z"/>
<path d="M3161 6964 c0 -11 3 -14 6 -6 3 7 2 16 -1 19 -3 4 -6 -2 -5 -13z"/>
<path d="M3137 6875 c3 -27 7 -52 9 -54 8 -9 2 65 -6 84 -6 13 -7 2 -3 -30z"/>
<path d="M2921 6858 c0 -7 4 -22 9 -33 8 -18 9 -17 9 7 1 15 -3 30 -9 33 -5 3
-10 0 -9 -7z"/>
<path d="M7052 6850 c0 -14 2 -19 5 -12 2 6 2 18 0 25 -3 6 -5 1 -5 -13z"/>
<path d="M2581 6814 c0 -11 3 -14 6 -6 3 7 2 16 -1 19 -3 4 -6 -2 -5 -13z"/>
<path d="M2630 6805 c0 -12 83 -255 86 -252 5 4 -75 257 -81 257 -3 0 -5 -2
-5 -5z"/>
<path d="M3151 6779 c1 -19 5 -47 10 -64 5 -20 6 -9 2 30 -6 66 -14 88 -12 34z"/>
<path d="M2591 6786 c-4 -49 162 -466 184 -466 3 0 -8 26 -24 58 -40 79 -92
211 -120 302 -25 83 -39 120 -40 106z"/>
<path d="M2958 6783 c-10 -2 -18 -6 -18 -7 0 -2 -9 -38 -20 -82 -12 -43 -23
-104 -26 -133 -3 -30 -8 -59 -11 -65 -3 -5 -1 -6 5 -2 7 4 12 21 12 38 0 37 9
33 12 -5 1 -15 6 -27 11 -27 5 0 7 10 3 23 -3 12 3 55 13 95 11 39 15 70 11
67 -17 -10 -19 13 -6 51 l14 39 10 -35 c6 -19 11 -27 11 -16 1 14 6 17 26 12
14 -4 25 -2 25 4 0 5 -7 11 -15 11 -35 3 -38 4 -42 14 -2 6 6 11 17 12 13 1
18 -2 14 -9 -4 -6 -3 -8 3 -5 13 8 37 -18 29 -31 -3 -5 15 -29 39 -55 25 -25
45 -42 45 -38 0 5 -14 22 -30 40 -17 17 -28 36 -25 42 10 15 30 -5 54 -54 12
-23 21 -36 21 -29 0 22 -62 124 -79 129 -9 2 -24 9 -33 14 -18 9 -40 10 -70 2z
m-33 -168 l-15 -50 5 48 c5 48 16 80 22 62 1 -6 -4 -32 -12 -60z"/>
<path d="M7127 6739 c-14 -8 -15 -14 -7 -24 9 -10 7 -13 -5 -11 -9 1 -20 8
-24 15 -12 18 -40 -30 -43 -72 -1 -20 -6 -33 -12 -30 -5 4 -7 -11 -3 -39 6
-40 45 -128 80 -178 14 -21 27 -17 27 8 0 22 37 65 43 50 3 -7 6 -3 6 9 1 12
12 48 26 79 14 31 25 62 24 68 0 6 -5 0 -10 -14 -10 -23 -11 -24 -21 -7 -9 17
-11 16 -25 -10 -8 -15 -23 -50 -32 -77 -9 -27 -21 -51 -27 -53 -10 -3 -54 124
-54 157 0 8 18 33 41 56 27 27 40 49 37 62 -2 17 -6 19 -21 11z m-49 -54 c-6
-14 -13 -23 -15 -21 -5 5 15 46 22 46 3 0 -1 -11 -7 -25z m-8 -140 c0 -8 -2
-15 -4 -15 -2 0 -6 7 -10 15 -3 8 -1 15 4 15 6 0 10 -7 10 -15z m134 0 c-4 -8
-10 -13 -14 -10 -4 3 -10 -9 -14 -27 -3 -17 -9 -29 -12 -25 -10 10 17 77 31
77 9 0 12 -6 9 -15z m-106 -80 c-3 -3 -9 2 -12 12 -6 14 -5 15 5 6 7 -7 10
-15 7 -18z m30 -32 c-6 -7 -14 -13 -19 -13 -5 0 -9 6 -9 13 0 7 9 13 19 13 15
0 17 -3 9 -13z"/>
<path d="M3170 6649 c0 -19 5 -41 10 -49 7 -10 8 -1 4 30 -8 56 -14 64 -14 19z"/>
<path d="M2990 6665 c0 -5 5 -17 10 -25 5 -8 10 -10 10 -5 0 6 -5 17 -10 25
-5 8 -10 11 -10 5z"/>
<path d="M7211 6663 c-1 -6 -4 -20 -7 -30 -5 -17 -5 -17 6 0 6 10 9 23 6 30
-3 9 -5 9 -5 0z"/>
<path d="M7247 6663 c-4 -3 -7 -13 -7 -22 1 -13 3 -13 11 2 11 19 8 33 -4 20z"/>
<path d="M7546 6625 c-9 -26 -7 -32 5 -12 6 10 9 21 6 23 -2 3 -7 -2 -11 -11z"/>
<path d="M3133 6614 c22 -7 21 -11 -4 -80 -16 -42 -24 -53 -31 -43 -7 11 -8 9
-4 -5 4 -10 1 -25 -6 -33 -17 -21 -20 -47 -3 -33 19 16 64 122 67 160 2 28 -1
35 -17 37 -15 1 -16 1 -2 -3z"/>
<path d="M7004 6606 c-3 -8 -4 -25 -2 -38 3 -17 5 -13 9 15 5 38 2 47 -7 23z"/>
<path d="M3025 6553 c1 -23 9 -49 18 -57 19 -19 31 -21 20 -3 -9 14 -10 17
-13 60 -2 30 -2 31 -10 7 l-7 -25 -5 30 c-4 19 -5 15 -3 -12z"/>
<path d="M3118 6575 c-4 -16 -9 -39 -12 -50 -4 -11 1 -5 9 14 9 18 14 41 13
50 -2 9 -7 3 -10 -14z"/>
<path d="M7526 6575 c-9 -26 -7 -32 5 -12 6 10 9 21 6 23 -2 3 -7 -2 -11 -11z"/>
<path d="M7556 6525 c-9 -26 -7 -32 5 -12 6 10 9 21 6 23 -2 3 -7 -2 -11 -11z"/>
<path d="M2720 6529 c0 -4 9 -26 20 -50 11 -24 19 -37 19 -29 0 15 -38 91 -39
79z"/>
<path d="M6982 6460 c-9 -36 -7 -43 25 -92 46 -70 64 -89 76 -81 6 3 7 1 3 -5
-4 -7 -2 -12 3 -12 6 0 11 -6 11 -12 0 -7 12 -24 27 -38 15 -14 24 -20 21 -15
-3 6 1 16 9 24 12 11 15 10 20 -7 4 -18 11 -14 57 35 52 57 60 73 39 81 -7 2
-13 -1 -13 -7 0 -6 -7 -11 -16 -11 -15 0 -15 3 1 28 11 17 4 12 -21 -15 -51
-54 -87 -64 -117 -32 -43 46 -110 154 -109 177 2 34 -4 26 -16 -18z m38 -66
c0 -8 -5 -12 -10 -9 -6 4 -8 11 -5 16 9 14 15 11 15 -7z m200 -110 c0 -24 -20
-55 -31 -48 -6 3 -3 11 7 18 12 9 14 15 5 20 -6 4 -9 12 -6 17 10 14 25 10 25
-7z"/>
<path d="M7410 6489 c0 -5 5 -7 10 -4 6 3 10 8 10 11 0 2 -4 4 -10 4 -5 0 -10
-5 -10 -11z"/>
<path d="M7532 6465 c-17 -37 -14 -45 4 -12 9 16 14 31 11 33 -2 2 -9 -7 -15
-21z"/>
<path d="M3050 6460 c-8 -5 -10 -10 -5 -10 6 0 17 5 25 10 8 5 11 10 5 10 -5
0 -17 -5 -25 -10z"/>
<path d="M3162 6450 c-26 -25 -57 -83 -65 -125 -6 -29 -5 -28 9 5 9 19 32 57
51 83 38 51 40 70 5 37z"/>
<path d="M2771 6410 c14 -31 19 -36 19 -24 0 6 -7 19 -16 30 -14 18 -14 18 -3
-6z"/>
<path d="M2920 6411 c0 -6 4 -13 10 -16 6 -3 7 1 4 9 -7 18 -14 21 -14 7z"/>
<path d="M2890 6404 c-1 -35 66 -116 140 -167 19 -13 22 -19 12 -29 -7 -7 -12
-40 -11 -82 0 -49 3 -65 9 -51 8 18 9 18 9 -5 2 -50 69 -128 86 -99 4 6 4 13
1 16 -3 4 -6 1 -6 -6 0 -20 -38 6 -55 39 -8 16 -15 40 -15 54 0 14 -4 28 -10
31 -5 3 -9 25 -8 48 l1 42 7 -45 c7 -45 7 -45 8 16 2 56 0 63 -24 79 -52 34
-105 89 -124 129 -11 23 -19 36 -20 30z"/>
<path d="M7490 6380 c-6 -11 -8 -20 -6 -20 3 0 10 9 16 20 6 11 8 20 6 20 -3
0 -10 -9 -16 -20z"/>
<path d="M7147 6377 c-11 -29 -9 -43 4 -30 6 6 9 19 7 29 -3 18 -4 18 -11 1z"/>
<path d="M2940 6376 c0 -2 8 -10 18 -17 15 -13 16 -12 3 4 -13 16 -21 21 -21
13z"/>
<path d="M2790 6361 c0 -6 4 -13 10 -16 6 -3 7 1 4 9 -7 18 -14 21 -14 7z"/>
<path d="M2980 6341 c0 -6 4 -13 10 -16 6 -3 7 1 4 9 -7 18 -14 21 -14 7z"/>
<path d="M6931 6342 c0 -7 6 -27 15 -44 15 -29 15 -33 0 -43 -9 -7 -14 -21
-11 -35 7 -34 15 -37 15 -6 0 26 2 26 36 -19 43 -56 63 -109 71 -187 6 -55 5
-58 -16 -58 -12 0 -24 7 -28 16 -3 8 -12 13 -19 10 -7 -3 -16 -1 -19 4 -4 6
-10 10 -16 10 -18 0 -8 -23 25 -56 24 -24 42 -34 63 -33 27 2 27 2 3 6 -30 6
-72 42 -64 55 3 5 14 2 24 -7 31 -28 55 -15 58 32 2 32 7 41 18 36 9 -3 14 1
14 13 0 13 -3 15 -8 7 -12 -20 -29 -1 -36 42 -6 37 -5 38 8 21 9 -10 13 -24 9
-30 -4 -8 -2 -8 6 0 10 9 9 20 -4 50 -26 64 -45 87 -59 75 -9 -8 -13 -7 -13 4
0 8 4 12 9 9 4 -3 8 -1 8 5 0 6 -9 15 -19 21 -11 5 -25 26 -32 45 -7 19 -16
35 -20 35 -4 0 -10 8 -12 18 -3 9 -5 11 -6 4z m123 -197 c3 -8 1 -15 -4 -15
-6 0 -10 7 -10 15 0 8 2 15 4 15 2 0 6 -7 10 -15z"/>
<path d="M3161 6300 c-38 -29 -60 -39 -74 -34 -13 4 -17 3 -12 -6 4 -7 17 -9
31 -6 37 10 29 -12 -8 -23 l-33 -9 36 -1 c25 -1 41 6 56 22 11 13 30 31 42 39
14 10 21 24 19 37 -3 20 -6 19 -57 -19z m42 -1 c-8 -8 -13 -7 -18 2 -5 8 -4
10 3 5 7 -4 12 -2 12 5 0 7 3 9 7 6 4 -4 2 -12 -4 -18z m-38 -29 c-10 -11 -22
-17 -27 -14 -5 3 -1 12 9 20 27 20 39 17 18 -6z"/>
<path d="M3246 6310 c16 -89 20 -104 25 -95 4 6 -2 37 -12 70 -11 33 -16 44
-13 25z"/>
<path d="M7420 6261 c-22 -38 -46 -76 -53 -83 -7 -7 -20 -26 -30 -41 -10 -15
-23 -25 -29 -21 -7 5 -7 8 0 13 7 4 7 12 2 21 -6 10 -12 5 -23 -21 -9 -22 -10
-36 -4 -41 15 -9 -45 -84 -116 -145 -45 -39 -38 -44 10 -7 35 26 157 175 210
254 41 63 85 140 79 140 -3 0 -23 -31 -46 -69z m-110 -162 c0 -5 -4 -9 -10 -9
-5 0 -10 7 -10 16 0 8 5 12 10 9 6 -3 10 -10 10 -16z"/>
<path d="M2780 6305 c1 -15 79 -136 144 -222 72 -95 115 -141 141 -154 11 -6
4 4 -16 21 -44 36 -156 182 -221 288 -27 42 -48 73 -48 67z"/>
<path d="M3019 6291 c13 -12 28 -21 34 -21 12 0 11 0 -28 24 l-30 17 24 -20z"/>
<path d="M2838 6274 c11 -22 41 -50 45 -43 1 2 -11 18 -27 34 -20 20 -25 23
-18 9z"/>
<path d="M6931 6274 c0 -11 3 -14 6 -6 3 7 2 16 -1 19 -3 4 -6 -2 -5 -13z"/>
<path d="M7373 6263 c-9 -16 -26 -39 -37 -53 l-21 -25 22 19 c22 18 67 86 58
86 -3 0 -12 -12 -22 -27z"/>
<path d="M3197 6220 c-28 -32 -44 -91 -31 -111 5 -8 3 -10 -6 -4 -10 6 -11 -1
-6 -31 5 -28 4 -35 -3 -24 -9 12 -11 9 -11 -13 0 -36 26 -87 45 -87 8 0 15 -5
15 -11 0 -5 -5 -7 -12 -3 -7 4 -8 3 -4 -4 5 -8 0 -12 -13 -12 -11 0 -23 -5
-26 -10 -16 -27 88 15 117 47 55 59 57 63 55 103 -1 23 -3 37 -5 31 -2 -6 -7
-9 -12 -6 -5 3 -3 -8 2 -23 9 -24 8 -33 -12 -60 -17 -23 -27 -29 -36 -22 -8 7
-21 5 -43 -7 -28 -16 -33 -16 -41 -3 -22 32 9 165 48 212 15 17 21 29 15 25
-9 -6 -11 -3 -7 7 3 9 11 13 16 10 6 -4 9 -1 6 6 -8 25 -25 21 -51 -10z"/>
<path d="M3301 6240 c0 -8 4 -24 9 -35 l9 -20 0 20 c0 11 -4 27 -9 35 -9 13
-10 13 -9 0z"/>
<path d="M6881 6214 c0 -11 3 -14 6 -6 3 7 2 16 -1 19 -3 4 -6 -2 -5 -13z"/>
<path d="M3325 6140 c3 -25 10 -49 16 -54 11 -12 11 -12 -7 49 l-14 50 5 -45z"/>
<path d="M7177 6159 c-4 -13 -7 -46 -7 -74 1 -46 2 -48 15 -31 16 21 19 78 6
110 -7 18 -8 18 -14 -5z m10 -71 c-2 -13 -4 -5 -4 17 -1 22 1 32 4 23 2 -10 2
-28 0 -40z"/>
<path d="M2920 6163 c1 -11 40 -57 44 -52 3 2 -7 17 -20 32 -13 15 -24 24 -24
20z"/>
<path d="M3281 6114 c0 -11 3 -14 6 -6 3 7 2 16 -1 19 -3 4 -6 -2 -5 -13z"/>
<path d="M6409 6093 c-13 -16 -12 -17 4 -4 9 7 17 15 17 17 0 8 -8 3 -21 -13z"/>
<path d="M6905 6100 c-4 -6 -7 -28 -7 -48 0 -20 -4 -41 -8 -47 -14 -18 -16
-88 -2 -92 9 -4 11 5 6 38 -5 29 -4 40 4 35 6 -3 13 -2 17 4 3 5 2 10 -3 10
-4 0 -5 24 -1 53 7 55 6 66 -6 47z"/>
<path d="M7240 6080 c-6 -11 -8 -20 -6 -20 3 0 10 9 16 20 6 11 8 20 6 20 -3
0 -10 -9 -16 -20z"/>
<path d="M7115 6039 c-10 -43 -1 -46 12 -4 6 19 7 35 3 35 -5 0 -11 -14 -15
-31z"/>
<path d="M3266 6018 c-8 -12 -12 -26 -8 -32 4 -7 8 -3 10 9 2 11 9 26 14 33 6
6 8 12 5 12 -3 0 -13 -10 -21 -22z"/>
<path d="M5235 5990 c3 -5 8 -10 11 -10 2 0 4 5 4 10 0 6 -5 10 -11 10 -5 0
-7 -4 -4 -10z"/>
<path d="M7095 5979 c-4 -6 -5 -13 -2 -16 7 -7 27 6 27 18 0 12 -17 12 -25 -2z"/>
<path d="M5259 5940 c10 -30 11 -33 11 -65 0 -14 4 -25 9 -25 5 0 7 8 4 19 -5
18 -3 18 74 0 48 -12 91 -17 113 -13 31 6 21 9 -75 29 -60 13 -111 27 -113 33
-1 5 -9 18 -17 28 -14 18 -15 17 -6 -6z"/>
<path d="M6831 5944 c0 -11 3 -14 6 -6 3 7 2 16 -1 19 -3 4 -6 -2 -5 -13z"/>
<path d="M3297 5933 c-4 -3 -7 -13 -7 -22 1 -13 3 -13 11 2 11 19 8 33 -4 20z"/>
<path d="M3098 5913 c6 -2 18 -2 25 0 6 3 1 5 -13 5 -14 0 -19 -2 -12 -5z"/>
<path d="M6827 5913 c-3 -5 -7 -30 -11 -58 -4 -34 -3 -43 3 -30 9 19 10 19 10
1 1 -29 8 -16 14 29 5 28 4 34 -3 20 -8 -18 -9 -17 -9 7 -1 14 5 29 12 31 9 4
9 6 0 6 -6 1 -14 -2 -16 -6z"/>
<path d="M4944 5899 c-3 -6 -2 -15 3 -20 5 -5 9 -1 10 11 2 22 -2 25 -13 9z"/>
<path d="M7088 5903 c7 -3 16 -2 19 1 4 3 -2 6 -13 5 -11 0 -14 -3 -6 -6z"/>
<path d="M5500 5849 l-25 -8 25 1 c14 1 33 -2 42 -6 10 -5 30 -3 45 3 26 10
26 11 -9 6 -23 -4 -38 -2 -38 5 0 11 -5 11 -40 -1z"/>
<path d="M3401 5814 c0 -11 3 -14 6 -6 3 7 2 16 -1 19 -3 4 -6 -2 -5 -13z"/>
<path d="M5269 5808 c0 -7 -2 -22 -5 -33 -2 -11 1 -30 8 -42 6 -13 9 -25 7
-27 -2 -2 -38 -6 -79 -8 -41 -1 -78 -7 -82 -13 -5 -6 -11 -5 -17 4 -5 7 -24
14 -42 16 -23 1 -45 13 -66 35 -34 34 -37 32 -27 -8 4 -13 12 -21 20 -18 7 3
18 -2 24 -10 7 -8 26 -14 42 -14 26 0 28 -2 18 -20 -6 -11 -9 -20 -8 -21 11
-4 423 -31 463 -31 37 1 46 -2 35 -10 -12 -8 -12 -9 3 -4 10 3 26 6 35 7 29 1
-109 39 -208 58 -105 19 -95 8 -99 109 0 23 -5 42 -11 42 -5 0 -10 -6 -11 -12z
m-69 -143 c0 -11 -12 -15 -45 -15 -35 0 -43 3 -39 15 4 10 20 15 45 15 28 0
39 -4 39 -15z m84 -6 c-7 -11 -74 -12 -74 -1 0 15 9 18 45 14 19 -2 32 -8 29
-13z"/>
<path d="M5215 5780 c-10 -11 -16 -20 -13 -20 3 0 15 9 28 20 13 11 19 20 13
20 -5 0 -18 -9 -28 -20z"/>
<path d="M6802 5780 c0 -14 2 -19 5 -12 2 6 2 18 0 25 -3 6 -5 1 -5 -13z"/>
<path d="M6822 5780 c0 -14 2 -19 5 -12 2 6 2 18 0 25 -3 6 -5 1 -5 -13z"/>
<path d="M3411 5764 c0 -11 3 -14 6 -6 3 7 2 16 -1 19 -3 4 -6 -2 -5 -13z"/>
<path d="M6811 5735 c-1 -11 -4 -31 -6 -45 l-6 -25 11 25 c6 13 9 33 7 45 -4
19 -4 19 -6 0z"/>
<path d="M3422 5720 c0 -14 2 -19 5 -12 2 6 2 18 0 25 -3 6 -5 1 -5 -13z"/>
<path d="M3431 5674 c0 -11 3 -14 6 -6 3 7 2 16 -1 19 -3 4 -6 -2 -5 -13z"/>
<path d="M4815 5674 c-61 -13 -28 -12 64 2 38 6 43 5 38 -9 -4 -12 4 -17 44
-22 27 -4 52 -11 55 -17 4 -6 10 -5 15 3 16 25 10 29 -46 29 -51 0 -72 12 -42
23 26 11 -71 4 -128 -9z"/>
<path d="M6791 5644 c0 -11 3 -14 6 -6 3 7 2 16 -1 19 -3 4 -6 -2 -5 -13z"/>
<path d="M4823 5643 c15 -2 37 -2 50 0 12 2 0 4 -28 4 -27 0 -38 -2 -22 -4z"/>
<path d="M4708 5623 c7 -3 16 -2 19 1 4 3 -2 6 -13 5 -11 0 -14 -3 -6 -6z"/>
<path d="M2890 5250 l0 -370 310 0 310 0 0 55 0 55 -254 0 -254 0 -3 23 c-2
12 -4 154 -4 315 l0 292 -52 0 -53 0 0 -370z m143 -353 l122 -3 -127 -2 -128
-2 2 363 3 362 2 -357 3 -357 123 -4z m-80 706 c-7 -2 -19 -2 -25 0 -7 3 -2 5
12 5 14 0 19 -2 13 -5z m24 -145 c-2 -13 -4 -5 -4 17 -1 22 1 32 4 23 2 -10 2
-28 0 -40z m0 -410 c-3 -8 -6 -5 -6 6 -1 11 2 17 5 13 3 -3 4 -12 1 -19z m-1
-43 c-3 -8 -1 -16 5 -19 5 -2 4 -3 -2 -2 -7 1 -13 12 -14 24 -1 11 2 19 7 16
5 -4 7 -12 4 -19z m524 -35 c0 -5 -8 -10 -17 -10 -15 0 -16 2 -3 10 19 12 20
12 20 0z m-567 -40 c-3 -11 -7 -20 -9 -20 -2 0 -4 9 -4 20 0 11 4 20 9 20 5 0
7 -9 4 -20z m324 -37 c-20 -2 -52 -2 -70 0 -17 2 0 4 38 4 39 0 53 -2 32 -4z
m70 1 c-3 -3 -12 -4 -19 -1 -8 3 -5 6 6 6 11 1 17 -2 13 -5z"/>
<path d="M4988 5613 c7 -3 16 -2 19 1 4 3 -2 6 -13 5 -11 0 -14 -3 -6 -6z"/>
<path d="M7250 5305 l0 -315 -270 0 -270 0 0 -55 0 -55 320 0 320 0 0 370 0
370 -50 0 -50 0 0 -315z m88 258 l-1 -48 -4 43 c-4 39 -6 42 -33 42 -27 0 -29
-3 -33 -47 l-3 -48 -2 53 -2 52 40 0 40 0 -2 -47z m-71 -105 c-3 -8 -6 -5 -6
6 -1 11 2 17 5 13 3 -3 4 -12 1 -19z m70 -50 c-3 -7 -5 -2 -5 12 0 14 2 19 5
13 2 -7 2 -19 0 -25z m-70 -45 c-3 -10 -5 -2 -5 17 0 19 2 27 5 18 2 -10 2
-26 0 -35z m70 -105 c-2 -24 -4 -7 -4 37 0 44 2 63 4 43 2 -21 2 -57 0 -80z
m-70 0 c-2 -13 -4 -5 -4 17 -1 22 1 32 4 23 2 -10 2 -28 0 -40z m0 -125 c-2
-16 -4 -5 -4 22 0 28 2 40 4 28 2 -13 2 -35 0 -50z m0 -80 c-3 -10 -5 -2 -5
17 0 19 2 27 5 18 2 -10 2 -26 0 -35z m-74 -160 c-83 -2 -223 -2 -310 0 -87 1
-18 3 152 3 171 0 242 -2 158 -3z"/>
<path d="M6780 5593 c0 -10 -7 -31 -15 -47 -19 -35 -19 -41 -1 -23 15 14 33
87 22 87 -3 0 -6 -8 -6 -17z"/>
<path d="M6638 5583 c7 -3 16 -2 19 1 4 3 -2 6 -13 5 -11 0 -14 -3 -6 -6z"/>
<path d="M4396 5525 c-11 -8 -15 -15 -9 -15 6 0 16 7 23 15 16 19 11 19 -14 0z"/>
<path d="M4430 5505 c-7 -9 -21 -13 -31 -10 -23 8 -26 -13 -4 -21 9 -4 26 5
42 20 14 14 21 26 16 26 -6 0 -16 -7 -23 -15z"/>
<path d="M6636 5511 c-3 -5 0 -11 7 -14 8 -3 14 1 14 9 0 16 -13 19 -21 5z"/>
<path d="M6616 5486 c3 -8 -7 -18 -26 -26 -17 -7 -33 -17 -36 -22 -3 -5 12 0
34 11 47 24 58 37 37 44 -9 4 -12 1 -9 -7z"/>
<path d="M6574 5474 c-18 -14 -18 -15 4 -4 12 6 22 13 22 15 0 8 -5 6 -26 -11z"/>
<path d="M6524 5444 c-18 -14 -18 -15 4 -4 12 6 22 13 22 15 0 8 -5 6 -26 -11z"/>
<path d="M3450 5414 c0 -10 5 -26 10 -34 8 -11 9 -7 4 15 -8 37 -14 45 -14 19z"/>
<path d="M6440 5399 c-54 -29 -98 -63 -52 -39 13 6 26 9 29 7 3 -3 -13 -15
-35 -26 -23 -11 -43 -25 -47 -31 -3 -5 26 9 65 31 38 22 70 43 70 45 0 3 -9 0
-21 -6 -11 -7 -23 -9 -26 -7 -3 3 13 15 36 27 23 11 41 23 41 25 0 7 -1 7 -60
-26z"/>
<path d="M6514 5414 c-18 -14 -18 -15 4 -4 12 6 22 13 22 15 0 8 -5 6 -26 -11z"/>
<path d="M6730 5362 c-18 -31 -56 -92 -84 -135 -43 -66 -52 -76 -62 -63 -10
14 -13 12 -24 -16 -21 -57 -33 -77 -41 -73 -4 3 -38 -30 -75 -72 -37 -43 -97
-111 -133 -151 l-66 -72 -17 22 -18 23 0 -24 c0 -17 -4 -22 -16 -17 -14 5 -15
4 -5 -8 7 -8 10 -20 7 -25 -4 -5 -50 -39 -104 -75 -116 -79 -178 -126 -175
-134 1 -4 5 -16 9 -26 6 -16 4 -18 -10 -13 -9 4 -15 3 -11 -2 3 -5 -7 -19 -22
-31 -39 -30 -10 -14 72 41 39 25 75 48 82 50 37 13 223 176 304 266 52 59 127
143 168 187 40 45 82 99 93 121 12 22 37 65 58 95 48 72 112 182 108 186 -2 2
-19 -23 -38 -54z m-793 -834 c-3 -8 -6 -5 -6 6 -1 11 2 17 5 13 3 -3 4 -12 1
-19z"/>
<path d="M4608 5393 c7 -3 16 -2 19 1 4 3 -2 6 -13 5 -11 0 -14 -3 -6 -6z"/>
<path d="M5833 5379 c3 -9 1 -21 -5 -27 -8 -8 -5 -9 11 -5 18 5 19 8 9 22 -20
26 -22 27 -15 10z"/>
<path d="M4433 5368 c3 -9 1 -18 -6 -21 -6 -2 11 -12 38 -21 133 -48 291 -110
300 -117 5 -5 8 -28 6 -51 -2 -36 -1 -39 12 -27 8 8 18 25 22 38 5 16 12 20
23 16 82 -34 198 -74 229 -80 21 -4 44 -11 51 -17 8 -7 12 -7 12 1 0 6 13 11
28 11 32 0 108 25 193 63 l57 25 21 -22 22 -21 -3 24 c-3 23 6 29 102 68 58
23 123 47 145 53 93 25 142 60 84 60 -11 0 -17 -4 -14 -10 4 -6 -6 -10 -23
-10 -16 0 -50 -9 -76 -21 -25 -11 -50 -17 -56 -14 -5 3 -17 1 -27 -5 -21 -11
-97 -39 -131 -47 -17 -4 -32 3 -57 27 -39 38 -57 24 -25 -20 16 -23 18 -31 8
-35 -7 -2 -35 -12 -63 -21 -27 -9 -73 -27 -101 -40 -57 -27 -106 -30 -146 -10
-14 8 -55 21 -91 30 -54 14 -120 39 -136 52 -2 2 4 13 14 24 14 15 15 20 4 21
-8 0 -5 4 6 9 19 7 19 8 2 15 -12 5 -25 -1 -43 -20 -30 -33 -30 -33 -189 33
-108 45 -121 48 -132 34 -9 -11 -13 -12 -13 -3 0 8 -6 11 -16 7 -8 -3 -13 -2
-10 3 3 5 -2 15 -11 22 -15 12 -16 12 -10 -3z"/>
<path d="M5708 5363 c7 -3 16 -2 19 1 4 3 -2 6 -13 5 -11 0 -14 -3 -6 -6z"/>
<path d="M6605 5259 c-4 -6 -5 -12 -2 -15 2 -3 7 2 10 11 7 17 1 20 -8 4z"/>
<path d="M4875 5241 c-6 -11 9 -23 19 -14 9 9 7 23 -3 23 -6 0 -12 -4 -16 -9z"/>
<path d="M4950 5227 c0 -7 11 -13 25 -13 28 -2 25 11 -5 19 -11 3 -20 0 -20
-6z"/>
<path d="M5035 5190 c3 -5 14 -10 23 -10 15 0 15 2 2 10 -20 13 -33 13 -25 0z"/>
<path d="M4744 5165 c-4 -8 -9 -13 -13 -10 -4 2 -8 -2 -8 -10 0 -10 5 -11 19
-4 10 5 18 16 18 24 0 19 -9 19 -16 0z"/>
<path d="M3712 5057 c10 -14 -2 -38 -16 -30 -28 17 252 -292 295 -326 19 -15
28 -17 32 -8 8 23 -8 44 -129 173 -168 178 -190 201 -182 191z"/>
<path d="M5451 5054 c0 -11 3 -14 6 -6 3 7 2 16 -1 19 -3 4 -6 -2 -5 -13z"/>
<path d="M5848 4948 c5 -5 16 -8 23 -6 8 3 3 7 -10 11 -17 4 -21 3 -13 -5z"/>
<path d="M5828 4883 c7 -3 16 -2 19 1 4 3 -2 6 -13 5 -11 0 -14 -3 -6 -6z"/>
<path d="M3921 4310 c-1 -212 -2 -401 -2 -420 1 -27 -1 -31 -8 -20 -9 12 -11
11 -11 -8 0 -13 4 -20 10 -17 6 3 10 -3 10 -14 0 -22 -16 -29 -90 -34 -38 -3
-35 -4 16 -5 42 -1 65 2 73 12 8 9 10 136 8 452 l-2 439 -4 -385z"/>
<path d="M6280 4258 c0 -339 3 -438 13 -452 12 -16 47 -17 527 -17 283 0 518
1 523 1 4 0 51 45 105 100 l98 100 251 0 251 0 20 -27 c27 -37 95 -39 123 -4
43 53 7 131 -61 131 -26 0 -45 -7 -57 -19 -17 -18 -37 -20 -291 -23 l-273 -3
-96 -102 -95 -103 -484 0 -484 0 -2 423 -3 422 -32 3 -33 3 0 -433z"/>
<path d="M4045 4660 c10 -11 20 -20 23 -20 3 0 -3 9 -13 20 -10 11 -20 20 -23
20 -3 0 3 -9 13 -20z"/>
<path d="M4190 4612 c0 -4 10 -13 23 -21 22 -14 22 -14 3 8 -20 22 -26 25 -26
13z"/>
<path d="M5183 4563 c31 -2 83 -2 115 0 31 2 5 3 -58 3 -63 0 -89 -1 -57 -3z"/>
<path d="M4204 4541 c7 -11 46 -35 46 -28 0 3 -12 12 -26 22 -15 9 -23 12 -20
6z"/>
<path d="M4120 4132 l0 -378 -188 -187 c-104 -103 -185 -187 -181 -187 4 0 24
16 44 35 29 26 36 30 32 15 -3 -11 -1 -18 4 -14 5 3 9 1 9 -4 0 -5 -17 -23
-37 -38 -35 -27 -47 -29 -143 -35 l-105 -5 110 -2 109 -2 203 203 203 203 0
387 0 387 -30 0 -30 0 0 -378z m50 164 c0 -126 -4 -207 -10 -211 -5 -3 -10
-14 -9 -23 0 -14 2 -13 9 3 5 12 9 -44 9 -146 1 -154 -1 -168 -20 -193 -11
-14 -26 -23 -32 -19 -7 3 -9 3 -5 -2 11 -11 -83 -117 -98 -111 -7 3 -16 0 -20
-6 -5 -7 -2 -8 7 -3 8 4 -8 -15 -35 -43 -27 -28 -55 -49 -65 -47 -9 2 -18 4
-20 4 -3 1 8 14 24 31 15 16 33 27 38 23 6 -3 7 -2 4 4 -3 5 37 52 89 104 52
52 95 103 95 114 1 17 2 17 6 3 9 -36 23 -16 23 33 0 28 -4 48 -9 44 -5 -3
-13 -1 -16 5 -4 6 -1 9 7 8 9 -2 13 11 14 47 1 28 0 39 -3 25 -16 -82 -22 -10
-23 259 -1 296 0 301 20 301 19 0 20 -6 20 -204z m-27 -476 c-3 -11 -7 -20 -9
-20 -2 0 -4 9 -4 20 0 11 4 20 9 20 5 0 7 -9 4 -20z m-273 -345 c-15 -18 0
-20 20 -2 8 6 2 -3 -14 -20 -30 -33 -50 -47 -26 -18 10 12 9 15 -6 15 -16 0
-16 3 6 20 30 24 37 25 20 5z"/>
<path d="M4125 3739 c-10 -15 3 -25 16 -12 7 7 7 13 1 17 -6 3 -14 1 -17 -5z"/>
<path d="M4076 3679 c2 -4 -4 -12 -13 -18 -10 -6 -13 -11 -7 -11 6 0 18 8 27
18 14 15 15 19 2 19 -8 0 -12 -4 -9 -8z"/>
<path d="M3913 3513 c0 -9 4 -10 14 -2 7 6 13 12 13 14 0 1 -6 2 -13 2 -8 0
-14 -6 -14 -14z"/>
<path d="M6033 4503 c-10 -4 -13 -89 -13 -384 l0 -379 73 -67 c39 -37 131
-128 204 -202 l132 -136 434 -3 434 -3 139 -140 c76 -78 148 -145 159 -149 11
-4 62 -5 113 -3 87 5 92 4 92 -15 0 -28 46 -62 85 -62 69 0 102 94 50 145 -28
29 -79 33 -109 10 -14 -11 -47 -15 -119 -15 l-99 0 -125 131 c-70 71 -139 137
-154 145 -23 11 -102 14 -446 14 l-418 0 -188 188 -187 187 0 345 c0 190 -3
355 -6 367 -6 22 -29 33 -51 26z m1912 -1454 c4 -18 3 -35 -4 -42 -7 -7 -9 -4
-6 11 2 12 0 22 -6 22 -5 0 -9 12 -9 26 0 33 17 22 25 -17z"/>
<path d="M4270 4496 c0 -2 8 -10 18 -17 15 -13 16 -12 3 4 -13 16 -21 21 -21
13z"/>
<path d="M5026 4492 c-2 -4 11 -6 30 -4 19 2 34 6 34 8 0 8 -59 4 -64 -4z"/>
<path d="M5158 4493 c12 -2 30 -2 40 0 9 3 -1 5 -23 4 -22 0 -30 -2 -17 -4z"/>
<path d="M4320 4457 c3 -3 22 -17 43 -31 41 -28 65 -35 32 -10 -21 16 -84 51
-75 41z"/>
<path d="M3883 4400 c0 -30 2 -43 4 -27 2 15 2 39 0 55 -2 15 -4 2 -4 -28z"/>
<path d="M5794 4414 c-18 -14 -18 -15 4 -4 12 6 22 13 22 15 0 8 -5 6 -26 -11z"/>
<path d="M4420 4392 c0 -23 290 -134 343 -131 20 1 20 2 2 6 -79 18 -226 70
-280 98 -36 18 -65 30 -65 27z"/>
<path d="M5710 4364 c-30 -19 -51 -34 -47 -34 12 0 96 50 103 61 7 12 6 12
-56 -27z"/>
<path d="M4537 4359 c7 -7 15 -10 18 -7 3 3 -2 9 -12 12 -14 6 -15 5 -6 -5z"/>
<path d="M4578 4343 c7 -3 16 -2 19 1 4 3 -2 6 -13 5 -11 0 -14 -3 -6 -6z"/>
<path d="M3880 4095 l-5 -250 -350 -5 -350 -5 345 -3 c190 -1 351 2 358 6 9 7
12 65 10 258 l-3 249 -5 -250z"/>
<path d="M4390 3999 l0 -342 -148 -151 c-82 -83 -211 -216 -287 -296 -76 -80
-145 -148 -154 -152 -14 -6 -14 -7 -1 -7 9 -1 33 17 55 39 30 30 42 37 52 29
9 -8 13 -8 13 0 0 6 7 11 15 11 7 0 18 8 24 17 5 10 13 14 18 10 10 -11 -46
-57 -68 -57 -17 0 -33 -26 -24 -40 6 -10 -25 -37 -50 -43 -16 -4 -15 -5 6 -6
15 -1 34 9 47 22 24 25 29 43 10 31 -7 -4 -8 -3 -4 5 4 6 11 9 15 6 5 -2 66
57 137 133 71 75 191 200 267 278 l137 142 0 340 c0 187 -3 347 -6 356 -3 9
-17 16 -30 16 l-24 0 0 -341z m48 -18 c1 -190 0 -342 -4 -338 -3 3 -6 22 -6
42 0 37 -12 37 -21 0 -3 -11 -5 130 -6 313 -1 313 0 333 17 330 16 -3 17 -29
20 -347z m-47 -344 c-6 -8 -8 -17 -4 -20 9 -10 25 -9 19 1 -3 5 2 9 10 9 10 0
3 -12 -18 -34 -22 -23 -38 -31 -50 -27 -16 5 -18 2 -13 -18 5 -19 -11 -40 -98
-126 -73 -73 -110 -103 -123 -100 -11 2 -27 -6 -36 -17 -10 -11 -17 -15 -18
-8 0 6 12 22 28 35 15 13 32 33 39 44 6 10 16 18 22 17 6 -2 10 1 8 6 -1 5 31
41 71 80 40 39 68 62 62 51 -8 -16 -8 -20 4 -20 20 0 38 34 25 47 -6 6 -4 14
6 23 14 11 18 11 25 1 5 -8 10 -9 14 -3 3 6 0 12 -6 15 -9 3 -5 12 11 31 25
27 42 37 22 13z m-261 -331 c0 -2 -6 -9 -14 -15 -11 -9 -16 -9 -22 0 -4 7 -3
9 4 5 6 -3 13 -2 17 4 6 10 15 14 15 6z m-84 -41 c-11 -8 -24 -15 -29 -15 -4
0 -5 -4 -2 -10 3 -5 1 -10 -4 -10 -18 0 -12 18 11 34 28 20 50 20 24 1z m6
-32 c-16 -21 -40 -47 -53 -58 -13 -11 -18 -13 -11 -4 6 9 10 19 7 22 -3 4 -2
5 2 2 7 -6 73 65 73 79 0 5 3 7 6 3 4 -3 -7 -23 -24 -44z m-69 -25 c-4 -7 -8
-17 -8 -23 0 -5 -9 -9 -19 -7 -12 2 -16 -1 -10 -9 4 -8 3 -10 -4 -5 -7 4 -12
1 -12 -7 0 -8 -7 -17 -15 -21 -28 -10 -15 12 28 48 46 39 52 43 40 24z"/>
<path d="M4410 3749 c0 -5 5 -7 10 -4 6 3 10 8 10 11 0 2 -4 4 -10 4 -5 0 -10
-5 -10 -11z"/>
<path d="M4370 3611 c0 -5 5 -13 10 -16 6 -3 10 -2 10 4 0 5 -4 13 -10 16 -5
3 -10 2 -10 -4z"/>
<path d="M4266 3485 c-3 -8 -2 -15 3 -15 5 0 14 7 21 15 10 12 10 15 -3 15 -8
0 -17 -7 -21 -15z"/>
<path d="M4220 3465 c-6 -8 -9 -19 -6 -24 4 -5 -2 -14 -11 -20 -23 -13 -8 -14
16 -1 11 5 19 20 19 35 0 29 -2 30 -18 10z"/>
<path d="M4170 3379 c0 -5 5 -7 10 -4 6 3 10 8 10 11 0 2 -4 4 -10 4 -5 0 -10
-5 -10 -11z"/>
<path d="M4126 3351 c-4 -7 -5 -15 -2 -18 9 -9 19 4 14 18 -4 11 -6 11 -12 0z"/>
<path d="M5787 4294 c-10 -10 -9 -92 2 -96 4 -1 11 -20 15 -41 5 -27 4 -37 -3
-32 -6 3 -11 17 -11 31 0 13 -4 24 -8 24 -5 0 -8 -128 -7 -285 1 -258 3 -287
19 -303 16 -16 16 -15 -1 15 -10 17 -15 35 -11 38 20 20 168 -114 168 -152 0
-12 -3 -13 -13 -4 -8 6 -16 9 -19 6 -3 -3 -27 14 -54 37 -65 57 -32 17 96
-117 58 -60 166 -173 239 -250 74 -77 144 -145 155 -152 16 -9 121 -12 401
-13 l380 0 137 -133 138 -133 -6 -49 c-5 -44 -3 -53 19 -77 15 -16 37 -28 51
-28 33 0 73 19 81 38 5 13 2 12 -14 -2 -25 -23 -54 -17 -56 12 -1 18 3 22 27
22 18 0 28 5 28 15 0 21 18 19 23 -2 2 -10 3 -3 1 16 -4 41 -34 75 -68 76 -17
1 -68 46 -175 154 l-150 153 -389 -1 -389 -1 -53 57 c-30 32 -131 138 -226
235 -94 97 -197 206 -228 241 l-56 64 -2 319 c-3 278 -5 319 -18 322 -9 1 -19
0 -23 -4z"/>
<path d="M4798 4283 c6 -2 18 -2 25 0 6 3 1 5 -13 5 -14 0 -19 -2 -12 -5z"/>
<path d="M5457 4284 c-3 -3 -36 -14 -74 -24 -37 -10 -59 -19 -47 -19 11 -1 56
10 100 23 44 14 68 25 53 25 -14 1 -28 -2 -32 -5z"/>
<path d="M4895 4260 c11 -5 29 -8 40 -8 16 0 15 2 -5 8 -34 11 -60 11 -35 0z"/>
<path d="M4805 4251 c11 -5 38 -11 60 -14 l40 -6 -40 14 c-22 7 -49 14 -60 14
l-20 0 20 -8z"/>
<path d="M4978 4253 c12 -2 32 -2 45 0 12 2 2 4 -23 4 -25 0 -35 -2 -22 -4z"/>
<path d="M5203 4253 c9 -2 23 -2 30 0 6 3 -1 5 -18 5 -16 0 -22 -2 -12 -5z"/>
<path d="M5492 3596 c3 -637 4 -665 22 -685 23 -26 91 -29 124 -5 17 12 22 25
22 61 0 42 -4 49 -55 96 l-55 50 0 573 0 574 -30 0 -31 0 3 -664z"/>
<path d="M4675 4239 c-4 -6 -4 -13 -1 -16 3 -4 6 -1 6 6 0 7 5 9 10 6 6 -3 10
-1 10 4 0 14 -17 14 -25 0z"/>
<path d="M4713 4200 c0 -25 2 -35 4 -22 2 12 2 32 0 45 -2 12 -4 2 -4 -23z"/>
<path d="M5085 4230 l-180 -6 180 -1 c99 0 191 3 205 7 l25 8 -25 -1 c-14 -1
-106 -4 -205 -7z"/>
<path d="M5222 4138 l2 -63 3 58 c4 55 14 70 29 45 5 -7 3 -8 -6 -3 -10 6 -11
4 -4 -11 5 -11 11 -326 14 -719 l5 -700 3 728 2 727 -25 0 c-24 0 -25 -2 -23
-62z"/>
<path d="M4978 4183 c7 -3 16 -2 19 1 4 3 -2 6 -13 5 -11 0 -14 -3 -6 -6z"/>
<path d="M4991 4144 c0 -11 3 -14 6 -6 3 7 2 16 -1 19 -3 4 -6 -2 -5 -13z"/>
<path d="M4992 4080 c0 -19 2 -27 5 -17 2 9 2 25 0 35 -3 9 -5 1 -5 -18z"/>
<path d="M2052 4074 c-12 -8 -22 -19 -22 -25 0 -5 9 0 20 11 26 26 60 25 94
-1 14 -11 42 -21 61 -22 19 -1 35 -7 35 -14 0 -6 10 -14 23 -16 12 -2 -3 -4
-33 -4 -42 -1 -48 1 -25 6 l30 7 -38 5 c-24 3 -36 1 -34 -5 8 -20 -23 -66 -48
-72 -34 -8 -72 18 -84 59 -7 24 -9 27 -10 10 -1 -13 12 -37 27 -54 25 -28 33
-31 64 -25 23 4 39 15 48 31 l13 25 262 0 261 0 100 -100 c59 -59 108 -100
120 -100 14 1 11 4 -11 14 -16 8 -69 55 -117 105 l-87 91 -168 2 c-116 2 -137
3 -68 5 68 3 95 7 85 13 -11 7 -8 10 16 10 16 0 36 -6 43 -12 8 -8 11 -8 8 -2
-9 15 25 24 71 18 30 -4 54 -22 138 -104 l101 -100 74 2 74 1 -77 6 -77 6
-104 103 -104 102 -272 0 c-258 0 -273 1 -293 20 -26 24 -65 26 -96 4z m277
-54 c-8 -6 -5 -10 12 -13 16 -3 10 -5 -16 -5 -29 -1 -36 1 -25 8 13 9 13 10 0
11 -10 0 -8 3 5 8 23 10 43 2 24 -9z m171 4 c0 -2 -16 -4 -35 -4 -19 0 -35 4
-35 8 0 4 16 6 35 4 19 -2 35 -6 35 -8z m-83 0 c-3 -3 -12 -4 -19 -1 -8 3 -5
6 6 6 11 1 17 -2 13 -5z"/>
<path d="M4994 3765 c0 -154 2 -216 3 -137 2 79 2 205 0 280 -1 75 -3 11 -3
-143z"/>
<path d="M3078 3793 c12 -2 30 -2 40 0 9 3 -1 5 -23 4 -22 0 -30 -2 -17 -4z"/>
<path d="M3193 3793 c15 -2 37 -2 50 0 12 2 0 4 -28 4 -27 0 -38 -2 -22 -4z"/>
<path d="M3328 3793 c12 -2 32 -2 45 0 12 2 2 4 -23 4 -25 0 -35 -2 -22 -4z"/>
<path d="M4994 3200 c0 -157 2 -221 3 -142 2 78 2 206 0 285 -1 78 -3 14 -3
-143z"/>
<path d="M4588 3446 c-7 -8 -31 -36 -53 -62 -22 -27 -90 -100 -152 -163 l-113
-114 0 -378 c0 -368 -1 -379 -20 -389 -11 -6 -20 -16 -20 -22 0 -6 7 -4 18 5
9 8 30 21 46 27 25 9 34 8 58 -10 15 -11 28 -16 28 -11 0 5 -11 16 -25 25
l-25 16 0 352 0 352 128 131 c123 126 192 201 192 208 0 7 -37 47 -43 47 -3 0
-12 -6 -19 -14z m21 -60 c-13 -20 -25 -31 -27 -26 -2 6 -13 10 -23 10 -18 0
-16 5 12 40 29 36 35 39 48 26 13 -13 11 -19 -10 -50z m-66 -43 c-3 -7 -9 -10
-14 -7 -14 8 -11 21 5 21 8 0 12 -6 9 -14z m2 -33 c-19 -20 -37 -30 -52 -28
-12 2 -22 -1 -22 -7 0 -5 7 -9 15 -9 21 2 17 -9 -11 -36 -14 -13 -25 -18 -25
-12 0 7 4 12 9 12 5 0 8 8 6 18 -2 9 -4 19 -4 22 -1 2 -8 -6 -17 -18 -8 -12
-13 -26 -10 -31 4 -5 3 -17 0 -26 -6 -16 -8 -16 -16 -1 -11 20 -25 21 -25 1 0
-8 4 -12 9 -9 4 3 8 -1 8 -9 0 -8 -20 -33 -45 -56 l-45 -41 0 -280 c-1 -159
-5 -280 -10 -280 -5 0 -7 69 -5 162 4 157 -3 220 -16 148 -4 -19 -7 35 -8 121
-1 152 -1 156 23 178 14 13 36 24 50 25 29 1 35 13 10 18 -10 2 11 29 67 83
53 52 79 72 75 58 -10 -30 7 -29 30 2 10 14 23 25 28 25 5 0 -3 -14 -19 -30z
m-258 -702 c-2 -29 -3 -6 -3 52 0 58 1 81 3 53 2 -29 2 -77 0 -105z m14 -138
c6 0 7 9 4 20 -4 11 -2 20 4 20 6 0 11 -20 11 -46 0 -29 -4 -43 -11 -39 -6 4
-8 13 -5 21 3 8 1 14 -4 14 -5 0 -11 -15 -13 -32 -2 -18 -4 -4 -4 32 0 36 2
53 4 38 2 -16 9 -28 14 -28z m19 -91 c0 -5 -4 -9 -10 -9 -5 0 -10 7 -10 16 0
8 5 12 10 9 6 -3 10 -10 10 -16z"/>
<path d="M4325 3129 c4 -6 -2 -13 -14 -16 -12 -3 -21 -12 -21 -19 0 -11 8 -9
30 7 27 21 32 39 9 39 -6 0 -7 -5 -4 -11z"/>
<path d="M4293 2914 c-1 -25 3 -42 8 -39 11 7 12 72 1 79 -4 2 -9 -15 -9 -40z"/>
<path d="M5577 3452 c-3 -4 -3 -24 -2 -45 2 -33 14 -50 92 -130 49 -51 115
-120 146 -154 l57 -63 0 -348 0 -348 -30 -26 c-38 -33 -40 -75 -4 -117 39 -47
102 -42 129 10 22 41 18 74 -10 105 l-25 27 0 370 0 371 -97 100 c-192 196
-252 255 -256 248z"/>
<path d="M2748 3232 l-155 -158 -74 0 c-63 1 -78 4 -99 24 -75 69 -173 -31
-109 -112 17 -21 29 -26 64 -26 36 0 48 5 61 25 15 22 23 25 80 25 79 0 121
16 158 61 15 19 76 84 135 144 l106 110 215 6 215 5 -222 0 -221 -1 -22 -28
c-22 -28 -32 -29 -36 -3 -3 22 45 64 55 48 6 -9 14 -10 32 -2 22 10 23 10 2 6
-13 -2 -26 0 -29 5 -3 5 7 9 23 9 22 0 25 2 13 10 -8 5 -20 10 -26 10 -6 0
-80 -71 -166 -158z m87 69 c-3 -5 0 -13 6 -16 15 -10 -59 -85 -77 -78 -8 3
-11 -2 -7 -15 2 -11 -1 -23 -8 -27 -8 -6 -10 -4 -4 5 6 10 4 12 -8 7 -27 -10
-20 6 17 42 25 24 35 29 40 19 3 -7 4 -3 2 10 -3 15 1 22 12 22 8 0 12 3 9 7
-4 3 -2 12 4 20 13 15 23 18 14 4z m-111 -162 c-3 -5 -10 -7 -15 -3 -5 3 -7
10 -3 15 3 5 10 7 15 3 5 -3 7 -10 3 -15z m-43 -3 c-7 -9 -8 -17 -2 -20 5 -3
12 0 14 6 3 7 6 8 6 3 1 -6 -20 -30 -46 -55 -27 -24 -42 -38 -35 -30 6 8 12
21 12 29 0 11 -4 11 -19 -3 -11 -10 -29 -16 -43 -13 -22 4 -22 4 2 6 16 0 43
18 70 46 42 43 65 61 41 31z m-283 -43 c-2 -10 -8 -18 -13 -18 -6 -1 -21 -7
-35 -14 -23 -13 -24 -13 -11 2 9 11 10 17 2 17 -11 0 -13 -6 -13 -35 0 -34 3
-44 18 -59 18 -19 11 -21 -17 -5 -12 6 -18 17 -15 25 3 9 1 12 -4 9 -16 -10
-12 48 6 73 20 29 87 32 82 5z"/>
<path d="M2653 3093 c0 -9 4 -10 14 -2 7 6 13 12 13 14 0 1 -6 2 -13 2 -8 0
-14 -6 -14 -14z"/>
<path d="M2966 3378 c-6 -4 48 -7 119 -6 133 1 124 6 -24 10 -45 2 -88 0 -95
-4z"/>
<path d="M3240 3378 c0 -10 277 -11 283 0 3 4 -60 7 -139 8 -79 0 -144 -3
-144 -8z"/>
<path d="M3558 3383 c6 -2 18 -2 25 0 6 3 1 5 -13 5 -14 0 -19 -2 -12 -5z"/>
<path d="M3620 3383 c0 -5 24 -9 53 -10 42 -1 46 0 22 7 -40 10 -75 12 -75 3z"/>
<path d="M3363 3333 c9 -2 25 -2 35 0 9 3 1 5 -18 5 -19 0 -27 -2 -17 -5z"/>
<path d="M3453 3333 c15 -2 37 -2 50 0 12 2 0 4 -28 4 -27 0 -38 -2 -22 -4z"/>
<path d="M4721 3304 c0 -11 3 -14 6 -6 3 7 2 16 -1 19 -3 4 -6 -2 -5 -13z"/>
<path d="M4710 3121 c0 -7 5 -31 11 -51 13 -43 5 -95 -13 -84 -6 4 -8 3 -5 -3
4 -6 0 -14 -9 -17 -24 -9 -36 -7 -28 6 5 8 2 9 -9 5 -10 -3 -17 -2 -17 3 0 6
-7 10 -15 10 -11 0 -15 11 -15 38 0 42 14 62 44 62 10 0 17 3 13 6 -15 15 -59
-8 -71 -38 -25 -58 13 -108 80 -108 37 0 77 45 71 78 -7 36 -36 111 -37 93z"/>
<path d="M2935 2958 c-55 -57 -120 -127 -144 -155 -32 -40 -49 -53 -70 -53
-25 0 -71 -35 -71 -54 0 -4 10 4 23 18 25 27 113 45 103 21 -2 -7 1 -12 7 -11
16 2 252 245 245 251 -3 3 -10 -1 -17 -9 -12 -14 -51 -11 -51 5 0 8 32 29 46
29 3 0 1 -7 -6 -15 -15 -18 1 -20 18 -3 7 7 12 8 12 4 0 -5 7 -2 17 5 12 11
81 15 307 20 l291 5 -297 0 c-269 -1 -323 3 -263 17 15 4 13 5 -10 8 -16 2 87
6 230 9 l260 6 -264 2 -265 2 -101 -102z m102 75 c-4 -3 -2 -12 4 -20 9 -10 8
-13 -3 -13 -22 0 -29 12 -17 27 6 7 14 13 17 13 3 0 2 -3 -1 -7z m-56 -88 c8
5 3 -4 -11 -19 -13 -14 -29 -25 -35 -23 -5 3 -21 0 -35 -5 -19 -7 -22 -11 -10
-18 9 -5 19 -5 27 2 7 6 13 6 13 1 0 -5 -28 -37 -63 -71 -59 -58 -65 -62 -78
-46 -9 12 -9 15 -1 10 7 -4 12 -2 12 4 0 21 41 70 52 64 7 -4 8 -2 4 5 -10 16
60 85 76 75 7 -4 10 -4 6 1 -4 4 -3 14 4 22 8 10 13 11 18 2 5 -7 14 -8 21 -4z"/>
<path d="M2820 2800 c-8 -15 -8 -18 3 -14 8 3 14 11 14 19 0 20 -4 19 -17 -5z"/>
<path d="M3598 3053 c7 -3 16 -2 19 1 4 3 -2 6 -13 5 -11 0 -14 -3 -6 -6z"/>
<path d="M3678 3013 c7 -3 16 -2 19 1 4 3 -2 6 -13 5 -11 0 -14 -3 -6 -6z"/>
<path d="M3974 2928 c-33 -35 -79 -86 -103 -115 -23 -28 -69 -72 -102 -99
l-59 -47 0 -78 c0 -68 -3 -80 -20 -89 -23 -12 -53 -66 -47 -83 2 -7 9 4 16 24
13 41 41 57 89 53 39 -3 59 -17 65 -47 4 -22 4 -22 6 1 0 12 -10 31 -24 44
-21 18 -25 30 -25 77 l0 55 88 85 c139 138 222 228 222 243 0 17 -20 38 -35
38 -7 0 -39 -28 -71 -62z m96 28 c0 -17 -48 -61 -57 -53 -3 4 -1 7 6 7 7 0 9
5 6 10 -12 19 -26 10 -23 -14 3 -27 -56 -101 -72 -91 -6 3 -7 0 -4 -8 5 -13
-10 -22 -69 -41 -18 -6 -15 -26 4 -26 6 0 7 5 3 12 -4 7 -3 8 5 4 6 -4 9 -12
6 -17 -9 -13 -35 -11 -35 2 0 8 -6 7 -16 -2 -15 -12 -15 -14 5 -19 l23 -5 -26
-24 -26 -24 0 29 c0 32 59 101 74 87 4 -5 6 -3 4 3 -1 6 29 48 67 92 53 62 75
80 90 77 11 -3 14 -2 7 1 -6 3 -10 10 -7 14 8 12 35 1 35 -14z m-283 -275 c1
-16 -4 -35 -12 -41 -10 -9 -15 -33 -15 -79 -1 -58 -2 -64 -14 -48 -11 14 -15
15 -19 5 -3 -8 -6 -6 -6 6 -1 10 6 24 15 31 13 9 15 19 9 41 l-9 29 -6 -35
c-7 -33 -7 -32 -9 14 -1 42 4 55 26 78 33 35 38 35 40 -1z"/>
<path d="M3955 2881 c-6 -11 9 -23 19 -14 9 9 7 23 -3 23 -6 0 -12 -4 -16 -9z"/>
<path d="M3925 2841 c-10 -17 12 -21 25 -6 10 12 10 15 -3 15 -9 0 -18 -4 -22
-9z"/>
<path d="M3890 2799 c0 -5 5 -7 10 -4 6 3 10 8 10 11 0 2 -4 4 -10 4 -5 0 -10
-5 -10 -11z"/>
<path d="M3765 2670 c-3 -5 -1 -10 4 -10 6 0 11 5 11 10 0 6 -2 10 -4 10 -3 0
-8 -4 -11 -10z"/>
<path d="M6153 2970 c-30 -24 -29 -28 10 -71 17 -19 70 -77 116 -129 47 -52
101 -105 120 -118 47 -32 51 -38 51 -97 0 -40 -4 -53 -20 -63 -35 -21 -44 -61
-24 -104 19 -43 44 -54 99 -44 70 14 83 83 24 135 -26 23 -29 31 -30 91 0 36
-3 72 -7 81 -4 9 -35 40 -70 69 -34 29 -96 93 -136 144 -102 127 -105 129
-133 106z m397 -559 c0 -33 -11 -51 -31 -51 -16 0 -18 5 -13 28 9 37 13 42 30
42 8 0 14 -9 14 -19z"/>
<path d="M4993 2760 c0 -41 2 -58 4 -37 2 20 2 54 0 75 -2 20 -4 3 -4 -38z"/>
<path d="M5261 2724 c0 -11 3 -14 6 -6 3 7 2 16 -1 19 -3 4 -6 -2 -5 -13z"/>
<path d="M2811 2689 c18 -42 -10 -85 -63 -97 -24 -6 -33 -10 -21 -11 37 -2 71
17 88 48 19 37 19 42 0 67 -14 18 -15 17 -4 -7z"/>
<path d="M4926 2672 l-19 -27 24 22 c12 12 21 24 18 27 -2 2 -13 -8 -23 -22z"/>
<path d="M4979 2643 c-13 -16 -12 -17 4 -4 9 7 17 15 17 17 0 8 -8 3 -21 -13z"/>
<path d="M2667 2609 c12 -12 24 -21 27 -18 2 2 -8 13 -22 23 l-27 19 22 -24z"/>
<path d="M5494 2405 c0 -49 1 -71 3 -48 2 23 2 64 0 90 -2 26 -3 8 -3 -42z"/>
<path d="M5446 2467 c3 -10 9 -15 12 -12 3 3 0 11 -7 18 -10 9 -11 8 -5 -6z"/>
<path d="M3808 2394 c-4 -18 -16 -35 -30 -42 -18 -8 -19 -11 -6 -11 22 -1 51
42 46 66 -3 12 -6 8 -10 -13z"/>
<path d="M3674 2356 c11 -9 29 -16 40 -15 17 1 16 2 -6 9 -14 4 -32 11 -40 15
-7 3 -4 -1 6 -9z"/>
<path d="M4705 2330 c-3 -5 -1 -10 4 -10 6 0 11 5 11 10 0 6 -2 10 -4 10 -3 0
-8 -4 -11 -10z"/>
<path d="M4800 2320 c24 -24 26 -76 4 -110 l-16 -25 21 24 c12 13 21 37 21 55
0 32 -23 76 -41 76 -5 0 0 -9 11 -20z"/>
<path d="M5405 2310 c-26 -28 -15 -31 14 -3 13 13 20 23 14 23 -5 0 -18 -9
-28 -20z"/>
<path d="M5519 2284 c28 -36 26 -68 -5 -93 -15 -12 -22 -21 -15 -21 44 0 68
91 33 123 -28 26 -36 20 -13 -9z"/>
<path d="M4221 2284 c0 -11 3 -14 6 -6 3 7 2 16 -1 19 -3 4 -6 -2 -5 -13z"/>
<path d="M4233 2235 c1 -10 14 -26 29 -34 35 -20 95 -5 116 29 l14 25 -18 -22
c-36 -42 -116 -42 -134 0 -9 19 -10 19 -7 2z"/>
<path d="M5400 2196 c0 -2 8 -10 18 -17 15 -13 16 -12 3 4 -13 16 -21 21 -21
13z"/>
<path d="M5458 2163 c7 -3 16 -2 19 1 4 3 -2 6 -13 5 -11 0 -14 -3 -6 -6z"/>
<path d="M1020 1450 l0 -362 158 4 c134 4 166 8 216 28 149 58 222 207 195
400 -18 121 -77 201 -189 254 -63 30 -71 31 -222 34 l-158 4 0 -362z m251 231
c83 -11 120 -37 150 -105 30 -70 31 -192 2 -257 -32 -72 -100 -109 -199 -109
l-54 0 0 240 c0 222 1 240 18 240 9 -1 47 -5 83 -9z"/>
<path d="M1700 1450 l0 -360 75 0 76 0 -3 235 c-2 129 -1 235 2 235 3 0 16
-19 29 -43 13 -23 80 -128 150 -234 l126 -192 78 -1 77 0 0 360 0 360 -75 0
-75 0 -2 -237 -3 -238 -157 238 -158 237 -70 0 -70 0 0 -360z"/>
<path d="M2440 1450 l0 -360 75 0 75 0 0 235 c0 150 4 235 10 235 6 0 10 -4
10 -9 0 -10 93 -159 210 -333 l85 -127 73 -1 72 0 0 360 0 360 -75 0 -75 0 -1
-237 c0 -188 -3 -234 -12 -219 -7 10 -76 116 -154 235 l-141 216 -76 3 -76 3
0 -361z"/>
<path d="M3360 1450 l0 -360 70 0 70 0 0 145 0 145 150 0 150 0 0 60 0 60
-150 0 -150 0 0 95 0 95 170 0 170 0 0 60 0 60 -240 0 -240 0 0 -360z"/>
<path d="M5630 1449 l0 -362 163 5 c136 5 170 9 210 27 110 48 171 126 191
242 25 148 -9 276 -93 352 -84 76 -160 97 -346 97 l-125 0 0 -361z m310 219
c73 -27 113 -103 114 -213 0 -103 -15 -145 -70 -194 -47 -42 -77 -51 -160 -51
l-54 0 0 241 0 241 72 -7 c40 -4 84 -11 98 -17z"/>
<path d="M6787 1743 c-3 -5 -7 -30 -8 -58 l-4 -50 -40 -5 c-43 -5 -41 0 -36
-92 1 -14 10 -18 40 -18 26 0 41 -5 45 -16 3 -9 6 -91 6 -183 0 -153 2 -171
20 -194 11 -14 33 -30 49 -35 27 -10 136 -10 145 -1 2 2 6 27 7 54 l4 50 -42
0 c-23 0 -44 2 -46 5 -3 3 -8 76 -12 163 l-8 157 51 0 c28 0 53 4 56 8 2 4 2
27 -1 50 l-6 42 -48 0 -49 0 0 65 0 65 -59 0 c-33 0 -62 -3 -64 -7z"/>
<path d="M8105 1728 c-2 -13 -6 -41 -7 -63 -3 -39 -4 -40 -43 -41 l-40 0 -3
-52 -3 -52 45 0 46 0 0 -166 c0 -182 8 -217 58 -250 25 -17 152 -27 165 -14 3
3 7 27 8 55 l3 50 -35 -3 c-21 -2 -40 2 -46 10 -6 7 -14 82 -18 166 l-8 152
52 0 51 0 0 44 c0 52 -10 61 -62 57 l-38 -3 6 60 7 59 -49 1 c-27 1 -57 5 -66
8 -12 4 -19 -2 -23 -18z"/>
<path d="M4025 1634 c-70 -17 -109 -39 -136 -77 -16 -22 -29 -51 -29 -64 0
-21 4 -23 58 -24 31 0 64 -2 73 -4 12 -2 19 6 23 26 6 30 36 49 77 49 33 0 69
-44 69 -84 l0 -36 -43 6 c-137 19 -267 -66 -267 -173 0 -135 146 -210 281
-142 34 17 36 17 47 -2 10 -15 24 -19 75 -19 l62 0 -2 73 c-2 39 -4 133 -6
207 -2 121 -5 139 -27 178 -35 61 -75 83 -162 87 -40 2 -82 2 -93 -1z m135
-357 c0 -48 -3 -54 -29 -70 -37 -22 -99 -22 -123 0 -27 24 -23 69 8 98 22 21
37 25 85 25 l59 0 0 -53z"/>
<path d="M4513 1629 c-26 -6 -60 -26 -88 -52 -53 -49 -75 -110 -75 -215 0 -99
17 -149 69 -203 83 -85 207 -98 318 -34 47 28 91 85 95 125 3 25 2 25 -62 22
-39 -1 -67 -7 -69 -14 -10 -31 -51 -58 -88 -58 -78 1 -123 52 -123 140 0 72
16 127 45 156 47 47 143 22 159 -41 6 -23 10 -25 71 -25 65 0 65 0 65 28 0 15
-13 49 -29 74 -50 79 -180 123 -288 97z"/>
<path d="M5050 1631 c-75 -16 -148 -75 -178 -144 -22 -50 -24 -165 -4 -228 23
-73 90 -141 154 -157 104 -27 206 -7 274 52 43 37 41 45 -18 87 l-28 21 -36
-31 c-28 -25 -44 -31 -80 -31 -56 0 -99 22 -119 60 -31 60 -32 60 155 60 l170
0 0 68 c0 49 -6 80 -24 118 -43 93 -160 148 -266 125z m113 -131 c10 -9 19
-33 20 -51 l2 -34 -88 -1 c-48 -1 -89 2 -92 6 -10 17 19 73 48 90 35 22 82 17
110 -10z"/>
<path d="M6392 1623 c-134 -40 -202 -216 -146 -376 22 -62 58 -103 119 -133
51 -24 63 -26 140 -22 90 6 126 21 178 76 l29 30 -48 32 c-40 28 -49 31 -58
19 -24 -32 -62 -49 -108 -49 -41 0 -54 5 -82 33 -19 17 -37 44 -40 60 l-6 27
170 0 170 0 0 73 c-1 122 -55 200 -162 232 -63 18 -87 18 -156 -2z m121 -105
c33 -17 46 -39 47 -75 l0 -33 -89 0 c-50 0 -92 4 -95 9 -11 18 18 73 48 92 36
22 58 24 89 7z"/>
<path d="M7197 1624 c-70 -22 -131 -87 -153 -159 -38 -134 5 -280 100 -340 42
-25 62 -31 128 -34 72 -3 85 0 141 28 34 17 70 42 79 55 17 23 16 24 -26 55
-39 27 -45 29 -57 15 -39 -47 -137 -59 -184 -22 -23 18 -55 72 -55 93 0 3 76
5 169 5 l170 0 6 43 c10 64 -17 152 -62 203 -51 58 -171 86 -256 58z m138
-117 c18 -15 27 -33 28 -57 l2 -35 -92 -3 c-89 -3 -93 -2 -93 18 0 32 18 59
53 80 42 26 70 25 102 -3z"/>
<path d="M7701 1629 c-101 -31 -161 -117 -169 -243 -8 -132 44 -235 139 -276
65 -27 156 -30 211 -6 51 22 108 74 124 113 24 56 21 60 -48 55 -57 -4 -66 -8
-91 -38 -24 -29 -35 -34 -71 -34 -49 0 -88 25 -111 70 -18 35 -18 131 -1 180
33 91 156 100 192 15 13 -32 16 -33 76 -37 35 -2 64 -3 66 -2 2 1 0 19 -4 39
-9 51 -61 114 -116 143 -52 27 -145 37 -197 21z"/>
<path d="M8540 1631 c-129 -39 -188 -138 -178 -299 10 -160 97 -245 253 -245
111 0 182 45 228 143 16 35 21 65 21 135 0 101 -17 148 -77 207 -53 53 -172
81 -247 59z m134 -132 c98 -77 60 -299 -52 -299 -70 0 -107 38 -119 125 -15
112 29 195 105 195 25 0 49 -8 66 -21z"/>
<path d="M9150 1629 c-14 -6 -35 -20 -47 -31 -22 -21 -25 -20 -27 12 -1 12
-14 15 -64 13 l-62 -1 -3 -266 -3 -266 73 0 73 0 0 190 0 190 33 20 c21 14 46
20 72 18 l40 -3 0 65 0 65 -30 2 c-16 1 -41 -2 -55 -8z"/>
</g>
</svg>
