<svg version="1.1" id="Layer_1" xmlns="http://www.w3.org/2000/svg" xmlns:xlink="http://www.w3.org/1999/xlink" x="0px" y="0px"
	 width="100%" viewBox="0 0 1024 1024" enable-background="new 0 0 1024 1024" xml:space="preserve">
<path fill="#F8F8F9" opacity="1.000000" stroke="none" 
	d="
M1.000000,392.000000 
	C1.000000,261.333344 1.000000,131.166702 1.000000,1.000035 
	C342.333282,1.000023 683.666565,1.000023 1025.000000,1.000012 
	C1025.000000,342.333252 1025.000000,683.666504 1025.000000,1024.999756 
	C683.666809,1024.999878 342.333618,1024.999878 1.000206,1025.000000 
	C1.000000,814.166687 1.000000,603.333313 1.000000,392.000000 
M251.260513,588.683838 
	C234.174622,552.082520 199.824371,532.599548 159.677170,536.739075 
	C108.450394,542.020935 72.347076,588.884888 80.224861,639.872192 
	C85.719864,675.437439 113.302910,705.336609 148.634415,714.026184 
	C184.472733,722.840393 220.276230,709.985046 242.153503,679.958313 
	C253.915024,663.815552 261.006989,645.786560 259.579590,625.467834 
	C258.956055,616.591492 256.580658,607.838318 255.752136,598.940063 
	C286.763123,589.270935 317.774078,579.601868 348.958679,569.878601 
	C356.844971,592.825012 368.435425,613.065613 384.264465,630.762207 
	C400.053864,648.414429 418.833832,662.191467 440.290894,672.260132 
	C438.903381,675.961853 437.802002,679.096741 436.562622,682.176086 
	C424.652069,711.768738 412.718262,741.352051 400.025024,770.898438 
	C391.127167,769.873535 382.232361,767.999023 373.330872,767.966797 
	C328.348572,767.804199 289.343719,802.936768 285.157928,847.790283 
	C279.128235,912.402832 334.694733,957.861816 391.124084,947.116333 
	C431.528595,939.422363 461.642059,907.052124 464.879303,866.249695 
	C467.907074,828.087524 446.263367,791.437927 411.002258,774.167969 
	C424.100586,741.530762 437.198944,708.893555 450.427521,675.931824 
	C491.880096,691.516052 533.043823,691.212708 574.622009,676.609375 
	C588.469360,709.572815 602.210754,742.284119 615.400146,775.441711 
	C610.662170,777.832642 605.557068,779.696777 601.246399,782.700928 
	C575.596863,800.576477 561.339539,824.686890 560.707214,856.538025 
	C559.628418,910.884033 605.614441,953.633545 659.714966,948.178467 
	C706.334717,943.477661 740.398926,906.251465 741.003662,859.344482 
	C741.649353,809.265076 701.107666,767.978638 650.992004,768.154602 
	C642.416992,768.184692 633.848633,770.111511 625.083435,770.410950 
	C611.694824,738.081055 598.306274,705.751099 584.948303,673.495056 
	C629.579834,651.559998 660.569824,617.662720 677.269409,570.611755 
	C693.653442,575.695801 709.678894,580.599670 725.658936,585.647339 
	C740.507996,590.337708 755.308533,595.181580 770.057312,600.771179 
	C769.829529,601.907227 769.651794,603.056030 769.366394,604.177368 
	C765.638916,618.820801 765.251099,633.591125 769.086121,648.170715 
	C786.729675,715.247009 866.703857,739.051208 918.381226,692.732300 
	C955.816162,659.179199 958.098206,599.397461 923.302734,563.812012 
	C878.894287,518.395325 803.779175,530.506775 775.737671,587.562378 
	C775.268982,588.515869 774.001038,589.076660 772.613159,589.282471 
	C741.777649,579.718994 710.942139,570.155518 680.601501,560.745483 
	C682.061890,550.892456 683.464661,541.428467 685.033630,531.044067 
	C684.996277,521.037781 684.958923,511.031464 685.052246,500.137878 
	C682.955200,468.461761 671.953247,439.998932 653.214233,413.484589 
	C681.646851,392.486938 709.853455,371.656219 738.664490,351.130249 
	C759.640442,371.739807 784.716370,381.045380 814.054138,378.022888 
	C862.895020,372.991180 900.993835,329.451202 892.352722,274.842255 
	C884.162048,223.079788 832.550293,189.803864 781.474609,202.155762 
	C739.596313,212.283386 711.853943,248.336548 713.061401,291.314880 
	C713.595703,310.335205 719.882080,327.453796 730.400330,343.126373 
	C702.640015,363.706024 674.879700,384.285675 646.954468,404.987640 
	C612.782715,365.999084 570.148438,344.842773 518.127869,343.208984 
	C518.127869,309.578949 518.127869,276.294006 518.990051,242.990204 
	C528.995178,240.721451 539.488403,239.692215 548.923706,235.976532 
	C598.606323,216.411179 619.205994,153.920731 590.640686,108.830353 
	C569.812927,75.953697 539.031982,62.580353 500.598724,66.926140 
	C448.971680,72.763794 413.387848,123.805580 425.548889,174.223083 
	C434.877899,212.899506 466.686310,239.536621 507.737000,243.958328 
	C507.737000,276.899017 507.737000,309.839722 507.737000,342.776581 
	C455.748047,344.664551 413.659760,366.596802 379.459259,404.830811 
	C376.333954,402.467621 373.290222,400.144470 370.224213,397.851105 
	C346.362427,380.002991 322.496368,362.160583 298.882629,343.732056 
	C300.201996,341.616272 301.586670,339.538086 302.830719,337.378876 
	C317.011444,312.766937 320.459869,286.885071 310.456299,260.088745 
	C295.599884,220.293228 254.963547,196.681641 211.499237,201.867767 
	C159.081848,208.122147 122.553520,259.116669 134.570984,310.375641 
	C142.817993,345.552155 164.834290,369.172455 199.708862,378.692810 
	C235.308075,388.410980 266.477051,379.109863 292.605255,352.426910 
	C319.506317,372.749390 346.407379,393.071869 373.343201,413.420624 
	C341.310791,458.097046 333.080444,506.758636 345.457092,559.690979 
	C342.699036,560.580811 339.724243,561.561279 336.736664,562.500977 
	C308.368286,571.424255 279.997742,580.340637 251.260513,588.683838 
z"/>
<path fill="#1C457A" opacity="1.000000" stroke="none" 
	d="
M684.867432,531.964539 
	C683.464661,541.428467 682.061890,550.892456 680.601501,560.745483 
	C710.942139,570.155518 741.777649,579.718994 772.826782,589.950378 
	C772.070435,593.731506 771.100403,596.844727 770.130371,599.957886 
	C755.308533,595.181580 740.507996,590.337708 725.658936,585.647339 
	C709.678894,580.599670 693.653442,575.695801 677.269409,570.611755 
	C660.569824,617.662720 629.579834,651.559998 584.948303,673.495056 
	C598.306274,705.751099 611.694824,738.081055 624.896851,771.014099 
	C621.790955,772.743347 618.871582,773.869385 615.952209,774.995422 
	C602.210754,742.284119 588.469360,709.572815 574.622009,676.609375 
	C533.043823,691.212708 491.880096,691.516052 450.427521,675.931824 
	C437.198944,708.893555 424.100586,741.530762 410.602783,774.544067 
	C407.065948,773.592773 403.928528,772.265381 400.791138,770.938049 
	C412.718262,741.352051 424.652069,711.768738 436.562622,682.176086 
	C437.802002,679.096741 438.903381,675.961853 440.290894,672.260132 
	C418.833832,662.191467 400.053864,648.414429 384.264465,630.762207 
	C368.435425,613.065613 356.844971,592.825012 348.958679,569.878601 
	C317.774078,579.601868 286.763123,589.270935 255.221069,598.653931 
	C253.669281,595.331543 252.648544,592.295227 251.627823,589.258972 
	C279.997742,580.340637 308.368286,571.424255 336.736664,562.500977 
	C339.724243,561.561279 342.699036,560.580811 345.457092,559.690979 
	C333.080444,506.758636 341.310791,458.097046 373.343201,413.420624 
	C346.407379,393.071869 319.506317,372.749390 292.455048,351.963318 
	C294.413757,349.105255 296.522675,346.710815 298.631622,344.316406 
	C322.496368,362.160583 346.362427,380.002991 370.224213,397.851105 
	C373.290222,400.144470 376.333954,402.467621 379.459259,404.830811 
	C413.659760,366.596802 455.748047,344.664551 507.737000,342.776581 
	C507.737000,309.839722 507.737000,276.899017 508.194031,243.412354 
	C511.809998,242.913940 514.968933,242.961517 518.127869,243.009094 
	C518.127869,276.294006 518.127869,309.578949 518.127869,343.208984 
	C570.148438,344.842773 612.782715,365.999084 646.954468,404.987640 
	C674.879700,384.285675 702.640015,363.706024 730.994873,343.163757 
	C733.746277,345.742584 735.903198,348.284027 738.060059,350.825500 
	C709.853455,371.656219 681.646851,392.486938 653.214233,413.484589 
	C671.953247,439.998932 682.955200,468.461761 684.707153,500.886597 
	C684.241333,507.708984 683.986633,513.783936 684.047180,519.855774 
	C684.087585,523.894348 684.578308,527.928467 684.867432,531.964539 
M508.480408,473.541077 
	C503.624420,473.753693 498.768463,473.966309 493.730682,474.532867 
	C493.547943,474.733551 493.328125,474.877747 492.454651,475.543854 
	C492.302856,485.617920 492.218933,495.693848 491.936615,505.764252 
	C491.885986,507.570129 491.016052,509.353058 490.039551,510.705627 
	C483.319458,499.629822 476.636597,488.531006 469.828522,477.509552 
	C469.044647,476.240540 467.591370,474.553467 466.400085,474.513824 
	C461.630646,474.355072 456.842133,474.769714 451.448883,475.552673 
	C451.330322,475.860992 451.108582,476.169098 451.107941,476.477661 
	C451.063690,497.910706 451.012451,519.343872 451.083038,540.776611 
	C451.086487,541.826965 452.167938,542.873779 453.572937,543.752258 
	C458.589569,543.579163 463.606232,543.406067 469.324493,542.661804 
	C469.549500,540.897766 469.954315,539.135193 469.968872,537.369446 
	C470.036896,529.124573 469.914307,520.877380 470.067566,512.634827 
	C470.097443,511.028900 471.049988,509.440094 472.034973,508.296753 
	C478.713135,519.360779 485.391296,530.424744 492.241211,542.082092 
	C492.503082,542.386047 492.764984,542.690002 493.459900,543.137085 
	C493.782715,543.237732 493.979279,543.453430 494.534668,544.469360 
	C499.341919,544.250488 504.149170,544.031555 509.168060,543.280518 
	C509.323212,543.169312 509.478363,543.058105 510.291077,542.614807 
	C510.515717,542.188721 510.936127,541.762939 510.936951,541.336365 
	C510.978302,519.962830 511.014923,498.589020 510.898499,477.216095 
	C510.892853,476.180817 509.508118,475.153107 508.933777,474.060303 
	C508.933777,474.060303 508.972534,474.235138 508.480408,473.541077 
M556.994995,510.702393 
	C550.224670,499.654083 543.502930,488.575348 536.621948,477.596405 
	C535.773132,476.242096 534.146729,474.623291 532.757507,474.498566 
	C528.332825,474.101166 523.850037,474.351288 519.188965,474.351288 
	C519.188965,497.627319 519.188965,520.472778 519.188965,543.377075 
	C524.578064,543.377075 529.648193,543.377075 535.260132,543.377075 
	C535.260132,530.100464 535.260132,517.121582 535.260132,502.650208 
	C543.498474,515.992249 550.874695,528.014832 558.364258,539.966370 
	C559.260010,541.395813 560.683044,543.364014 562.015259,543.492859 
	C566.560791,543.932190 571.175049,543.661011 575.937927,543.661011 
	C575.937927,520.109314 575.937927,497.318054 575.534058,473.757904 
	C570.671387,473.878204 565.808777,473.998535 560.689453,474.466949 
	C560.488586,474.676971 560.261658,474.853424 559.415344,475.585968 
	C559.277283,485.661102 559.210205,495.738159 558.935303,505.809570 
	C558.886353,507.601929 557.974976,509.370758 556.994995,510.702393 
M403.062866,475.355042 
	C394.103607,479.195953 388.002472,485.675903 385.457703,495.130951 
	C382.896576,504.646912 382.857941,514.271301 385.818420,523.705566 
	C389.955200,536.888367 400.716217,544.577637 414.308258,544.435059 
	C427.231232,544.299500 437.719940,536.427490 441.747284,523.628723 
	C444.292053,515.541809 444.653320,507.302643 443.036041,498.946899 
	C439.312561,479.709320 422.645416,469.541962 403.062866,475.355042 
M586.878540,534.298218 
	C585.143372,537.198914 583.408203,540.099609 581.277466,543.661499 
	C586.095581,543.661499 589.932251,543.303894 593.671570,543.754639 
	C598.058044,544.283264 600.202881,542.438660 602.004395,538.666626 
	C604.958984,532.480530 608.475647,526.562927 612.049988,519.990234 
	C616.322998,527.383545 620.055359,534.045288 624.034241,540.556335 
	C624.842468,541.878967 626.525391,543.415588 627.898132,543.510742 
	C632.966553,543.862244 638.073975,543.650574 643.838989,543.650574 
	C636.385742,531.272034 629.296875,519.498657 622.252686,507.799438 
	C628.753113,496.669250 635.093506,485.812988 641.792114,474.343384 
	C636.646179,474.343384 632.182007,474.064667 627.783997,474.482269 
	C626.054382,474.646454 623.830078,475.976105 622.935547,477.446808 
	C619.270874,483.471436 616.032227,489.755219 612.250488,496.647583 
	C608.307068,489.821106 604.867249,483.582062 601.096924,477.549561 
	C600.209900,476.130341 598.272461,474.640625 596.706665,474.508759 
	C591.981445,474.110809 587.201294,474.365082 581.675537,474.365082 
	C588.014343,484.944733 594.044617,494.832031 599.825256,504.863159 
	C600.622437,506.246460 600.893005,508.710571 600.199463,510.047974 
	C596.067993,518.015381 591.581421,525.798706 586.878540,534.298218 
z"/>
<path fill="#202D3B" opacity="1.000000" stroke="none" 
	d="
M770.093872,600.364563 
	C771.100403,596.844727 772.070435,593.731506 773.073242,590.219482 
	C774.001038,589.076660 775.268982,588.515869 775.737671,587.562378 
	C803.779175,530.506775 878.894287,518.395325 923.302734,563.812012 
	C958.098206,599.397461 955.816162,659.179199 918.381226,692.732300 
	C866.703857,739.051208 786.729675,715.247009 769.086121,648.170715 
	C765.251099,633.591125 765.638916,618.820801 769.366394,604.177368 
	C769.651794,603.056030 769.829529,601.907227 770.093872,600.364563 
M830.990723,614.157898 
	C830.843384,609.336975 830.333862,604.483826 830.758789,599.713928 
	C830.894714,598.188782 833.474426,595.704102 834.989502,595.663635 
	C848.137207,595.312439 861.298279,595.336914 874.452087,595.504150 
	C875.896240,595.522461 878.547363,597.126099 878.558289,598.019775 
	C878.641907,604.890198 880.426331,611.961731 876.540161,618.500854 
	C871.828430,626.429077 864.579346,629.801147 854.665710,630.335083 
	C866.725891,633.144348 873.911560,630.006714 880.243530,620.495239 
	C881.455688,618.674377 884.223999,616.549866 886.070740,616.724121 
	C893.872803,617.460571 897.999084,611.892273 899.386292,605.493347 
	C900.664246,599.598389 895.228699,592.261047 889.168030,592.591187 
	C884.329041,592.854736 879.989136,591.438049 875.526672,591.155457 
	C861.593872,590.273254 847.568665,590.776001 833.580444,590.889282 
	C829.398499,590.923157 826.082520,594.301453 825.891479,598.411438 
	C825.729248,601.901428 825.663330,605.409119 825.814758,608.897705 
	C826.206055,617.910645 830.373413,624.869202 838.199158,629.213013 
	C841.998169,631.321716 846.299744,633.004761 850.980286,630.895935 
	C842.055420,628.300903 834.791870,623.879150 830.990723,614.157898 
M863.499756,638.187500 
	C852.845642,638.179626 842.191406,638.186523 831.537354,638.156738 
	C827.028870,638.144104 823.976196,639.820862 823.257874,645.066040 
	C826.263489,644.267822 828.901367,642.997925 831.557739,642.957825 
	C844.872192,642.757080 858.193787,642.736694 871.507935,642.955200 
	C876.915771,643.043884 883.192444,640.479004 886.673706,647.498535 
	C890.037903,642.386353 887.874512,638.516663 881.976501,638.276245 
	C876.159363,638.039001 870.325928,638.201843 863.499756,638.187500 
M864.208313,667.090698 
	C862.489197,666.958130 860.770142,666.825623 858.851685,666.677734 
	C860.347107,664.245178 861.360535,662.596741 862.761047,660.318542 
	C857.825928,660.202759 850.822571,667.596375 852.685120,669.417297 
	C856.387817,673.037354 854.521973,677.045044 854.746399,680.830994 
	C854.966797,684.548462 856.468018,684.390503 859.252136,683.238831 
	C859.252136,679.144104 859.252136,675.203247 859.252136,671.059204 
	C861.270020,671.059204 863.007690,671.059204 865.199585,671.059204 
	C865.199585,675.269104 865.199585,679.354370 865.199585,683.554199 
	C866.995911,683.554199 868.334656,683.554199 869.922180,683.554199 
	C869.922180,681.396912 869.888184,679.584900 869.930908,677.774719 
	C869.981506,675.629211 869.442810,671.948914 870.291260,671.587036 
	C876.334534,669.009277 871.318359,667.497742 870.313354,666.496704 
	C871.331177,664.267822 872.066162,662.658386 872.801147,661.048950 
	C870.674133,661.385132 868.291626,661.257568 866.517944,662.235046 
	C865.488342,662.802368 865.436890,665.144897 864.208313,667.090698 
M819.503906,683.538696 
	C828.211670,685.216431 832.507446,682.761719 832.558228,674.825562 
	C830.444946,676.156494 828.623535,676.875366 827.398071,678.161926 
	C824.575928,681.124817 820.732178,681.027710 819.600830,677.172607 
	C818.748596,674.268616 818.863586,670.598450 819.884216,667.747742 
	C821.198547,664.076782 824.597778,664.213257 827.323608,667.121460 
	C828.575745,668.457214 830.481201,669.180725 832.090393,670.181946 
	C832.496399,664.102600 829.488647,661.737671 824.976013,661.097290 
	C820.062744,660.400146 815.850891,662.910706 814.203247,667.206726 
	C812.029358,672.874817 813.852112,679.151794 819.503906,683.538696 
M841.882446,666.960571 
	C838.659119,667.484070 836.428589,668.975769 836.105530,673.696411 
	C838.194092,672.767151 839.602905,671.874817 841.134338,671.535156 
	C842.592407,671.211853 844.178467,671.465637 845.708252,671.465637 
	C845.712097,672.041992 845.715942,672.618347 845.719788,673.194702 
	C843.814575,673.536438 841.449158,673.299744 840.115845,674.360413 
	C838.286987,675.815430 836.528809,678.136719 836.167786,680.322571 
	C835.994263,681.373230 838.975769,683.886902 840.734009,684.108582 
	C843.905579,684.508667 847.231567,683.683777 850.210632,683.397644 
	C850.210632,680.382935 850.219482,677.435364 850.208923,674.487915 
	C850.185913,668.075684 849.385010,667.268616 841.882446,666.960571 
M888.126953,670.667908 
	C885.959412,666.288269 882.278564,666.066589 878.400085,667.550537 
	C874.822083,668.919678 872.963745,674.387695 874.304688,678.786133 
	C875.551270,682.875000 878.403442,684.586914 882.661255,684.147217 
	C886.639709,683.736267 887.886353,682.589111 888.379395,678.579651 
	C880.271179,680.198669 880.271179,680.198669 879.219482,676.776733 
	C882.580566,676.776733 885.795166,676.776733 889.411011,676.776733 
	C889.040222,674.634888 888.762207,673.028687 888.126953,670.667908 
M902.438965,680.180298 
	C900.950867,680.180298 899.462769,680.180298 897.757141,680.180298 
	C899.604797,674.939758 906.020020,673.353943 904.733032,667.129517 
	C902.086853,667.129517 899.580383,666.904358 897.136902,667.199768 
	C895.129456,667.442383 891.475159,668.393494 891.500427,668.876160 
	C891.724060,673.146179 895.296204,670.087402 897.173828,671.094788 
	C897.406982,671.219849 897.553162,671.506958 897.731873,671.716370 
	C896.216919,676.032898 890.022461,677.827271 891.095703,683.743896 
	C896.084717,683.743896 900.860107,683.743896 905.635559,683.743896 
	C905.894348,683.326050 906.153076,682.908203 906.411804,682.490356 
	C905.379456,681.720215 904.347046,680.950134 902.438965,680.180298 
M853.647034,570.204285 
	C854.893799,575.351562 856.140503,580.498901 857.387207,585.646179 
	C857.910278,585.561218 858.433289,585.476318 858.956360,585.391418 
	C859.436096,582.983337 860.143005,580.593994 860.343872,578.162964 
	C860.667297,574.248535 857.069885,569.510376 853.647034,570.204285 
M865.096924,565.819885 
	C865.134766,566.706177 864.808716,567.934692 865.268860,568.423767 
	C868.504639,571.863525 868.935425,575.652039 867.287170,579.927979 
	C866.921875,580.875610 867.041199,582.010132 866.920776,583.226379 
	C871.412781,583.332703 871.624084,580.171570 872.007446,577.528076 
	C872.820312,571.922363 870.548035,567.816040 865.096924,565.819885 
z"/>
<path fill="#F0452E" opacity="1.000000" stroke="none" 
	d="
M251.444168,588.971436 
	C252.648544,592.295227 253.669281,595.331543 254.845413,598.698486 
	C256.580658,607.838318 258.956055,616.591492 259.579590,625.467834 
	C261.006989,645.786560 253.915024,663.815552 242.153503,679.958313 
	C220.276230,709.985046 184.472733,722.840393 148.634415,714.026184 
	C113.302910,705.336609 85.719864,675.437439 80.224861,639.872192 
	C72.347076,588.884888 108.450394,542.020935 159.677170,536.739075 
	C199.824371,532.599548 234.174622,552.082520 251.444168,588.971436 
M187.419647,658.024048 
	C169.193680,669.914978 147.374786,662.868347 141.341599,642.903809 
	C137.398804,629.856689 141.816650,619.085876 151.424988,610.017090 
	C158.931244,602.932312 166.308517,595.710022 173.859940,588.674194 
	C177.569305,585.218079 174.438278,583.143433 172.571716,580.792175 
	C170.602478,578.311523 168.729492,577.669434 166.061417,580.374390 
	C157.410965,589.144470 148.322968,597.488037 139.786987,606.364685 
	C124.367134,622.399963 124.758942,647.638611 140.364578,663.072144 
	C156.718460,679.245667 182.280060,679.693726 198.436142,664.090088 
	C220.397049,642.880127 214.480591,609.514038 186.198105,595.368408 
	C184.728073,598.469788 183.260773,601.565308 181.808731,604.628662 
	C206.138184,619.167847 204.914886,644.815063 187.419647,658.024048 
z"/>
<path fill="#EF452E" opacity="1.000000" stroke="none" 
	d="
M400.408081,770.918213 
	C403.928528,772.265381 407.065948,773.592773 410.571167,774.915955 
	C446.263367,791.437927 467.907074,828.087524 464.879303,866.249695 
	C461.642059,907.052124 431.528595,939.422363 391.124084,947.116333 
	C334.694733,957.861816 279.128235,912.402832 285.157928,847.790283 
	C289.343719,802.936768 328.348572,767.804199 373.330872,767.966797 
	C382.232361,767.999023 391.127167,769.873535 400.408081,770.918213 
M328.365784,858.965637 
	C328.543274,860.292480 328.720764,861.619385 328.954193,863.364441 
	C335.213684,859.982178 340.755005,856.970154 346.313171,853.989624 
	C351.638184,851.134216 354.037384,852.525146 354.048401,858.533508 
	C354.072815,871.855652 354.007477,885.178223 354.093140,898.499817 
	C354.102753,899.995178 354.394714,902.345642 355.327545,902.838318 
	C361.134827,905.905640 367.162170,908.556274 373.672363,911.605469 
	C373.672363,907.580566 373.674561,904.460388 373.671722,901.340271 
	C373.668854,898.176270 373.610413,895.011353 373.665314,891.848389 
	C373.801453,884.004578 377.811523,881.460327 385.089172,884.559814 
	C387.271118,885.489075 389.448151,886.429932 392.168030,887.597473 
	C392.168030,881.354553 392.015472,876.032288 392.229706,870.724792 
	C392.343811,867.898315 391.189453,866.567139 388.701324,865.560913 
	C384.853485,864.004822 381.051788,862.266907 377.435425,860.240356 
	C376.036102,859.456238 374.329895,857.724548 374.250305,856.339111 
	C373.902557,850.284973 374.100708,844.199524 374.100708,837.470093 
	C388.859192,844.883606 403.008820,851.991333 417.874054,859.458496 
	C417.874054,851.875244 417.630859,845.095703 417.969116,838.345337 
	C418.159393,834.547485 416.641785,832.667542 413.434052,831.071899 
	C402.416626,825.591675 391.474030,819.955566 380.600616,814.194458 
	C377.149658,812.366028 374.171326,812.355042 370.797272,814.354980 
	C360.495850,820.461304 350.403503,827.057312 339.614624,832.162781 
	C330.357880,836.543213 326.153076,842.444336 328.204407,852.582458 
	C328.561768,854.348633 328.322144,856.235657 328.365784,858.965637 
z"/>
<path fill="#FB9913" opacity="1.000000" stroke="none" 
	d="
M738.362305,350.977875 
	C735.903198,348.284027 733.746277,345.742584 731.308167,343.013550 
	C719.882080,327.453796 713.595703,310.335205 713.061401,291.314880 
	C711.853943,248.336548 739.596313,212.283386 781.474609,202.155762 
	C832.550293,189.803864 884.162048,223.079788 892.352722,274.842255 
	C900.993835,329.451202 862.895020,372.991180 814.054138,378.022888 
	C784.716370,381.045380 759.640442,371.739807 738.362305,350.977875 
M831.611023,246.884186 
	C823.665283,242.700760 815.828735,238.283569 807.701050,234.489929 
	C805.531555,233.477295 801.954529,233.422379 799.901672,234.540146 
	C781.935608,244.322235 764.165100,254.463684 746.353394,264.528198 
	C745.425781,265.052338 744.650574,265.846222 742.447021,267.586792 
	C746.639282,271.221130 750.547791,274.341156 754.142578,277.788269 
	C759.613220,283.033997 759.403870,282.949829 765.618286,278.921661 
	C772.349182,274.558716 779.327637,270.577698 787.480103,265.656219 
	C787.896179,269.949646 788.343140,272.508484 788.360901,275.070282 
	C788.496826,294.714172 788.497009,314.359192 788.709534,334.002014 
	C788.730469,335.941254 789.307068,338.836029 790.625854,339.633575 
	C796.405212,343.128540 802.552673,346.014557 809.119690,349.407196 
	C809.119690,347.856140 809.118896,347.076355 809.119751,346.296570 
	C809.131592,336.140228 808.991455,325.980652 809.205383,315.828552 
	C809.368469,308.085297 812.599609,306.304108 819.365540,309.754700 
	C822.385254,311.294769 825.461121,312.724457 828.841248,314.364197 
	C828.841248,306.860016 830.515808,299.567657 828.250122,293.831757 
	C826.749695,290.033417 819.600037,288.467133 814.980774,285.899231 
	C814.545105,285.657043 813.978821,285.498749 813.712219,285.129120 
	C812.499146,283.447357 810.514893,281.771484 810.372803,279.970062 
	C809.935181,274.420135 810.213318,268.813782 810.213318,262.462006 
	C823.265076,269.303986 835.691589,275.818176 848.497498,282.531311 
	C852.891418,276.315308 856.989868,270.517303 861.823486,263.679199 
	C851.612183,257.988007 841.943298,252.599075 831.611023,246.884186 
z"/>
<path fill="#F0452E" opacity="1.000000" stroke="none" 
	d="
M298.757141,344.024231 
	C296.522675,346.710815 294.413757,349.105255 292.167664,351.805847 
	C266.477051,379.109863 235.308075,388.410980 199.708862,378.692810 
	C164.834290,369.172455 142.817993,345.552155 134.570984,310.375641 
	C122.553520,259.116669 159.081848,208.122147 211.499237,201.867767 
	C254.963547,196.681641 295.599884,220.293228 310.456299,260.088745 
	C320.459869,286.885071 317.011444,312.766937 302.830719,337.378876 
	C301.586670,339.538086 300.201996,341.616272 298.757141,344.024231 
M265.875702,297.617706 
	C252.040497,275.001099 238.205276,252.384476 223.999329,229.161804 
	C221.336243,233.131210 219.173447,236.088684 217.284637,239.211868 
	C200.658432,266.703583 184.131195,294.255402 167.415115,321.692230 
	C165.652344,324.585571 165.896896,327.130737 168.104965,328.735992 
	C170.793152,330.690369 174.342575,333.022980 177.275299,332.731873 
	C182.375565,332.225677 187.670761,330.541962 192.206833,328.095795 
	C204.603943,321.410278 217.485443,318.089935 231.577255,319.833984 
	C242.327057,321.164398 252.222183,324.694885 261.445099,330.396332 
	C268.314728,334.642975 275.489716,333.966339 280.290924,329.222107 
	C282.597015,326.943359 283.209381,325.007172 281.116272,321.917145 
	C275.891693,314.204285 271.135376,306.174255 265.875702,297.617706 
z"/>
<path fill="#0995FE" opacity="1.000000" stroke="none" 
	d="
M615.676147,775.218567 
	C618.871582,773.869385 621.790955,772.743347 624.993774,771.389709 
	C633.848633,770.111511 642.416992,768.184692 650.992004,768.154602 
	C701.107666,767.978638 741.649353,809.265076 741.003662,859.344482 
	C740.398926,906.251465 706.334717,943.477661 659.714966,948.178467 
	C605.614441,953.633545 559.628418,910.884033 560.707214,856.538025 
	C561.339539,824.686890 575.596863,800.576477 601.246399,782.700928 
	C605.557068,779.696777 610.662170,777.832642 615.676147,775.218567 
M617.497925,896.700806 
	C621.328857,896.701660 625.196838,896.369141 628.981262,896.788940 
	C633.571960,897.298279 636.291016,895.629395 638.463440,891.590820 
	C646.654724,876.363098 655.266907,861.359863 663.315002,846.058838 
	C664.731812,843.365112 665.308716,839.271973 664.363586,836.469177 
	C661.249512,827.234497 657.331116,818.265076 653.559814,809.261536 
	C652.445801,806.601929 650.796631,804.166565 649.082092,801.066895 
	C625.546509,830.727417 609.249634,863.973633 588.154968,896.376953 
	C598.436768,896.487305 607.467957,896.584290 617.497925,896.700806 
M700.302612,896.268005 
	C702.672180,896.114502 705.041748,895.960938 708.491638,895.737427 
	C696.177490,873.227112 684.434448,851.760803 672.691406,830.294495 
	C673.063110,838.543884 672.236572,845.962341 668.353149,852.990601 
	C661.278625,865.793823 654.343323,878.674072 647.356689,891.525757 
	C646.590393,892.935364 645.867310,894.368530 644.865479,896.285706 
	C663.443481,896.285706 681.396301,896.285706 700.302612,896.268005 
z"/>
<path fill="#6F65D8" opacity="1.000000" stroke="none" 
	d="
M518.558960,242.999664 
	C514.968933,242.961517 511.809998,242.913940 508.179138,242.945404 
	C466.686310,239.536621 434.877899,212.899506 425.548889,174.223083 
	C413.387848,123.805580 448.971680,72.763794 500.598724,66.926140 
	C539.031982,62.580353 569.812927,75.953697 590.640686,108.830353 
	C619.205994,153.920731 598.606323,216.411179 548.923706,235.976532 
	C539.488403,239.692215 528.995178,240.721451 518.558960,242.999664 
M564.416931,170.680267 
	C564.576721,170.329346 564.736572,169.978424 564.958130,169.270004 
	C564.958130,169.270004 565.206238,169.005310 565.844238,168.868835 
	C566.563904,166.564423 567.283569,164.260025 568.204102,161.808395 
	C568.204102,161.808395 568.435974,161.899307 569.166626,161.753952 
	C571.869812,159.993912 571.483826,158.449371 568.929443,157.042542 
	C568.929443,157.042542 568.892944,157.127243 568.950623,156.415619 
	C568.337585,155.610123 567.724487,154.804626 566.764526,153.485657 
	C566.485718,152.725174 566.206909,151.964691 565.928711,150.548080 
	C565.597046,150.023621 565.265381,149.499176 564.773926,148.789856 
	C564.773926,148.789856 564.861145,148.561646 564.889709,147.811295 
	C564.497925,147.253174 564.106201,146.695053 563.883545,146.068542 
	C563.883545,146.068542 563.748169,146.190735 563.900879,145.418762 
	C562.185608,142.321259 560.470337,139.223770 558.855286,136.052032 
	C558.855286,136.052032 558.817444,136.170868 558.924255,135.414047 
	C557.947388,133.941269 556.970459,132.468491 555.817505,130.803101 
	C555.817505,130.803101 555.866333,130.546783 555.891724,129.801071 
	C555.502136,129.246429 555.112610,128.691788 554.834229,128.099487 
	C554.834229,128.099487 554.821167,128.216171 554.720642,127.687820 
	C554.446472,127.471992 554.172363,127.256172 553.980530,127.021416 
	C553.980530,127.021416 553.933594,127.091675 553.921265,126.455315 
	C553.548889,125.994919 553.176453,125.534531 552.910095,125.049866 
	C552.910095,125.049866 552.907593,125.158607 552.770264,124.668022 
	C552.522217,124.445999 552.274170,124.223969 551.849365,123.799065 
	C551.849365,123.799065 551.898376,123.534477 551.783813,122.913239 
	C551.505371,122.614014 551.226929,122.314789 550.457825,121.590942 
	C549.619629,120.619621 548.781433,119.648300 547.521179,118.312508 
	C546.976685,118.242943 546.432251,118.173378 545.933350,118.068268 
	C545.933350,118.068268 545.925232,118.122581 545.917786,117.541672 
	C544.967773,117.781578 544.017700,118.021484 542.676819,118.675331 
	C542.131592,118.814987 541.586365,118.954651 540.677124,118.592125 
	C539.452332,119.335579 538.227539,120.079025 536.595703,121.030144 
	C536.595703,121.030144 536.139038,121.047699 535.380432,121.021423 
	C534.253784,121.637291 533.127075,122.253166 531.646912,123.068985 
	C531.646912,123.068985 531.241028,123.082909 530.439636,123.035980 
	C528.626770,123.978249 526.813965,124.920509 524.630737,126.063454 
	C524.630737,126.063454 524.210022,126.085304 523.429016,126.022675 
	C522.620483,124.711159 521.812012,123.399635 521.538574,121.726799 
	C522.336609,121.436943 523.134583,121.147087 524.311096,121.382835 
	C526.129089,120.469818 527.947021,119.556801 530.008423,118.922234 
	C530.008423,118.922234 529.766357,118.635513 530.372498,118.822914 
	C530.913757,118.330711 531.455078,117.838501 532.629272,117.024117 
	C533.742249,116.659515 534.855164,116.294922 536.391663,116.447510 
	C538.927246,115.323845 541.462891,114.200180 544.300110,112.899216 
	C544.300110,112.899216 544.649902,112.905762 545.207825,112.787628 
	C545.471863,112.526428 545.735901,112.265228 546.095642,111.491112 
	C546.066040,111.319717 546.036499,111.148331 545.899170,110.321968 
	C544.912354,110.260483 543.925598,110.198997 542.280029,110.168526 
	C541.848999,110.089806 541.418030,110.011086 540.609009,109.291489 
	C535.221558,107.958733 529.870789,106.438484 524.431152,105.372116 
	C521.699219,104.836571 518.805542,105.126633 515.316284,105.110115 
	C514.877625,105.029541 514.439026,104.948967 513.803101,104.129150 
	C510.079987,103.207054 506.360168,102.271507 502.632874,101.366676 
	C499.009369,100.487053 496.469025,101.271057 495.926422,105.525887 
	C495.854523,106.089615 494.672089,106.511711 493.591705,106.651039 
	C490.573456,109.182312 487.300446,111.468285 484.583771,114.289932 
	C475.746704,123.468399 467.113159,132.842789 457.727814,142.278458 
	C455.018036,144.022385 456.466675,145.123184 458.094238,146.759949 
	C458.034271,147.183151 457.974304,147.606369 457.498444,148.368942 
	C457.941315,148.912399 458.384186,149.455872 459.032440,150.394730 
	C459.032440,150.394730 459.055786,150.839691 459.023621,151.614700 
	C459.736206,153.055939 460.448822,154.497177 461.074219,155.969437 
	C461.074219,155.969437 461.103638,155.881653 461.046326,156.602142 
	C461.468689,157.349060 461.891022,158.095993 462.169952,158.988861 
	C462.169952,158.988861 462.268860,158.809753 462.101501,159.539963 
	C462.794739,160.669968 463.488007,161.799957 464.095459,162.955399 
	C464.095459,162.955399 464.112579,162.867569 464.089020,163.507324 
	C464.417175,164.014099 464.745331,164.520874 465.227936,165.221207 
	C465.227936,165.221207 465.132629,165.449753 465.077209,166.287643 
	C466.731262,169.193436 468.385315,172.099228 470.203857,175.204163 
	C470.203857,175.204163 470.135956,175.453369 470.078369,176.282715 
	C471.347900,178.522141 472.617432,180.761566 474.082245,183.312973 
	C474.082245,183.312973 474.092590,183.680878 474.178040,184.191254 
	C474.396210,184.448425 474.614380,184.705597 475.043152,185.330582 
	C475.043152,185.330582 475.070160,185.753586 475.169037,186.232925 
	C475.291260,186.550797 475.502045,186.790909 476.035217,187.309601 
	C476.035217,187.309601 476.077301,187.733719 476.166168,188.216232 
	C476.281494,188.537750 476.487549,188.783005 477.061188,189.461517 
	C477.618073,189.934280 478.174957,190.407043 479.372253,191.177765 
	C480.621552,192.089645 481.870850,193.001526 483.018677,193.980072 
	C483.018677,193.980072 483.070557,193.870758 483.274353,194.475647 
	C483.868469,195.354767 484.462585,196.233871 485.466248,197.766724 
	C500.979065,199.566803 516.491882,201.366882 532.168762,203.850906 
	C534.090515,205.655029 535.770386,205.871078 537.345459,202.930466 
	C537.345459,202.930466 537.737366,202.891037 538.498718,202.839600 
	C539.331848,200.893463 540.164978,198.947311 541.682129,196.970657 
	C543.012024,195.730927 544.494873,194.618088 545.646057,193.230118 
	C551.482117,186.193558 557.231995,179.085571 563.449951,171.754410 
	C563.619934,171.470627 563.789856,171.186844 563.976929,170.976486 
	C563.976929,170.976486 563.902100,170.967529 564.416931,170.680267 
z"/>
<path fill="#0B2E69" opacity="1.000000" stroke="none" 
	d="
M684.950562,531.504272 
	C684.578308,527.928467 684.087585,523.894348 684.047180,519.855774 
	C683.986633,513.783936 684.241333,507.708984 684.641785,501.330261 
	C684.958923,511.031464 684.996277,521.037781 684.950562,531.504272 
z"/>
<path fill="#F2F4F6" opacity="1.000000" stroke="none" 
	d="
M492.069458,541.488770 
	C485.391296,530.424744 478.713135,519.360779 471.605713,507.683105 
	C470.521362,506.290833 469.866302,505.512207 468.622864,504.034271 
	C468.622864,517.762939 468.622864,530.497986 468.622864,543.233032 
	C463.606232,543.406067 458.589569,543.579163 453.046082,543.381958 
	C452.366364,520.331787 452.213501,497.652008 452.060669,474.972229 
	C456.842133,474.769714 461.630646,474.355072 466.400085,474.513824 
	C467.591370,474.553467 469.044647,476.240540 469.828522,477.509552 
	C476.636597,488.531006 483.319458,499.629822 490.420227,511.245911 
	C491.396545,512.615295 491.992188,513.444397 493.071289,514.946533 
	C493.071289,500.980560 493.071289,487.973022 493.071289,474.965485 
	C493.328125,474.877747 493.547943,474.733551 494.292786,474.405334 
	C499.560760,474.263611 504.266663,474.249390 508.972534,474.235138 
	C508.972534,474.235138 508.933777,474.060303 509.024597,474.524109 
	C509.160431,476.816040 509.234283,478.643982 509.246124,480.472351 
	C509.380707,501.297119 509.505829,522.122009 509.633514,542.946838 
	C509.478363,543.058105 509.323212,543.169312 508.599670,543.522888 
	C503.370728,543.771545 498.710144,543.777832 494.049591,543.784119 
	C493.979279,543.453430 493.782715,543.237732 493.174316,542.764526 
	C492.615631,542.090942 492.342560,541.789856 492.069458,541.488770 
z"/>
<path fill="#F4F6F7" opacity="1.000000" stroke="none" 
	d="
M560.008545,474.996277 
	C560.261658,474.853424 560.488586,474.676971 561.284363,474.356384 
	C566.565491,474.339447 571.251709,474.433136 575.937927,474.526825 
	C575.937927,497.318054 575.937927,520.109314 575.937927,543.661011 
	C571.175049,543.661011 566.560791,543.932190 562.015259,543.492859 
	C560.683044,543.364014 559.260010,541.395813 558.364258,539.966370 
	C550.874695,528.014832 543.498474,515.992249 535.260132,502.650208 
	C535.260132,517.121582 535.260132,530.100464 535.260132,543.377075 
	C529.648193,543.377075 524.578064,543.377075 519.188965,543.377075 
	C519.188965,520.472778 519.188965,497.627319 519.188965,474.351288 
	C523.850037,474.351288 528.332825,474.101166 532.757507,474.498566 
	C534.146729,474.623291 535.773132,476.242096 536.621948,477.596405 
	C543.502930,488.575348 550.224670,499.654083 557.383789,511.251709 
	C558.312195,512.683777 558.851868,513.566467 560.008545,515.458374 
	C560.008545,501.096344 560.008545,488.046295 560.008545,474.996277 
z"/>
<path fill="#F4F6F7" opacity="1.000000" stroke="none" 
	d="
M403.433167,475.225128 
	C422.645416,469.541962 439.312561,479.709320 443.036041,498.946899 
	C444.653320,507.302643 444.292053,515.541809 441.747284,523.628723 
	C437.719940,536.427490 427.231232,544.299500 414.308258,544.435059 
	C400.716217,544.577637 389.955200,536.888367 385.818420,523.705566 
	C382.857941,514.271301 382.896576,504.646912 385.457703,495.130951 
	C388.002472,485.675903 394.103607,479.195953 403.433167,475.225128 
M427.213013,516.413513 
	C426.683044,509.513062 426.845795,502.464386 425.411194,495.757446 
	C424.190887,490.052673 419.120667,487.059753 413.987885,487.053314 
	C408.563995,487.046509 403.892548,490.176239 402.120789,496.008301 
	C399.403290,504.953308 399.527008,514.111389 402.417877,522.987244 
	C404.039124,527.964966 408.016571,530.784119 413.408966,530.929321 
	C418.954865,531.078613 423.007782,528.547607 425.213257,523.420715 
	C426.057648,521.457825 426.496979,519.320740 427.213013,516.413513 
z"/>
<path fill="#F2F4F6" opacity="1.000000" stroke="none" 
	d="
M587.046326,533.971069 
	C591.581421,525.798706 596.067993,518.015381 600.199463,510.047974 
	C600.893005,508.710571 600.622437,506.246460 599.825256,504.863159 
	C594.044617,494.832031 588.014343,484.944733 581.675537,474.365082 
	C587.201294,474.365082 591.981445,474.110809 596.706665,474.508759 
	C598.272461,474.640625 600.209900,476.130341 601.096924,477.549561 
	C604.867249,483.582062 608.307068,489.821106 612.250488,496.647583 
	C616.032227,489.755219 619.270874,483.471436 622.935547,477.446808 
	C623.830078,475.976105 626.054382,474.646454 627.783997,474.482269 
	C632.182007,474.064667 636.646179,474.343384 641.792114,474.343384 
	C635.093506,485.812988 628.753113,496.669250 622.252686,507.799438 
	C629.296875,519.498657 636.385742,531.272034 643.838989,543.650574 
	C638.073975,543.650574 632.966553,543.862244 627.898132,543.510742 
	C626.525391,543.415588 624.842468,541.878967 624.034241,540.556335 
	C620.055359,534.045288 616.322998,527.383545 612.049988,519.990234 
	C608.475647,526.562927 604.958984,532.480530 602.004395,538.666626 
	C600.202881,542.438660 598.058044,544.283264 593.671570,543.754639 
	C589.932251,543.303894 586.095581,543.661499 581.277466,543.661499 
	C583.408203,540.099609 585.143372,537.198914 587.046326,533.971069 
z"/>
<path fill="#0B2E69" opacity="1.000000" stroke="none" 
	d="
M509.962280,542.780823 
	C509.505829,522.122009 509.380707,501.297119 509.246124,480.472351 
	C509.234283,478.643982 509.160431,476.816040 508.940491,474.554871 
	C509.508118,475.153107 510.892853,476.180817 510.898499,477.216095 
	C511.014923,498.589020 510.978302,519.962830 510.936951,541.336365 
	C510.936127,541.762939 510.515717,542.188721 509.962280,542.780823 
z"/>
<path fill="#0B2E69" opacity="1.000000" stroke="none" 
	d="
M451.754761,475.262451 
	C452.213501,497.652008 452.366364,520.331787 452.633301,543.466919 
	C452.167938,542.873779 451.086487,541.826965 451.083038,540.776611 
	C451.012451,519.343872 451.063690,497.910706 451.107941,476.477661 
	C451.108582,476.169098 451.330322,475.860992 451.754761,475.262451 
z"/>
<path fill="#0B2E69" opacity="1.000000" stroke="none" 
	d="
M492.762970,475.254669 
	C493.071289,487.973022 493.071289,500.980560 493.071289,514.946533 
	C491.992188,513.444397 491.396545,512.615295 490.662659,511.466370 
	C491.016052,509.353058 491.885986,507.570129 491.936615,505.764252 
	C492.218933,495.693848 492.302856,485.617920 492.762970,475.254669 
z"/>
<path fill="#0B2E69" opacity="1.000000" stroke="none" 
	d="
M559.711914,475.291138 
	C560.008545,488.046295 560.008545,501.096344 560.008545,515.458374 
	C558.851868,513.566467 558.312195,512.683777 557.617188,511.475769 
	C557.974976,509.370758 558.886353,507.601929 558.935303,505.809570 
	C559.210205,495.738159 559.277283,485.661102 559.711914,475.291138 
z"/>
<path fill="#0B2E69" opacity="1.000000" stroke="none" 
	d="
M468.973694,542.947388 
	C468.622864,530.497986 468.622864,517.762939 468.622864,504.034271 
	C469.866302,505.512207 470.521362,506.290833 471.376709,507.456421 
	C471.049988,509.440094 470.097443,511.028900 470.067566,512.634827 
	C469.914307,520.877380 470.036896,529.124573 469.968872,537.369446 
	C469.954315,539.135193 469.549500,540.897766 468.973694,542.947388 
z"/>
<path fill="#0B2E69" opacity="1.000000" stroke="none" 
	d="
M508.726471,473.888123 
	C504.266663,474.249390 499.560760,474.263611 494.383667,474.228394 
	C498.768463,473.966309 503.624420,473.753693 508.726471,473.888123 
z"/>
<path fill="#0B2E69" opacity="1.000000" stroke="none" 
	d="
M575.735962,474.142365 
	C571.251709,474.433136 566.565491,474.339447 561.412720,474.182312 
	C565.808777,473.998535 570.671387,473.878204 575.735962,474.142365 
z"/>
<path fill="#0B2E69" opacity="1.000000" stroke="none" 
	d="
M494.292114,544.126709 
	C498.710144,543.777832 503.370728,543.771545 508.493835,543.788940 
	C504.149170,544.031555 499.341919,544.250488 494.292114,544.126709 
z"/>
<path fill="#0B2E69" opacity="1.000000" stroke="none" 
	d="
M492.155334,541.785400 
	C492.342560,541.789856 492.615631,542.090942 492.957764,542.692993 
	C492.764984,542.690002 492.503082,542.386047 492.155334,541.785400 
z"/>
<path fill="#F2F2F3" opacity="1.000000" stroke="none" 
	d="
M831.086731,614.545044 
	C834.791870,623.879150 842.055420,628.300903 850.980286,630.895935 
	C846.299744,633.004761 841.998169,631.321716 838.199158,629.213013 
	C830.373413,624.869202 826.206055,617.910645 825.814758,608.897705 
	C825.663330,605.409119 825.729248,601.901428 825.891479,598.411438 
	C826.082520,594.301453 829.398499,590.923157 833.580444,590.889282 
	C847.568665,590.776001 861.593872,590.273254 875.526672,591.155457 
	C879.989136,591.438049 884.329041,592.854736 889.168030,592.591187 
	C895.228699,592.261047 900.664246,599.598389 899.386292,605.493347 
	C897.999084,611.892273 893.872803,617.460571 886.070740,616.724121 
	C884.223999,616.549866 881.455688,618.674377 880.243530,620.495239 
	C873.911560,630.006714 866.725891,633.144348 854.665710,630.335083 
	C864.579346,629.801147 871.828430,626.429077 876.540161,618.500854 
	C880.426331,611.961731 878.641907,604.890198 878.558289,598.019775 
	C878.547363,597.126099 875.896240,595.522461 874.452087,595.504150 
	C861.298279,595.336914 848.137207,595.312439 834.989502,595.663635 
	C833.474426,595.704102 830.894714,598.188782 830.758789,599.713928 
	C830.333862,604.483826 830.843384,609.336975 831.086731,614.545044 
M894.023132,601.448547 
	C891.674438,597.075684 888.501282,595.668945 885.522522,597.965027 
	C882.344543,600.414673 881.397827,603.760254 882.598511,607.648376 
	C883.564209,610.775696 885.650879,612.366394 888.923462,611.869751 
	C893.001770,611.250732 893.767639,607.850647 894.504883,604.600159 
	C894.672607,603.860718 894.284973,602.995300 894.023132,601.448547 
z"/>
<path fill="#F2F2F3" opacity="1.000000" stroke="none" 
	d="
M863.999695,638.188354 
	C870.325928,638.201843 876.159363,638.039001 881.976501,638.276245 
	C887.874512,638.516663 890.037903,642.386353 886.673706,647.498535 
	C883.192444,640.479004 876.915771,643.043884 871.507935,642.955200 
	C858.193787,642.736694 844.872192,642.757080 831.557739,642.957825 
	C828.901367,642.997925 826.263489,644.267822 823.257874,645.066040 
	C823.976196,639.820862 827.028870,638.144104 831.537354,638.156738 
	C842.191406,638.186523 852.845642,638.179626 863.999695,638.188354 
z"/>
<path fill="#F2F2F3" opacity="1.000000" stroke="none" 
	d="
M864.576782,666.889648 
	C865.436890,665.144897 865.488342,662.802368 866.517944,662.235046 
	C868.291626,661.257568 870.674133,661.385132 872.801147,661.048950 
	C872.066162,662.658386 871.331177,664.267822 870.313354,666.496704 
	C871.318359,667.497742 876.334534,669.009277 870.291260,671.587036 
	C869.442810,671.948914 869.981506,675.629211 869.930908,677.774719 
	C869.888184,679.584900 869.922180,681.396912 869.922180,683.554199 
	C868.334656,683.554199 866.995911,683.554199 865.199585,683.554199 
	C865.199585,679.354370 865.199585,675.269104 865.199585,671.059204 
	C863.007690,671.059204 861.270020,671.059204 859.252136,671.059204 
	C859.252136,675.203247 859.252136,679.144104 859.252136,683.238831 
	C856.468018,684.390503 854.966797,684.548462 854.746399,680.830994 
	C854.521973,677.045044 856.387817,673.037354 852.685120,669.417297 
	C850.822571,667.596375 857.825928,660.202759 862.761047,660.318542 
	C861.360535,662.596741 860.347107,664.245178 858.851685,666.677734 
	C860.770142,666.825623 862.489197,666.958130 864.576782,666.889648 
z"/>
<path fill="#F2F2F3" opacity="1.000000" stroke="none" 
	d="
M819.163940,683.329224 
	C813.852112,679.151794 812.029358,672.874817 814.203247,667.206726 
	C815.850891,662.910706 820.062744,660.400146 824.976013,661.097290 
	C829.488647,661.737671 832.496399,664.102600 832.090393,670.181946 
	C830.481201,669.180725 828.575745,668.457214 827.323608,667.121460 
	C824.597778,664.213257 821.198547,664.076782 819.884216,667.747742 
	C818.863586,670.598450 818.748596,674.268616 819.600830,677.172607 
	C820.732178,681.027710 824.575928,681.124817 827.398071,678.161926 
	C828.623535,676.875366 830.444946,676.156494 832.558228,674.825562 
	C832.507446,682.761719 828.211670,685.216431 819.163940,683.329224 
z"/>
<path fill="#F2F2F3" opacity="1.000000" stroke="none" 
	d="
M842.298645,666.927795 
	C849.385010,667.268616 850.185913,668.075684 850.208923,674.487915 
	C850.219482,677.435364 850.210632,680.382935 850.210632,683.397644 
	C847.231567,683.683777 843.905579,684.508667 840.734009,684.108582 
	C838.975769,683.886902 835.994263,681.373230 836.167786,680.322571 
	C836.528809,678.136719 838.286987,675.815430 840.115845,674.360413 
	C841.449158,673.299744 843.814575,673.536438 845.719788,673.194702 
	C845.715942,672.618347 845.712097,672.041992 845.708252,671.465637 
	C844.178467,671.465637 842.592407,671.211853 841.134338,671.535156 
	C839.602905,671.874817 838.194092,672.767151 836.105530,673.696411 
	C836.428589,668.975769 838.659119,667.484070 842.298645,666.927795 
z"/>
<path fill="#F2F2F3" opacity="1.000000" stroke="none" 
	d="
M888.305542,671.045166 
	C888.762207,673.028687 889.040222,674.634888 889.411011,676.776733 
	C885.795166,676.776733 882.580566,676.776733 879.219482,676.776733 
	C880.271179,680.198669 880.271179,680.198669 888.379395,678.579651 
	C887.886353,682.589111 886.639709,683.736267 882.661255,684.147217 
	C878.403442,684.586914 875.551270,682.875000 874.304688,678.786133 
	C872.963745,674.387695 874.822083,668.919678 878.400085,667.550537 
	C882.278564,666.066589 885.959412,666.288269 888.305542,671.045166 
z"/>
<path fill="#F2F2F3" opacity="1.000000" stroke="none" 
	d="
M902.876831,680.180176 
	C904.347046,680.950134 905.379456,681.720215 906.411804,682.490356 
	C906.153076,682.908203 905.894348,683.326050 905.635559,683.743896 
	C900.860107,683.743896 896.084717,683.743896 891.095703,683.743896 
	C890.022461,677.827271 896.216919,676.032898 897.735779,671.717651 
	C897.553162,671.506958 897.406982,671.219849 897.173828,671.094788 
	C895.296204,670.087402 891.724060,673.146179 891.500427,668.876160 
	C891.475159,668.393494 895.129456,667.442383 897.136902,667.199768 
	C899.580383,666.904358 902.086853,667.129517 904.733032,667.129517 
	C906.020020,673.353943 899.604797,674.939758 897.757141,680.180298 
	C899.462769,680.180298 900.950867,680.180298 902.876831,680.180176 
z"/>
<path fill="#F2F2F3" opacity="1.000000" stroke="none" 
	d="
M853.964233,570.005188 
	C857.069885,569.510376 860.667297,574.248535 860.343872,578.162964 
	C860.143005,580.593994 859.436096,582.983337 858.956360,585.391418 
	C858.433289,585.476318 857.910278,585.561218 857.387207,585.646179 
	C856.140503,580.498901 854.893799,575.351562 853.964233,570.005188 
z"/>
<path fill="#F2F2F3" opacity="1.000000" stroke="none" 
	d="
M865.409851,565.675537 
	C870.548035,567.816040 872.820312,571.922363 872.007446,577.528076 
	C871.624084,580.171570 871.412781,583.332703 866.920776,583.226379 
	C867.041199,582.010132 866.921875,580.875610 867.287170,579.927979 
	C868.935425,575.652039 868.504639,571.863525 865.268860,568.423767 
	C864.808716,567.934692 865.134766,566.706177 865.409851,565.675537 
z"/>
<path fill="#F6F5F5" opacity="1.000000" stroke="none" 
	d="
M187.712158,657.811218 
	C204.914886,644.815063 206.138184,619.167847 181.808731,604.628662 
	C183.260773,601.565308 184.728073,598.469788 186.198105,595.368408 
	C214.480591,609.514038 220.397049,642.880127 198.436142,664.090088 
	C182.280060,679.693726 156.718460,679.245667 140.364578,663.072144 
	C124.758942,647.638611 124.367134,622.399963 139.786987,606.364685 
	C148.322968,597.488037 157.410965,589.144470 166.061417,580.374390 
	C168.729492,577.669434 170.602478,578.311523 172.571716,580.792175 
	C174.438278,583.143433 177.569305,585.218079 173.859940,588.674194 
	C166.308517,595.710022 158.931244,602.932312 151.424988,610.017090 
	C141.816650,619.085876 137.398804,629.856689 141.341599,642.903809 
	C147.374786,662.868347 169.193680,669.914978 187.712158,657.811218 
z"/>
<path fill="#F7F6F6" opacity="1.000000" stroke="none" 
	d="
M328.362000,858.516235 
	C328.322144,856.235657 328.561768,854.348633 328.204407,852.582458 
	C326.153076,842.444336 330.357880,836.543213 339.614624,832.162781 
	C350.403503,827.057312 360.495850,820.461304 370.797272,814.354980 
	C374.171326,812.355042 377.149658,812.366028 380.600616,814.194458 
	C391.474030,819.955566 402.416626,825.591675 413.434052,831.071899 
	C416.641785,832.667542 418.159393,834.547485 417.969116,838.345337 
	C417.630859,845.095703 417.874054,851.875244 417.874054,859.458496 
	C403.008820,851.991333 388.859192,844.883606 374.100708,837.470093 
	C374.100708,844.199524 373.902557,850.284973 374.250305,856.339111 
	C374.329895,857.724548 376.036102,859.456238 377.435425,860.240356 
	C381.051788,862.266907 384.853485,864.004822 388.701324,865.560913 
	C391.189453,866.567139 392.343811,867.898315 392.229706,870.724792 
	C392.015472,876.032288 392.168030,881.354553 392.168030,887.597473 
	C389.448151,886.429932 387.271118,885.489075 385.089172,884.559814 
	C377.811523,881.460327 373.801453,884.004578 373.665314,891.848389 
	C373.610413,895.011353 373.668854,898.176270 373.671722,901.340271 
	C373.674561,904.460388 373.672363,907.580566 373.672363,911.605469 
	C367.162170,908.556274 361.134827,905.905640 355.327545,902.838318 
	C354.394714,902.345642 354.102753,899.995178 354.093140,898.499817 
	C354.007477,885.178223 354.072815,871.855652 354.048401,858.533508 
	C354.037384,852.525146 351.638184,851.134216 346.313171,853.989624 
	C340.755005,856.970154 335.213684,859.982178 328.954193,863.364441 
	C328.720764,861.619385 328.543274,860.292480 328.362000,858.516235 
z"/>
<path fill="#F7F8F7" opacity="1.000000" stroke="none" 
	d="
M831.942688,247.047180 
	C841.943298,252.599075 851.612183,257.988007 861.823486,263.679199 
	C856.989868,270.517303 852.891418,276.315308 848.497498,282.531311 
	C835.691589,275.818176 823.265076,269.303986 810.213318,262.462006 
	C810.213318,268.813782 809.935181,274.420135 810.372803,279.970062 
	C810.514893,281.771484 812.499146,283.447357 813.712219,285.129120 
	C813.978821,285.498749 814.545105,285.657043 814.980774,285.899231 
	C819.600037,288.467133 826.749695,290.033417 828.250122,293.831757 
	C830.515808,299.567657 828.841248,306.860016 828.841248,314.364197 
	C825.461121,312.724457 822.385254,311.294769 819.365540,309.754700 
	C812.599609,306.304108 809.368469,308.085297 809.205383,315.828552 
	C808.991455,325.980652 809.131592,336.140228 809.119751,346.296570 
	C809.118896,347.076355 809.119690,347.856140 809.119690,349.407196 
	C802.552673,346.014557 796.405212,343.128540 790.625854,339.633575 
	C789.307068,338.836029 788.730469,335.941254 788.709534,334.002014 
	C788.497009,314.359192 788.496826,294.714172 788.360901,275.070282 
	C788.343140,272.508484 787.896179,269.949646 787.480103,265.656219 
	C779.327637,270.577698 772.349182,274.558716 765.618286,278.921661 
	C759.403870,282.949829 759.613220,283.033997 754.142578,277.788269 
	C750.547791,274.341156 746.639282,271.221130 742.447021,267.586792 
	C744.650574,265.846222 745.425781,265.052338 746.353394,264.528198 
	C764.165100,254.463684 781.935608,244.322235 799.901672,234.540146 
	C801.954529,233.422379 805.531555,233.477295 807.701050,234.489929 
	C815.828735,238.283569 823.665283,242.700760 831.942688,247.047180 
z"/>
<path fill="#F7F7F7" opacity="1.000000" stroke="none" 
	d="
M266.033386,297.944611 
	C271.135376,306.174255 275.891693,314.204285 281.116272,321.917145 
	C283.209381,325.007172 282.597015,326.943359 280.290924,329.222107 
	C275.489716,333.966339 268.314728,334.642975 261.445099,330.396332 
	C252.222183,324.694885 242.327057,321.164398 231.577255,319.833984 
	C217.485443,318.089935 204.603943,321.410278 192.206833,328.095795 
	C187.670761,330.541962 182.375565,332.225677 177.275299,332.731873 
	C174.342575,333.022980 170.793152,330.690369 168.104965,328.735992 
	C165.896896,327.130737 165.652344,324.585571 167.415115,321.692230 
	C184.131195,294.255402 200.658432,266.703583 217.284637,239.211868 
	C219.173447,236.088684 221.336243,233.131210 223.999329,229.161804 
	C238.205276,252.384476 252.040497,275.001099 266.033386,297.944611 
M232.738403,287.746613 
	C226.680222,281.043945 223.209259,281.269257 217.923767,288.507202 
	C215.571609,291.728271 212.878052,294.697998 210.466492,297.878113 
	C205.391815,304.570068 207.452316,312.425446 215.518204,315.045807 
	C219.469910,316.329590 224.053192,316.510559 228.234924,316.076355 
	C238.049255,315.057312 243.099014,304.413513 238.142578,295.807526 
	C236.652740,293.220673 234.805252,290.839844 232.738403,287.746613 
z"/>
<path fill="#F5F7F9" opacity="1.000000" stroke="none" 
	d="
M616.998535,896.691040 
	C607.467957,896.584290 598.436768,896.487305 588.154968,896.376953 
	C609.249634,863.973633 625.546509,830.727417 649.082092,801.066895 
	C650.796631,804.166565 652.445801,806.601929 653.559814,809.261536 
	C657.331116,818.265076 661.249512,827.234497 664.363586,836.469177 
	C665.308716,839.271973 664.731812,843.365112 663.315002,846.058838 
	C655.266907,861.359863 646.654724,876.363098 638.463440,891.590820 
	C636.291016,895.629395 633.571960,897.298279 628.981262,896.788940 
	C625.196838,896.369141 621.328857,896.701660 616.998535,896.691040 
z"/>
<path fill="#F5F7F9" opacity="1.000000" stroke="none" 
	d="
M699.825928,896.276855 
	C681.396301,896.285706 663.443481,896.285706 644.865479,896.285706 
	C645.867310,894.368530 646.590393,892.935364 647.356689,891.525757 
	C654.343323,878.674072 661.278625,865.793823 668.353149,852.990601 
	C672.236572,845.962341 673.063110,838.543884 672.691406,830.294495 
	C684.434448,851.760803 696.177490,873.227112 708.491638,895.737427 
	C705.041748,895.960938 702.672180,896.114502 699.825928,896.276855 
z"/>
<path fill="#6D66D3" opacity="1.000000" stroke="none" 
	d="
M458.328156,146.160126 
	C456.466675,145.123184 455.018036,144.022385 457.970917,142.528961 
	C458.214661,142.945938 458.176056,143.126419 458.228729,143.274368 
	C458.268951,143.387222 458.446014,143.553421 458.526276,143.535446 
	C467.733673,141.472595 476.910126,139.257599 486.157776,137.396317 
	C489.153748,136.793304 489.675262,135.120667 490.035309,132.593307 
	C491.252869,124.046997 492.665741,115.528519 494.003998,106.999405 
	C494.672089,106.511711 495.854523,106.089615 495.926422,105.525887 
	C496.469025,101.271057 499.009369,100.487053 502.632874,101.366676 
	C506.360168,102.271507 510.079987,103.207054 513.481323,104.525360 
	C509.418976,104.243294 505.678864,103.562325 501.937561,102.887703 
	C499.489227,102.446220 497.821106,102.824463 497.480255,105.885216 
	C496.484436,114.827126 495.271362,123.744843 494.036346,133.519882 
	C503.473206,129.519455 512.238403,125.803780 521.003540,122.088104 
	C521.812012,123.399635 522.620483,124.711159 523.554199,126.295380 
	C514.611328,130.478012 505.543304,134.387939 496.655365,138.220200 
	C510.465515,148.436600 524.015686,158.460693 537.793274,168.653000 
	C540.530762,151.557861 543.209229,134.830841 545.887756,118.103813 
	C546.432251,118.173378 546.976685,118.242943 547.669312,118.952011 
	C546.145325,135.480545 544.473267,151.369568 542.869873,166.606140 
	C551.526733,165.004318 559.765015,163.479965 568.003296,161.955597 
	C567.283569,164.260025 566.563904,166.564423 565.662048,168.571442 
	C566.790710,165.448624 564.825256,165.428619 563.141541,165.870041 
	C557.100342,167.453903 551.118652,169.262955 545.098816,170.930725 
	C542.108887,171.759048 541.051880,173.505463 541.145142,176.697693 
	C541.342590,183.458313 541.074951,190.232529 540.998047,197.001160 
	C540.164978,198.947311 539.331848,200.893463 538.291626,202.428375 
	C538.084534,192.841705 538.084534,183.666260 538.084534,174.399277 
	C536.569092,175.063843 534.777649,175.866562 532.972961,176.638138 
	C517.002197,183.466232 501.029114,190.288773 485.056702,197.112976 
	C484.462585,196.233871 483.868469,195.354767 483.517700,194.112427 
	C500.527161,186.684952 517.293213,179.620712 534.659363,172.303635 
	C520.428589,161.544403 507.089905,151.459656 492.830200,140.678574 
	C491.278595,147.385345 489.600952,153.395325 488.535156,159.511932 
	C486.542755,170.946426 484.905304,182.442780 483.120178,193.913391 
	C481.870850,193.001526 480.621552,192.089645 479.085358,190.609467 
	C482.028107,173.513824 485.257721,156.986511 488.695007,139.396362 
	C477.714020,141.842209 468.021088,144.001175 458.328156,146.160126 
M480.405884,189.196579 
	C480.790588,189.200897 481.175262,189.205215 481.559967,189.209534 
	C481.561615,189.049866 481.574005,188.751434 481.563293,188.750595 
	C481.180511,188.720856 480.795532,188.718918 480.405884,189.196579 
z"/>
<path fill="#F5F6F9" opacity="1.000000" stroke="none" 
	d="
M545.910522,118.086044 
	C543.209229,134.830841 540.530762,151.557861 537.793274,168.653000 
	C524.015686,158.460693 510.465515,148.436600 496.655365,138.220200 
	C505.543304,134.387939 514.611328,130.478012 523.944702,126.326698 
	C524.210022,126.085304 524.630737,126.063454 525.157593,125.924393 
	C527.536682,124.884521 529.388855,123.983711 531.241028,123.082901 
	C531.241028,123.082909 531.646912,123.068985 532.149841,122.936913 
	C533.814880,122.219131 534.976929,121.633423 536.139038,121.047699 
	C536.139038,121.047699 536.595703,121.030144 537.117859,120.897484 
	C538.773743,120.207993 539.907410,119.651161 541.041138,119.094322 
	C541.586365,118.954651 542.131592,118.814987 543.229370,118.425537 
	C544.496338,118.158020 545.210815,118.140305 545.925232,118.122581 
	C545.925232,118.122581 545.933350,118.068268 545.910522,118.086044 
z"/>
<path fill="#F5F6F9" opacity="1.000000" stroke="none" 
	d="
M485.261475,197.439850 
	C501.029114,190.288773 517.002197,183.466232 532.972961,176.638138 
	C534.777649,175.866562 536.569092,175.063843 538.084534,174.399277 
	C538.084534,183.666260 538.084534,192.841705 537.910950,202.454102 
	C537.737366,202.891037 537.345459,202.930466 536.755432,203.003235 
	C534.778503,203.106323 533.391602,203.136627 532.004700,203.166931 
	C516.491882,201.366882 500.979065,199.566803 485.261475,197.439850 
z"/>
<path fill="#F5F6F9" opacity="1.000000" stroke="none" 
	d="
M458.211182,146.460037 
	C468.021088,144.001175 477.714020,141.842209 488.695007,139.396362 
	C485.257721,156.986511 482.028107,173.513824 478.765137,190.460480 
	C478.174957,190.407043 477.618073,189.934280 476.885986,188.965424 
	C476.567139,188.166031 476.355957,187.920822 476.077301,187.733719 
	C476.077301,187.733719 476.035217,187.309601 475.872620,186.893402 
	C475.557312,186.182465 475.344025,185.941254 475.070160,185.753586 
	C475.070160,185.753586 475.043152,185.330582 474.899597,184.892822 
	C474.534912,184.197006 474.313751,183.938934 474.092590,183.680878 
	C474.092590,183.680878 474.082245,183.312973 473.945740,182.810196 
	C472.584839,180.022736 471.360382,177.738052 470.135956,175.453369 
	C470.135956,175.453369 470.203857,175.204163 470.071564,174.748596 
	C468.337036,171.345276 466.734833,168.397522 465.132629,165.449753 
	C465.132629,165.449753 465.227936,165.221207 465.131531,164.813919 
	C464.727600,163.893616 464.420074,163.380600 464.112549,162.867584 
	C464.112579,162.867569 464.095459,162.955399 464.115356,162.601868 
	C463.513153,161.102127 462.891022,159.955933 462.268860,158.809753 
	C462.268860,158.809753 462.169952,158.988861 462.250061,158.581375 
	C461.921326,157.409805 461.512482,156.645721 461.103638,155.881653 
	C461.103638,155.881653 461.074219,155.969437 461.086151,155.602570 
	C460.417297,153.770355 459.736542,152.305023 459.055786,150.839691 
	C459.055786,150.839691 459.032440,150.394730 458.919800,149.914185 
	C458.509583,148.965622 458.211945,148.497589 457.914337,148.029572 
	C457.974304,147.606369 458.034271,147.183151 458.211182,146.460037 
z"/>
<path fill="#F5F6F9" opacity="1.000000" stroke="none" 
	d="
M521.271057,121.907455 
	C512.238403,125.803780 503.473206,129.519455 494.036346,133.519882 
	C495.271362,123.744843 496.484436,114.827126 497.480255,105.885216 
	C497.821106,102.824463 499.489227,102.446220 501.937561,102.887703 
	C505.678864,103.562325 509.418976,104.243294 513.579956,104.894974 
	C514.439026,104.948967 514.877625,105.029541 516.016602,105.220818 
	C524.806946,106.865143 532.896973,108.398758 540.987000,109.932373 
	C541.418030,110.011086 541.848999,110.089806 542.869690,110.347366 
	C544.308533,110.676453 545.157715,110.826698 546.006897,110.976944 
	C546.036499,111.148331 546.066040,111.319717 545.778748,111.821541 
	C545.191223,112.403236 544.920532,112.654495 544.649902,112.905762 
	C544.649902,112.905762 544.300110,112.899216 543.785156,113.010201 
	C540.836182,114.057564 538.402161,114.993950 535.968140,115.930328 
	C534.855164,116.294922 533.742249,116.659515 532.041321,117.222855 
	C530.891052,117.826233 530.328674,118.230865 529.766357,118.635513 
	C529.766357,118.635513 530.008423,118.922234 529.532593,118.770523 
	C527.348755,119.364952 525.640686,120.111092 523.932617,120.857224 
	C523.134583,121.147087 522.336609,121.436943 521.271057,121.907455 
z"/>
<path fill="#F5F6F9" opacity="1.000000" stroke="none" 
	d="
M568.103638,161.881989 
	C559.765015,163.479965 551.526733,165.004318 542.869873,166.606140 
	C544.473267,151.369568 546.145325,135.480545 547.880371,119.134247 
	C548.781433,119.648300 549.619629,120.619621 550.766785,122.107147 
	C551.349976,122.927063 551.624146,123.230774 551.898376,123.534485 
	C551.898376,123.534477 551.849365,123.799065 551.988770,124.156845 
	C552.388000,124.729294 552.647766,124.943947 552.907593,125.158607 
	C552.907593,125.158607 552.910095,125.049866 552.895874,125.363403 
	C553.232300,126.148514 553.582947,126.620094 553.933594,127.091675 
	C553.933594,127.091675 553.980530,127.021416 553.995239,127.299530 
	C554.280396,127.790497 554.550781,128.003342 554.821167,128.216187 
	C554.821167,128.216171 554.834229,128.099487 554.798096,128.463745 
	C555.130127,129.400925 555.498230,129.973846 555.866333,130.546783 
	C555.866333,130.546783 555.817505,130.803101 555.964111,131.231842 
	C557.012939,133.164001 557.915161,134.667435 558.817444,136.170868 
	C558.817444,136.170868 558.855286,136.052032 558.848633,136.453308 
	C560.477356,139.966644 562.112732,143.078690 563.748169,146.190735 
	C563.748169,146.190735 563.883545,146.068542 563.812500,146.452209 
	C564.114685,147.411133 564.487915,147.986389 564.861145,148.561646 
	C564.861145,148.561646 564.773926,148.789856 564.883362,149.197189 
	C565.304565,150.137741 565.616394,150.670975 565.928162,151.204193 
	C566.206909,151.964691 566.485718,152.725174 566.989746,154.046539 
	C567.774292,155.447372 568.333618,156.287308 568.892944,157.127258 
	C568.892944,157.127243 568.929443,157.042542 568.941162,157.464706 
	C568.780640,159.224350 568.608276,160.561829 568.435974,161.899307 
	C568.435974,161.899307 568.204102,161.808395 568.103638,161.881989 
z"/>
<path fill="#F5F6F9" opacity="1.000000" stroke="none" 
	d="
M493.797852,106.825226 
	C492.665741,115.528519 491.252869,124.046997 490.035309,132.593307 
	C489.675262,135.120667 489.153748,136.793304 486.157776,137.396317 
	C476.910126,139.257599 467.733673,141.472595 458.526276,143.535446 
	C458.446014,143.553421 458.268951,143.387222 458.228729,143.274368 
	C458.176056,143.126419 458.214661,142.945938 458.307678,142.460602 
	C467.113159,132.842789 475.746704,123.468399 484.583771,114.289932 
	C487.300446,111.468285 490.573456,109.182312 493.797852,106.825226 
z"/>
<path fill="#F2F4F6" opacity="1.000000" stroke="none" 
	d="
M541.340088,196.985901 
	C541.074951,190.232529 541.342590,183.458313 541.145142,176.697693 
	C541.051880,173.505463 542.108887,171.759048 545.098816,170.930725 
	C551.118652,169.262955 557.100342,167.453903 563.141541,165.870041 
	C564.825256,165.428619 566.790710,165.448624 565.343018,168.639679 
	C565.206238,169.005310 564.958130,169.270004 564.689209,169.613434 
	C564.247559,170.293762 564.074829,170.630646 563.902100,170.967529 
	C563.902100,170.967529 563.976929,170.976486 563.738953,171.053253 
	C563.338074,171.420883 563.175110,171.711761 563.012146,172.002625 
	C557.231995,179.085571 551.482117,186.193558 545.646057,193.230118 
	C544.494873,194.618088 543.012024,195.730927 541.340088,196.985901 
z"/>
<path fill="#6D66D3" opacity="1.000000" stroke="none" 
	d="
M540.797974,109.611931 
	C532.896973,108.398758 524.806946,106.865143 516.350952,105.187424 
	C518.805542,105.126633 521.699219,104.836571 524.431152,105.372116 
	C529.870789,106.438484 535.221558,107.958733 540.797974,109.611931 
z"/>
<path fill="#6D66D3" opacity="1.000000" stroke="none" 
	d="
M563.824524,145.804749 
	C562.112732,143.078690 560.477356,139.966644 558.798523,136.490433 
	C560.470337,139.223770 562.185608,142.321259 563.824524,145.804749 
z"/>
<path fill="#6D66D3" opacity="1.000000" stroke="none" 
	d="
M465.104919,165.868698 
	C466.734833,168.397522 468.337036,171.345276 469.989319,174.649033 
	C468.385315,172.099228 466.731262,169.193436 465.104919,165.868698 
z"/>
<path fill="#6D66D3" opacity="1.000000" stroke="none" 
	d="
M536.179932,116.188919 
	C538.402161,114.993950 540.836182,114.057564 543.634338,113.098846 
	C541.462891,114.200180 538.927246,115.323845 536.179932,116.188919 
z"/>
<path fill="#6D66D3" opacity="1.000000" stroke="none" 
	d="
M470.107178,175.868042 
	C471.360382,177.738052 472.584839,180.022736 473.848145,182.654205 
	C472.617432,180.761566 471.347900,178.522141 470.107178,175.868042 
z"/>
<path fill="#6D66D3" opacity="1.000000" stroke="none" 
	d="
M532.086731,203.508911 
	C533.391602,203.136627 534.778503,203.106323 536.581604,203.095779 
	C535.770386,205.871078 534.090515,205.655029 532.086731,203.508911 
z"/>
<path fill="#6D66D3" opacity="1.000000" stroke="none" 
	d="
M530.840332,123.059441 
	C529.388855,123.983711 527.536682,124.884521 525.342773,125.824051 
	C526.813965,124.920509 528.626770,123.978249 530.840332,123.059441 
z"/>
<path fill="#6D66D3" opacity="1.000000" stroke="none" 
	d="
M524.121826,121.120026 
	C525.640686,120.111092 527.348755,119.364952 529.410889,118.631302 
	C527.947021,119.556801 526.129089,120.469818 524.121826,121.120026 
z"/>
<path fill="#6D66D3" opacity="1.000000" stroke="none" 
	d="
M558.870850,135.792450 
	C557.915161,134.667435 557.012939,133.164001 556.052124,131.328156 
	C556.970459,132.468491 557.947388,133.941269 558.870850,135.792450 
z"/>
<path fill="#6D66D3" opacity="1.000000" stroke="none" 
	d="
M568.801270,161.826630 
	C568.608276,160.561829 568.780640,159.224350 568.896118,157.474609 
	C571.483826,158.449371 571.869812,159.993912 568.801270,161.826630 
z"/>
<path fill="#6D66D3" opacity="1.000000" stroke="none" 
	d="
M540.859131,118.843231 
	C539.907410,119.651161 538.773743,120.207993 537.321411,120.793655 
	C538.227539,120.079025 539.452332,119.335579 540.859131,118.843231 
z"/>
<path fill="#6D66D3" opacity="1.000000" stroke="none" 
	d="
M459.039703,151.227203 
	C459.736542,152.305023 460.417297,153.770355 461.129761,155.587036 
	C460.448822,154.497177 459.736206,153.055939 459.039703,151.227203 
z"/>
<path fill="#6D66D3" opacity="1.000000" stroke="none" 
	d="
M535.759766,121.034561 
	C534.976929,121.633423 533.814880,122.219131 532.326599,122.836937 
	C533.127075,122.253166 534.253784,121.637291 535.759766,121.034561 
z"/>
<path fill="#6D66D3" opacity="1.000000" stroke="none" 
	d="
M545.953003,110.649460 
	C545.157715,110.826698 544.308533,110.676453 543.199097,110.331863 
	C543.925598,110.198997 544.912354,110.260483 545.953003,110.649460 
z"/>
<path fill="#6D66D3" opacity="1.000000" stroke="none" 
	d="
M462.185181,159.174866 
	C462.891022,159.955933 463.513153,161.102127 464.158264,162.589142 
	C463.488007,161.799957 462.794739,160.669968 462.185181,159.174866 
z"/>
<path fill="#6D66D3" opacity="1.000000" stroke="none" 
	d="
M568.921753,156.771439 
	C568.333618,156.287308 567.774292,155.447372 567.163208,154.303284 
	C567.724487,154.804626 568.337585,155.610123 568.921753,156.771439 
z"/>
<path fill="#6D66D3" opacity="1.000000" stroke="none" 
	d="
M457.706390,148.199249 
	C458.211945,148.497589 458.509583,148.965622 458.817139,149.716492 
	C458.384186,149.455872 457.941315,148.912399 457.706390,148.199249 
z"/>
<path fill="#6D66D3" opacity="1.000000" stroke="none" 
	d="
M545.921509,117.832123 
	C545.210815,118.140305 544.496338,118.158020 543.424805,118.218567 
	C544.017700,118.021484 544.967773,117.781578 545.921509,117.832123 
z"/>
<path fill="#6D66D3" opacity="1.000000" stroke="none" 
	d="
M461.075012,156.241882 
	C461.512482,156.645721 461.921326,157.409805 462.321777,158.508408 
	C461.891022,158.095993 461.468689,157.349060 461.075012,156.241882 
z"/>
<path fill="#6D66D3" opacity="1.000000" stroke="none" 
	d="
M530.069458,118.729210 
	C530.328674,118.230865 530.891052,117.826233 531.724854,117.383942 
	C531.455078,117.838501 530.913757,118.330711 530.069458,118.729210 
z"/>
<path fill="#6D66D3" opacity="1.000000" stroke="none" 
	d="
M553.927429,126.773499 
	C553.582947,126.620094 553.232300,126.148514 552.842896,125.375542 
	C553.176453,125.534531 553.548889,125.994919 553.927429,126.773499 
z"/>
<path fill="#6D66D3" opacity="1.000000" stroke="none" 
	d="
M555.879028,130.173920 
	C555.498230,129.973846 555.130127,129.400925 554.742554,128.482574 
	C555.112610,128.691788 555.502136,129.246429 555.879028,130.173920 
z"/>
<path fill="#6D66D3" opacity="1.000000" stroke="none" 
	d="
M564.875427,148.186462 
	C564.487915,147.986389 564.114685,147.411133 563.727905,146.486404 
	C564.106201,146.695053 564.497925,147.253174 564.875427,148.186462 
z"/>
<path fill="#6D66D3" opacity="1.000000" stroke="none" 
	d="
M565.928467,150.876129 
	C565.616394,150.670975 565.304565,150.137741 564.963257,149.289627 
	C565.265381,149.499176 565.597046,150.023621 565.928467,150.876129 
z"/>
<path fill="#6D66D3" opacity="1.000000" stroke="none" 
	d="
M464.100769,163.187454 
	C464.420074,163.380600 464.727600,163.893616 465.054291,164.717148 
	C464.745331,164.520874 464.417175,164.014099 464.100769,163.187454 
z"/>
<path fill="#6D66D3" opacity="1.000000" stroke="none" 
	d="
M551.841064,123.223862 
	C551.624146,123.230774 551.349976,122.927063 551.012085,122.319458 
	C551.226929,122.314789 551.505371,122.614014 551.841064,123.223862 
z"/>
<path fill="#6D66D3" opacity="1.000000" stroke="none" 
	d="
M544.928833,112.846695 
	C544.920532,112.654495 545.191223,112.403236 545.730957,112.078003 
	C545.735901,112.265228 545.471863,112.526428 544.928833,112.846695 
z"/>
<path fill="#6D66D3" opacity="1.000000" stroke="none" 
	d="
M552.838928,124.913315 
	C552.647766,124.943947 552.388000,124.729294 552.077148,124.258286 
	C552.274170,124.223969 552.522217,124.445999 552.838928,124.913315 
z"/>
<path fill="#6D66D3" opacity="1.000000" stroke="none" 
	d="
M554.770874,127.952003 
	C554.550781,128.003342 554.280396,127.790497 553.954102,127.309006 
	C554.172363,127.256172 554.446472,127.471992 554.770874,127.952003 
z"/>
<path fill="#6D66D3" opacity="1.000000" stroke="none" 
	d="
M476.121735,187.974976 
	C476.355957,187.920822 476.567139,188.166031 476.747559,188.710663 
	C476.487549,188.783005 476.281494,188.537750 476.121735,187.974976 
z"/>
<path fill="#6D66D3" opacity="1.000000" stroke="none" 
	d="
M475.119598,185.993256 
	C475.344025,185.941254 475.557312,186.182465 475.755676,186.715240 
	C475.502045,186.790909 475.291260,186.550797 475.119598,185.993256 
z"/>
<path fill="#6D66D3" opacity="1.000000" stroke="none" 
	d="
M474.135315,183.936066 
	C474.313751,183.938934 474.534912,184.197006 474.794312,184.708908 
	C474.614380,184.705597 474.396210,184.448425 474.135315,183.936066 
z"/>
<path fill="#6D66D3" opacity="1.000000" stroke="none" 
	d="
M563.231079,171.878525 
	C563.175110,171.711761 563.338074,171.420883 563.730408,171.016541 
	C563.789856,171.186844 563.619934,171.470627 563.231079,171.878525 
z"/>
<path fill="#6D66D3" opacity="1.000000" stroke="none" 
	d="
M564.159546,170.823898 
	C564.074829,170.630646 564.247559,170.293762 564.658325,169.792206 
	C564.736572,169.978424 564.576721,170.329346 564.159546,170.823898 
z"/>
<path fill="#1C457A" opacity="1.000000" stroke="none" 
	d="
M427.166931,516.838257 
	C426.496979,519.320740 426.057648,521.457825 425.213257,523.420715 
	C423.007782,528.547607 418.954865,531.078613 413.408966,530.929321 
	C408.016571,530.784119 404.039124,527.964966 402.417877,522.987244 
	C399.527008,514.111389 399.403290,504.953308 402.120789,496.008301 
	C403.892548,490.176239 408.563995,487.046509 413.987885,487.053314 
	C419.120667,487.059753 424.190887,490.052673 425.411194,495.757446 
	C426.845795,502.464386 426.683044,509.513062 427.166931,516.838257 
z"/>
<path fill="#202D3B" opacity="1.000000" stroke="none" 
	d="
M894.088013,601.818237 
	C894.284973,602.995300 894.672607,603.860718 894.504883,604.600159 
	C893.767639,607.850647 893.001770,611.250732 888.923462,611.869751 
	C885.650879,612.366394 883.564209,610.775696 882.598511,607.648376 
	C881.397827,603.760254 882.344543,600.414673 885.522522,597.965027 
	C888.501282,595.668945 891.674438,597.075684 894.088013,601.818237 
z"/>
<path fill="#F0452E" opacity="1.000000" stroke="none" 
	d="
M232.930008,288.055603 
	C234.805252,290.839844 236.652740,293.220673 238.142578,295.807526 
	C243.099014,304.413513 238.049255,315.057312 228.234924,316.076355 
	C224.053192,316.510559 219.469910,316.329590 215.518204,315.045807 
	C207.452316,312.425446 205.391815,304.570068 210.466492,297.878113 
	C212.878052,294.697998 215.571609,291.728271 217.923767,288.507202 
	C223.209259,281.269257 226.680222,281.043945 232.930008,288.055603 
z"/>
<path fill="#F5F6F9" opacity="1.000000" stroke="none" 
	d="
M483.069427,193.946732 
	C484.905304,182.442780 486.542755,170.946426 488.535156,159.511932 
	C489.600952,153.395325 491.278595,147.385345 492.830200,140.678574 
	C507.089905,151.459656 520.428589,161.544403 534.659363,172.303635 
	C517.293213,179.620712 500.527161,186.684952 483.415833,193.809967 
	C483.070557,193.870758 483.018677,193.980072 483.069427,193.946732 
z"/>
<path fill="#6F65D8" opacity="1.000000" stroke="none" 
	d="
M480.408386,188.954849 
	C480.795532,188.718918 481.180511,188.720856 481.563293,188.750595 
	C481.574005,188.751434 481.561615,189.049866 481.559967,189.209534 
	C481.175262,189.205215 480.790588,189.200897 480.408386,188.954849 
z"/>
</svg>